<svg id="svg" version="1.1" xmlns="http://www.w3.org/2000/svg" xmlns:xlink="http://www.w3.org/1999/xlink" width="400" height="400" viewBox="0, 0, 400,400"><g id="svgg"><path id="path0" d="M262.048 269.514 C 261.442 269.842,259.653 270.240,258.072 270.399 C 254.585 270.751,254.444 270.829,254.444 272.412 C 254.444 273.801,255.734 274.349,258.162 273.993 L 259.282 273.829 259.178 295.357 C 259.063 319.277,259.131 318.637,256.618 319.139 C 255.945 319.274,255.376 319.678,255.202 320.145 C 254.590 321.792,254.849 321.852,262.632 321.852 L 270.000 321.852 270.000 320.389 L 270.000 318.926 267.870 318.815 L 265.741 318.704 265.741 311.667 C 265.741 307.796,265.699 296.588,265.648 286.759 L 265.556 268.889 264.352 268.904 C 263.690 268.912,262.653 269.187,262.048 269.514 M149.259 272.337 C 140.946 274.251,134.450 281.072,131.968 290.494 C 126.748 310.308,142.363 327.399,161.111 322.392 C 168.427 320.438,176.094 314.200,173.767 312.094 C 172.865 311.278,173.041 311.195,170.539 313.619 C 155.218 328.463,133.835 312.566,139.052 290.209 C 143.340 271.830,166.087 269.227,169.697 286.702 L 170.148 288.889 171.556 288.889 L 172.963 288.889 172.963 280.556 L 172.963 272.222 170.926 272.222 L 168.889 272.222 168.889 273.870 L 168.889 275.518 166.759 274.467 C 161.875 272.056,154.420 271.149,149.259 272.337 M230.279 285.957 C 223.522 287.550,219.298 293.429,222.564 296.695 C 225.278 299.409,229.331 296.335,227.715 292.788 C 226.418 289.941,233.888 287.435,237.492 289.508 C 239.604 290.724,241.019 295.587,240.671 300.431 L 240.556 302.037 237.004 302.290 C 223.043 303.287,214.950 312.887,221.737 320.399 C 225.227 324.263,233.493 324.144,238.720 320.154 C 240.757 318.598,240.624 318.585,240.926 320.370 L 241.176 321.852 246.340 321.852 C 251.932 321.852,252.187 321.755,251.700 319.814 C 251.483 318.951,251.312 318.889,249.160 318.889 L 246.852 318.889 246.852 306.018 L 246.852 293.148 245.582 290.805 C 243.101 286.230,237.137 284.340,230.279 285.957 M192.168 286.264 C 175.138 291.786,174.853 317.231,191.764 322.449 C 212.360 328.804,224.005 297.353,204.698 287.518 C 201.900 286.093,194.867 285.389,192.168 286.264 M199.378 289.286 C 208.505 291.820,209.740 315.308,200.955 319.298 C 193.439 322.711,186.879 315.260,186.898 303.333 C 186.914 293.144,192.130 287.273,199.378 289.286 M240.452 310.093 L 240.322 315.000 239.142 316.060 C 235.007 319.774,228.609 319.751,226.956 316.015 C 225.032 311.665,228.506 307.223,234.815 305.968 C 235.935 305.745,237.185 305.497,237.593 305.417 C 238.000 305.337,238.839 305.252,239.458 305.228 L 240.583 305.185 240.452 310.093 " stroke="none" fill="#7c7c8c" fill-rule="evenodd"></path><path id="path1" d="M174.074 104.762 C 148.156 109.032,151.319 108.227,149.879 110.921 C 148.318 113.840,145.671 114.947,135.697 116.851 C 131.851 117.586,128.408 118.274,128.047 118.380 C 127.686 118.487,126.905 119.535,126.313 120.709 C 125.383 122.550,125.003 122.932,123.547 123.488 C 121.350 124.327,121.573 123.461,120.919 133.698 L 120.346 142.668 123.551 151.351 C 125.313 156.127,126.694 160.081,126.618 160.138 C 126.543 160.194,122.622 161.792,117.905 163.688 C 108.108 167.626,109.032 167.145,107.516 169.095 C 106.438 170.481,106.289 171.034,105.582 176.281 C 104.557 183.877,104.574 184.164,106.235 187.607 L 107.655 190.550 104.198 194.675 C 102.296 196.943,100.741 198.962,100.741 199.161 C 100.741 199.360,102.859 204.172,105.449 209.854 L 110.156 220.185 111.282 229.438 L 112.407 238.690 141.667 241.620 L 170.926 244.549 202.169 239.635 L 233.412 234.720 258.465 220.773 L 283.519 206.826 291.438 197.951 L 299.358 189.075 299.183 179.040 L 299.007 169.004 295.030 161.261 L 291.054 153.519 289.407 146.111 C 287.117 135.806,287.144 135.845,276.164 126.682 C 275.320 125.978,273.380 124.306,271.852 122.967 C 266.990 118.706,267.092 118.747,257.170 117.052 C 252.310 116.221,247.880 115.449,247.326 115.336 C 246.462 115.160,246.231 114.817,245.695 112.905 C 245.142 110.933,244.841 110.505,243.076 109.173 L 241.083 107.668 228.597 107.885 C 221.730 108.005,215.609 108.257,214.996 108.445 C 213.979 108.756,213.492 108.530,209.441 105.873 C 206.416 103.888,204.757 103.016,204.237 103.136 C 203.787 103.240,202.893 102.917,202.059 102.350 C 199.577 100.664,198.262 100.777,174.074 104.762 M203.597 108.611 L 208.614 112.037 203.465 112.268 L 198.317 112.499 180.397 123.106 C 170.541 128.939,162.390 133.624,162.282 133.517 C 161.868 133.103,152.337 113.139,152.476 112.978 C 152.557 112.885,162.908 111.110,175.478 109.034 C 188.049 106.958,198.389 105.243,198.457 105.223 C 198.525 105.202,200.838 106.727,203.597 108.611 M243.452 121.019 C 244.880 125.959,245.966 130.083,245.866 130.183 C 245.535 130.514,211.725 135.957,211.215 135.761 C 210.397 135.447,188.896 121.315,188.893 121.089 C 188.891 120.974,195.181 118.974,202.870 116.644 L 216.852 112.407 226.481 112.203 C 231.778 112.090,237.179 112.007,238.484 112.018 L 240.856 112.037 243.452 121.019 M154.639 127.971 L 160.792 137.052 158.286 140.100 C 156.907 141.777,155.733 143.214,155.676 143.294 C 155.618 143.375,151.584 142.646,146.711 141.676 L 137.851 139.910 133.191 131.344 L 128.532 122.778 138.062 120.877 C 143.304 119.832,147.793 118.957,148.039 118.933 C 148.284 118.909,151.254 122.976,154.639 127.971 M257.722 122.567 C 265.241 123.818,266.497 124.123,267.351 124.905 C 267.891 125.401,271.708 128.757,275.833 132.364 C 279.958 135.971,283.337 139.039,283.342 139.183 C 283.346 139.327,284.332 143.778,285.533 149.074 C 286.733 154.370,287.688 158.717,287.654 158.734 C 287.315 158.901,234.459 172.662,233.965 172.711 C 232.607 172.847,212.007 146.904,213.235 146.604 C 213.798 146.467,222.676 144.898,232.963 143.118 C 243.250 141.338,251.709 139.852,251.761 139.816 C 251.861 139.746,249.390 123.357,249.066 121.944 C 248.961 121.486,248.920 121.115,248.974 121.120 C 249.029 121.124,252.965 121.775,257.722 122.567 M197.257 142.080 L 206.234 146.382 212.376 155.596 C 215.753 160.664,218.559 164.995,218.610 165.222 C 218.663 165.454,214.836 166.972,209.815 168.710 C 204.926 170.402,198.056 172.782,194.547 173.997 L 188.169 176.208 177.160 162.850 C 171.105 155.504,166.309 149.432,166.502 149.358 C 166.694 149.285,171.519 146.665,177.222 143.536 C 182.926 140.408,187.747 137.832,187.936 137.813 C 188.125 137.794,192.319 139.714,197.257 142.080 M157.586 183.115 C 168.529 195.625,177.477 205.968,177.469 206.100 C 177.462 206.232,175.115 208.894,172.255 212.015 L 167.054 217.689 159.545 215.507 L 152.037 213.325 142.222 213.520 C 136.824 213.627,130.399 213.807,127.944 213.919 L 123.480 214.123 116.315 198.843 L 109.150 183.563 109.901 177.505 C 110.314 174.173,110.714 171.386,110.789 171.311 C 110.888 171.214,137.286 160.469,137.641 160.382 C 137.668 160.376,146.643 170.606,157.586 183.115 M265.727 287.037 C 265.727 296.713,265.775 300.671,265.833 295.833 C 265.891 290.995,265.891 283.079,265.833 278.241 C 265.775 273.403,265.727 277.361,265.727 287.037 " stroke="none" fill="#040404" fill-rule="evenodd"></path><path id="path2" d="M243.796 322.127 C 245.171 322.198,247.421 322.198,248.796 322.127 C 250.171 322.055,249.046 321.997,246.296 321.997 C 243.546 321.997,242.421 322.055,243.796 322.127 " stroke="none" fill="#80406c" fill-rule="evenodd"></path><path id="path3" d="" stroke="none" fill="#444024" fill-rule="evenodd"></path><path id="path4" d="" stroke="none" fill="#044424" fill-rule="evenodd"></path></g></svg>