<svg id="svg" version="1.1" xmlns="http://www.w3.org/2000/svg" xmlns:xlink="http://www.w3.org/1999/xlink" width="400" height="400" viewBox="0, 0, 400,400"><g id="svgg"><path id="path0" d="M130.093 144.689 C 128.819 144.990,127.778 145.392,127.778 145.581 C 127.778 145.771,127.553 145.926,127.279 145.926 C 125.835 145.926,120.000 150.606,120.000 151.764 C 120.000 151.982,119.812 152.223,119.583 152.300 C 119.353 152.376,119.141 152.765,119.110 153.164 C 119.080 153.563,118.761 154.435,118.401 155.103 C 118.042 155.771,117.840 156.468,117.954 156.652 C 118.067 156.836,118.005 157.082,117.815 157.199 C 117.360 157.480,117.360 171.779,117.815 172.060 C 118.005 172.177,118.067 172.424,117.954 172.607 C 117.840 172.791,118.042 173.488,118.401 174.156 C 118.761 174.824,119.080 175.697,119.110 176.095 C 119.141 176.494,119.353 176.883,119.583 176.960 C 119.812 177.036,120.006 177.293,120.013 177.531 C 120.021 177.769,120.792 178.630,121.728 179.444 C 122.663 180.259,123.814 181.283,124.284 181.720 C 124.755 182.157,125.210 182.444,125.295 182.359 C 125.380 182.274,125.661 182.458,125.918 182.769 C 126.176 183.079,126.700 183.333,127.082 183.333 C 127.465 183.333,127.778 183.487,127.778 183.674 C 127.778 185.134,263.822 186.214,268.531 184.792 C 269.237 184.578,270.314 184.332,270.924 184.245 C 271.534 184.158,272.089 183.917,272.158 183.710 C 272.227 183.503,272.583 183.333,272.948 183.333 C 273.314 183.333,273.824 183.079,274.082 182.769 C 274.339 182.458,274.630 182.285,274.728 182.383 C 274.826 182.481,275.232 182.193,275.630 181.744 C 276.027 181.294,276.226 181.176,276.071 181.481 C 275.917 181.787,276.735 181.120,277.890 180.000 C 279.044 178.880,279.992 177.826,279.995 177.659 C 279.998 177.491,280.252 177.103,280.559 176.796 C 280.866 176.488,281.023 176.084,280.908 175.897 C 280.792 175.710,280.957 175.186,281.275 174.733 C 281.592 174.280,281.852 173.540,281.852 173.088 C 281.852 172.636,282.005 172.172,282.191 172.056 C 282.378 171.941,282.531 168.604,282.531 164.630 C 282.531 160.655,282.378 157.319,282.191 157.203 C 282.005 157.088,281.852 156.624,281.852 156.172 C 281.852 155.720,281.592 154.979,281.275 154.526 C 280.957 154.073,280.792 153.549,280.908 153.363 C 281.023 153.176,280.866 152.771,280.559 152.464 C 280.252 152.156,280.000 151.743,280.000 151.546 C 280.000 150.544,274.044 145.926,272.752 145.926 C 272.494 145.926,272.227 145.756,272.158 145.549 C 272.089 145.342,271.534 145.101,270.924 145.014 C 270.314 144.927,269.237 144.681,268.532 144.468 C 266.287 143.790,132.998 144.003,130.093 144.689 M130.093 215.430 C 128.819 215.731,127.778 216.132,127.778 216.322 C 127.778 216.512,127.465 216.667,127.082 216.667 C 126.700 216.667,126.176 216.921,125.918 217.231 C 125.661 217.542,125.380 217.726,125.295 217.641 C 125.210 217.556,124.755 217.843,124.284 218.280 C 123.814 218.717,122.663 219.741,121.728 220.556 C 120.792 221.370,120.021 222.231,120.013 222.469 C 120.006 222.707,119.812 222.964,119.583 223.040 C 119.353 223.117,119.141 223.506,119.110 223.905 C 119.080 224.303,118.761 225.176,118.401 225.844 C 118.042 226.512,117.840 227.209,117.954 227.393 C 118.067 227.576,118.005 227.823,117.815 227.940 C 117.360 228.221,117.360 242.520,117.815 242.801 C 118.005 242.918,118.067 243.164,117.954 243.348 C 117.840 243.532,118.042 244.229,118.401 244.897 C 118.761 245.565,119.080 246.437,119.110 246.836 C 119.141 247.235,119.353 247.624,119.583 247.700 C 119.812 247.777,120.000 248.019,120.000 248.237 C 120.000 249.365,125.873 254.074,127.279 254.074 C 127.553 254.074,127.778 254.227,127.778 254.415 C 127.778 255.875,263.822 256.955,268.531 255.532 C 269.237 255.319,270.314 255.073,270.924 254.986 C 271.534 254.899,272.089 254.658,272.158 254.451 C 272.227 254.244,272.501 254.074,272.766 254.074 C 273.987 254.074,280.000 249.409,280.000 248.462 C 280.000 248.260,280.252 247.844,280.559 247.536 C 280.866 247.229,281.023 246.824,280.908 246.637 C 280.792 246.451,280.957 245.927,281.275 245.474 C 281.592 245.021,281.852 244.280,281.852 243.828 C 281.852 243.376,282.005 242.912,282.191 242.797 C 282.378 242.681,282.531 239.345,282.531 235.370 C 282.531 231.396,282.378 228.059,282.191 227.944 C 282.005 227.828,281.852 227.364,281.852 226.912 C 281.852 226.460,281.592 225.720,281.275 225.267 C 280.957 224.814,280.792 224.290,280.908 224.103 C 281.023 223.916,280.866 223.512,280.559 223.204 C 280.252 222.897,279.998 222.509,279.995 222.341 C 279.992 222.174,279.044 221.120,277.890 220.000 C 276.735 218.880,275.917 218.213,276.071 218.519 C 276.226 218.824,276.027 218.706,275.630 218.256 C 275.232 217.807,274.826 217.519,274.728 217.617 C 274.630 217.715,274.339 217.542,274.082 217.231 C 273.824 216.921,273.314 216.667,272.948 216.667 C 272.583 216.667,272.227 216.497,272.158 216.290 C 272.089 216.083,271.534 215.842,270.924 215.755 C 270.314 215.668,269.237 215.422,268.532 215.209 C 266.287 214.530,132.998 214.744,130.093 215.430 " stroke="none" fill="#848484" fill-rule="evenodd"></path><path id="path1" d="" stroke="none" fill="#7c7c7c" fill-rule="evenodd"></path><path id="path2" d="" stroke="none" fill="#848880" fill-rule="evenodd"></path><path id="path3" d="" stroke="none" fill="#848880" fill-rule="evenodd"></path><path id="path4" d="" stroke="none" fill="#848880" fill-rule="evenodd"></path></g></svg>