<svg id="svg" version="1.1" xmlns="http://www.w3.org/2000/svg" xmlns:xlink="http://www.w3.org/1999/xlink" width="400" height="400" viewBox="0, 0, 400,400"><g id="svgg"><path id="path0" d="M157.407 56.813 C 157.407 56.911,158.342 58.294,159.484 59.885 C 175.573 82.299,177.041 108.565,163.207 126.481 C 157.679 133.641,154.339 136.788,143.529 145.025 C 111.839 169.174,100.703 197.244,110.774 227.593 C 119.176 252.913,137.970 267.772,169.361 273.914 C 173.267 274.678,173.231 274.702,172.058 272.049 C 166.084 258.542,165.448 237.848,170.478 220.665 L 171.314 217.811 172.415 219.554 C 175.330 224.169,181.705 229.338,187.037 231.411 C 211.656 240.984,231.642 208.766,218.941 179.984 C 218.136 178.159,217.622 176.667,217.799 176.667 C 223.064 176.667,231.994 184.763,236.386 193.519 C 246.460 213.600,242.939 249.023,228.831 269.529 C 228.232 270.399,227.814 271.111,227.901 271.111 C 231.395 271.111,247.546 262.603,255.926 256.349 C 288.321 232.170,299.976 194.532,288.495 151.180 C 277.235 108.665,240.733 78.194,181.667 62.003 C 173.527 59.772,157.407 56.323,157.407 56.813 " stroke="none" fill="#f42c0c" fill-rule="evenodd"></path><path id="path1" d="M183.264 284.169 C 180.012 286.887,181.436 291.852,185.469 291.852 C 188.535 291.852,190.276 288.563,188.857 285.449 C 187.930 283.414,184.977 282.737,183.264 284.169 M141.636 285.154 C 141.551 285.239,141.481 286.031,141.481 286.914 L 141.481 288.519 143.796 288.518 L 146.111 288.518 146.008 308.780 C 145.891 331.831,146.000 330.996,143.035 331.627 C 141.583 331.936,141.481 332.038,141.481 333.207 L 141.481 334.458 150.463 334.358 L 159.444 334.259 159.559 332.885 L 159.673 331.510 156.225 331.403 L 152.778 331.296 152.778 321.296 L 152.778 311.296 155.884 311.188 C 162.099 310.971,163.871 311.858,164.384 315.440 C 164.633 317.180,164.669 317.222,165.931 317.222 L 167.222 317.222 167.222 309.815 L 167.222 302.407 165.556 302.407 L 163.889 302.407 164.021 305.278 L 164.152 308.148 158.333 308.148 L 152.514 308.148 152.646 299.521 C 152.823 287.935,152.826 287.930,161.248 288.212 C 168.450 288.452,170.977 290.231,171.388 295.350 C 171.594 297.913,172.091 298.475,173.704 297.963 C 174.505 297.709,174.670 293.628,174.121 287.675 L 173.889 285.166 157.840 285.083 C 149.012 285.037,141.721 285.069,141.636 285.154 M215.814 298.664 C 213.998 299.336,212.013 300.721,210.190 302.587 C 208.248 304.576,208.148 304.513,208.148 301.296 L 208.148 298.519 206.861 298.519 C 206.153 298.519,205.040 298.843,204.388 299.240 C 203.632 299.699,202.144 300.053,200.286 300.215 L 197.370 300.469 197.481 301.994 L 197.593 303.519 199.815 303.519 L 202.037 303.519 201.946 312.963 C 201.781 330.188,201.497 331.852,198.721 331.852 C 197.889 331.852,197.778 332.006,197.778 333.156 L 197.778 334.460 205.093 334.360 L 212.407 334.259 212.521 332.890 L 212.635 331.522 210.669 331.409 L 208.704 331.296 208.600 320.926 C 208.481 309.023,208.408 309.589,210.354 307.145 C 213.769 302.856,216.772 301.547,217.931 303.842 C 219.887 307.713,224.815 306.655,224.815 302.363 C 224.815 298.838,220.327 296.994,215.814 298.664 M241.550 298.562 C 236.426 299.415,231.833 303.154,229.241 308.584 L 227.593 312.037 227.593 317.407 L 227.593 322.778 229.108 325.926 C 234.325 336.760,248.234 339.068,257.302 330.606 C 259.828 328.248,260.124 327.427,258.717 326.674 C 257.878 326.225,257.689 326.290,256.356 327.495 C 246.200 336.670,235.207 330.998,235.188 316.574 L 235.185 314.444 246.944 314.439 C 260.520 314.432,259.829 314.600,259.330 311.437 C 257.814 301.814,251.124 296.970,241.550 298.562 M185.000 299.280 C 184.185 299.665,182.852 299.987,182.037 299.994 C 178.323 300.029,177.729 300.313,177.852 301.996 L 177.963 303.519 180.320 303.630 L 182.677 303.741 182.537 316.480 C 182.380 330.758,182.373 330.793,179.595 331.715 C 178.550 332.062,178.333 332.317,178.333 333.197 L 178.333 334.259 185.648 334.360 L 192.963 334.460 192.963 332.989 L 192.963 331.518 190.902 331.407 L 188.841 331.296 188.876 314.907 L 188.910 298.519 187.696 298.548 C 187.028 298.565,185.815 298.894,185.000 299.280 M248.135 302.315 C 250.184 303.366,251.719 305.966,252.075 308.987 L 252.324 311.111 243.755 311.111 C 239.041 311.111,235.185 311.045,235.185 310.965 C 235.185 304.698,242.827 299.593,248.135 302.315 " stroke="none" fill="#7c7c8c" fill-rule="evenodd"></path><path id="path2" d="" stroke="none" fill="#f8542c" fill-rule="evenodd"></path><path id="path3" d="" stroke="none" fill="#f8542c" fill-rule="evenodd"></path><path id="path4" d="" stroke="none" fill="#f8542c" fill-rule="evenodd"></path></g></svg>