<svg id="svg" version="1.1" xmlns="http://www.w3.org/2000/svg" xmlns:xlink="http://www.w3.org/1999/xlink" width="400" height="400" viewBox="0, 0, 400,400"><g id="svgg"><path id="path0" d="M175.570 278.004 C 174.586 278.531,173.293 278.889,172.375 278.889 C 169.128 278.889,168.519 279.189,168.519 280.787 L 168.519 282.222 170.833 282.222 L 173.148 282.222 172.963 303.813 C 172.757 327.813,172.845 327.033,170.276 327.699 C 169.264 327.961,169.074 328.182,169.074 329.098 L 169.074 330.185 176.296 330.185 L 183.519 330.185 183.632 328.611 L 183.746 327.037 181.691 327.037 L 179.635 327.037 179.540 302.130 L 179.444 277.222 178.333 277.170 C 177.722 277.142,176.479 277.517,175.570 278.004 M134.784 280.888 C 121.291 284.913,114.618 298.424,117.969 314.932 C 120.610 327.940,136.075 334.799,151.296 329.712 C 153.741 328.895,156.845 328.114,158.195 327.978 L 160.648 327.729 160.824 320.253 C 161.047 310.774,161.712 308.889,164.832 308.889 C 165.413 308.889,165.556 308.632,165.556 307.585 L 165.556 306.282 157.500 306.382 L 149.444 306.481 149.444 307.778 L 149.444 309.074 151.759 309.184 L 154.074 309.295 154.074 316.863 L 154.074 324.432 152.299 325.331 C 145.368 328.844,137.710 328.289,132.152 323.872 C 124.293 317.627,122.088 303.877,127.225 293.148 C 133.976 279.049,153.992 280.507,156.467 295.278 C 156.691 296.611,156.760 296.667,158.172 296.667 L 159.644 296.667 159.544 288.611 L 159.444 280.556 157.820 280.439 C 155.879 280.300,155.619 280.508,155.499 282.300 L 155.406 283.672 154.271 282.970 C 149.918 280.280,140.276 279.250,134.784 280.888 M197.519 294.755 C 191.077 296.898,187.794 302.449,191.224 305.402 C 194.002 307.793,197.645 304.844,196.296 301.296 C 195.459 299.095,198.774 296.987,202.778 297.176 C 207.379 297.393,208.697 299.279,209.120 306.251 L 209.371 310.370 207.556 310.371 C 197.170 310.372,187.997 316.288,187.996 322.985 C 187.995 331.487,199.338 334.579,207.543 328.314 L 209.214 327.038 209.465 328.714 L 209.717 330.390 214.951 330.288 L 220.185 330.185 220.300 328.796 L 220.415 327.407 217.893 327.407 L 215.370 327.407 215.370 314.537 L 215.370 301.667 214.413 299.626 C 211.851 294.165,205.126 292.226,197.519 294.755 M231.916 294.572 C 221.317 298.864,223.071 311.035,234.881 315.153 C 244.784 318.606,247.743 322.861,242.936 326.735 C 238.030 330.688,228.734 326.746,227.876 320.349 C 227.671 318.824,227.105 318.394,225.747 318.735 C 224.910 318.945,224.675 326.732,225.399 330.278 C 225.702 331.761,229.031 331.509,228.813 330.020 C 228.725 329.419,228.747 328.983,228.863 329.050 C 233.268 331.593,240.871 332.273,244.860 330.482 C 253.323 326.681,253.305 315.934,244.829 311.993 C 244.108 311.658,242.852 311.064,242.037 310.674 C 241.222 310.283,239.472 309.528,238.148 308.997 C 231.448 306.309,228.960 302.199,232.170 299.125 C 237.012 294.487,245.735 298.514,245.898 305.463 C 245.925 306.616,245.989 306.667,247.407 306.667 L 248.889 306.667 248.889 300.563 L 248.889 294.459 247.990 294.233 C 246.578 293.878,245.556 294.367,245.556 295.395 C 245.556 296.446,245.284 296.509,244.159 295.722 C 241.234 293.673,235.473 293.131,231.916 294.572 M263.835 294.682 C 253.443 298.832,255.488 311.421,267.166 315.178 C 276.094 318.051,279.516 322.571,275.590 326.306 C 270.672 330.985,260.028 326.632,260.004 319.932 C 260.000 318.848,259.041 318.303,257.820 318.690 C 257.161 318.899,256.996 328.703,257.618 330.670 C 257.962 331.758,260.940 331.051,260.807 329.912 L 260.689 328.899 262.659 329.812 C 270.475 333.436,279.742 331.308,282.455 325.267 C 285.179 319.202,282.383 314.299,274.166 310.737 C 264.160 306.399,262.447 304.892,263.206 301.098 C 263.461 299.824,265.992 297.443,267.196 297.344 C 273.553 296.820,276.865 299.022,277.898 304.458 L 278.324 306.701 279.625 306.591 L 280.926 306.481 281.028 300.583 C 281.138 294.229,281.099 294.091,279.180 294.080 C 278.040 294.073,277.268 295.131,277.662 296.158 C 277.876 296.715,277.739 296.689,276.749 295.984 C 273.406 293.604,267.920 293.051,263.835 294.682 M208.979 318.426 C 208.804 324.250,208.911 324.045,205.011 326.014 C 199.603 328.744,195.185 326.871,195.185 321.849 C 195.185 317.561,198.588 315.067,206.017 313.910 C 207.698 313.648,209.087 313.411,209.103 313.383 C 209.119 313.356,209.063 315.625,208.979 318.426 " stroke="none" fill="#7c7c8c" fill-rule="evenodd"></path><path id="path1" d="M193.265 56.842 C 193.201 56.898,191.065 57.047,188.519 57.174 C 185.972 57.301,183.306 57.477,182.593 57.565 C 179.058 58.001,173.925 58.943,173.321 59.266 C 172.947 59.466,172.339 59.634,171.969 59.640 C 170.232 59.665,168.049 63.119,166.825 67.778 C 166.745 68.083,166.004 70.500,165.178 73.148 C 163.791 77.601,160.489 90.458,160.185 92.593 C 160.113 93.102,159.804 94.685,159.500 96.111 C 159.196 97.537,158.841 99.704,158.712 100.926 C 158.583 102.148,158.320 103.855,158.127 104.719 C 157.934 105.584,157.807 106.417,157.845 106.571 C 157.884 106.726,157.778 108.102,157.610 109.630 C 156.901 116.070,157.296 128.520,158.372 133.704 C 159.467 138.975,163.137 147.717,165.173 149.902 C 165.587 150.346,165.926 150.875,165.926 151.077 C 165.926 151.279,166.138 151.578,166.398 151.741 C 166.657 151.904,167.184 152.537,167.567 153.148 C 167.951 153.759,168.489 154.393,168.762 154.555 C 169.035 154.718,169.259 155.038,169.259 155.265 C 169.259 155.493,169.500 155.943,169.795 156.265 C 170.090 156.588,171.815 158.519,173.629 160.556 C 178.177 165.662,186.253 172.963,187.354 172.963 C 187.488 172.963,187.818 173.505,188.089 174.167 C 188.359 174.829,188.719 175.704,188.888 176.111 C 189.058 176.519,189.357 177.519,189.553 178.333 C 189.750 179.148,190.254 181.065,190.673 182.593 C 191.786 186.648,193.072 194.762,193.549 200.741 C 193.671 202.269,193.834 204.019,193.912 204.630 C 194.516 209.379,194.881 233.278,194.421 237.953 C 193.607 246.214,193.070 247.624,190.618 247.941 C 187.089 248.397,180.811 249.296,179.795 249.491 C 178.211 249.795,178.039 249.835,177.222 250.101 C 176.815 250.233,176.065 250.417,175.556 250.510 C 173.994 250.796,170.617 251.755,169.444 252.247 C 168.833 252.503,168.208 252.685,168.056 252.652 C 167.903 252.620,167.778 252.769,167.778 252.985 C 167.778 253.201,167.611 253.274,167.407 253.148 C 167.204 253.022,167.037 253.106,167.037 253.333 C 167.037 253.561,166.893 253.658,166.716 253.549 C 166.540 253.440,166.097 253.680,165.733 254.083 C 165.368 254.485,164.880 254.815,164.647 254.815 C 163.938 254.815,161.606 257.514,161.160 258.852 C 158.516 266.788,169.301 272.670,188.889 273.976 C 223.910 276.311,247.430 267.588,237.005 256.131 C 236.346 255.407,235.610 254.815,235.368 254.815 C 235.127 254.815,234.632 254.485,234.267 254.083 C 233.903 253.680,233.460 253.440,233.284 253.549 C 233.107 253.658,232.963 253.561,232.963 253.333 C 232.963 253.106,232.796 253.022,232.593 253.148 C 232.389 253.274,232.222 253.201,232.222 252.985 C 232.222 252.769,232.097 252.620,231.944 252.652 C 231.792 252.685,231.167 252.503,230.556 252.247 C 229.383 251.755,226.006 250.796,224.444 250.510 C 223.935 250.417,223.185 250.233,222.778 250.101 C 221.077 249.548,212.846 248.259,210.556 248.186 C 207.755 248.097,207.467 247.884,206.752 245.370 C 206.003 242.738,205.150 235.355,205.126 231.296 C 205.110 228.725,205.601 211.866,205.773 209.074 C 205.898 207.037,206.050 204.537,206.111 203.519 C 206.224 201.611,206.386 200.109,207.030 195.000 C 207.536 190.980,207.614 190.530,208.934 184.074 C 209.163 182.954,209.381 181.787,209.418 181.481 C 209.513 180.704,210.783 176.608,211.139 175.930 C 211.301 175.622,211.651 174.829,211.918 174.167 C 212.185 173.505,212.513 172.963,212.646 172.963 C 213.817 172.963,221.784 165.744,226.545 160.370 C 228.260 158.435,229.905 156.588,230.202 156.265 C 230.498 155.943,230.741 155.493,230.741 155.265 C 230.741 155.038,230.949 154.718,231.204 154.555 C 231.720 154.225,234.074 151.270,234.074 150.952 C 234.074 150.840,234.354 150.422,234.696 150.022 C 241.071 142.577,244.422 123.664,242.245 107.407 C 241.712 103.426,241.366 100.978,241.302 100.741 C 241.274 100.639,241.105 99.639,240.926 98.519 C 240.747 97.398,240.580 96.398,240.556 96.296 C 240.532 96.194,240.380 95.361,240.219 94.444 C 239.611 90.984,236.263 77.775,234.821 73.148 C 233.996 70.500,233.255 68.083,233.175 67.778 C 231.951 63.119,229.768 59.665,228.031 59.640 C 227.661 59.634,227.053 59.466,226.679 59.266 C 226.305 59.066,224.358 58.638,222.351 58.315 C 218.745 57.734,217.859 57.623,213.519 57.202 C 211.214 56.979,193.472 56.663,193.265 56.842 M211.296 61.648 C 215.998 61.965,217.328 62.089,219.630 62.422 C 220.546 62.555,221.546 62.700,221.852 62.744 C 226.568 63.424,228.100 64.769,228.749 68.797 C 228.814 69.202,229.954 73.039,231.197 77.037 C 231.419 77.750,231.588 78.417,231.572 78.519 C 231.557 78.620,231.717 78.912,231.929 79.167 C 232.140 79.421,232.224 79.630,232.116 79.630 C 232.008 79.630,232.165 80.505,232.466 81.574 C 233.102 83.837,234.403 89.109,234.591 90.185 C 234.662 90.593,234.754 90.926,234.795 90.926 C 234.836 90.926,234.941 91.343,235.029 91.852 C 235.116 92.361,235.510 94.528,235.905 96.667 C 237.791 106.881,238.334 112.179,238.333 120.370 C 238.333 126.979,237.928 130.388,236.496 135.833 C 236.310 136.540,235.296 139.480,234.931 140.370 C 234.805 140.676,234.665 141.096,234.619 141.305 C 234.573 141.513,234.014 142.504,233.378 143.507 C 232.743 144.510,232.222 145.471,232.222 145.643 C 232.222 146.014,230.894 147.927,229.722 149.242 C 229.264 149.757,228.889 150.289,228.889 150.424 C 228.889 151.108,219.246 162.104,217.711 163.170 C 217.166 163.549,216.801 163.991,216.900 164.152 C 216.999 164.313,216.897 164.444,216.672 164.444 C 216.448 164.444,215.280 165.236,214.078 166.204 C 212.876 167.171,211.053 168.598,210.027 169.373 C 209.002 170.149,208.185 170.899,208.213 171.040 C 208.241 171.181,207.907 172.065,207.471 173.004 C 207.035 173.943,206.604 175.110,206.515 175.596 C 206.425 176.083,206.339 176.523,206.324 176.574 C 206.309 176.625,206.289 176.747,206.280 176.845 C 206.271 176.943,206.019 177.609,205.720 178.325 C 205.421 179.041,205.205 179.669,205.240 179.720 C 205.275 179.772,205.119 180.398,204.894 181.111 C 204.669 181.824,204.405 182.907,204.307 183.519 C 204.209 184.130,203.945 185.546,203.719 186.667 C 203.245 189.018,203.170 189.512,202.443 195.000 C 202.146 197.241,201.795 200.741,201.664 202.778 C 201.533 204.815,201.353 207.398,201.264 208.519 C 200.926 212.794,200.790 236.938,201.094 238.704 C 201.269 239.722,201.624 241.889,201.881 243.519 C 202.138 245.148,202.602 247.065,202.911 247.778 C 203.220 248.491,203.484 249.167,203.496 249.281 C 203.648 250.679,205.894 252.267,207.963 252.440 C 211.103 252.702,216.911 253.467,222.037 254.293 C 222.852 254.425,223.685 254.662,223.889 254.820 C 224.093 254.978,225.343 255.444,226.667 255.856 C 237.399 259.192,237.399 263.541,226.667 266.787 C 222.750 267.971,218.695 268.806,215.556 269.073 C 214.231 269.186,212.419 269.374,211.529 269.490 C 209.054 269.815,193.384 269.902,190.507 269.607 C 189.108 269.464,186.868 269.245,185.531 269.121 C 183.519 268.935,179.741 268.353,175.741 267.613 C 170.407 266.627,163.770 262.304,165.277 260.797 C 165.512 260.563,165.565 260.370,165.396 260.370 C 165.227 260.370,165.926 259.704,166.949 258.889 C 167.972 258.074,168.921 257.407,169.057 257.407 C 169.194 257.407,170.177 256.995,171.243 256.491 C 172.308 255.987,173.506 255.512,173.905 255.435 C 174.303 255.359,174.880 255.201,175.185 255.084 C 177.321 254.269,186.327 252.826,191.883 252.407 C 194.227 252.231,196.218 250.819,196.528 249.113 C 196.569 248.888,196.891 247.954,197.243 247.037 C 199.009 242.436,199.889 218.660,198.723 207.037 C 198.631 206.120,198.453 204.204,198.328 202.778 C 198.010 199.159,197.828 197.430,197.605 195.926 C 197.499 195.213,197.326 193.880,197.219 192.963 C 196.975 190.866,196.746 189.285,196.548 188.333 C 196.382 187.535,195.949 185.201,195.690 183.704 C 195.602 183.194,195.297 182.028,195.013 181.111 C 194.729 180.194,194.382 178.861,194.242 178.148 C 194.102 177.435,193.886 176.685,193.763 176.481 C 193.641 176.278,193.491 175.796,193.431 175.411 C 193.371 175.026,192.965 173.943,192.527 173.004 C 192.090 172.065,191.718 171.190,191.700 171.060 C 191.649 170.698,187.566 167.407,187.167 167.407 C 186.975 167.407,186.166 166.741,185.370 165.926 C 184.575 165.111,183.698 164.444,183.421 164.444 C 183.145 164.444,183.022 164.278,183.148 164.074 C 183.274 163.870,183.224 163.704,183.038 163.704 C 182.310 163.704,171.481 151.696,171.481 150.890 C 171.481 150.748,170.924 149.948,170.243 149.112 C 169.561 148.276,168.787 147.176,168.521 146.667 C 168.255 146.157,167.922 145.657,167.781 145.556 C 167.394 145.275,164.404 139.402,164.258 138.634 C 164.188 138.265,164.105 137.963,164.074 137.963 C 163.995 137.963,163.787 137.151,163.315 135.000 C 163.091 133.981,162.681 132.148,162.404 130.926 C 161.447 126.701,161.436 112.125,162.388 107.457 C 162.486 106.976,162.673 105.642,162.802 104.494 C 163.177 101.172,163.253 100.611,163.456 99.630 C 163.561 99.120,164.005 96.870,164.443 94.630 C 164.881 92.389,165.394 90.044,165.583 89.418 C 165.772 88.793,165.926 87.946,165.926 87.536 C 165.926 87.127,166.269 85.638,166.687 84.229 C 167.106 82.820,167.782 80.500,168.190 79.074 C 168.598 77.648,169.190 75.648,169.504 74.630 C 169.819 73.611,170.139 72.444,170.216 72.037 C 170.292 71.630,170.506 70.963,170.691 70.556 C 170.876 70.148,171.425 68.565,171.911 67.038 C 173.013 63.576,173.773 63.156,180.269 62.413 C 181.241 62.302,182.541 62.147,183.157 62.069 C 183.773 61.991,186.440 61.809,189.083 61.666 C 191.726 61.522,193.924 61.373,193.966 61.334 C 194.162 61.159,207.660 61.403,211.296 61.648 " stroke="none" fill="#04acd4" fill-rule="evenodd"></path><path id="path2" d="M157.172 119.815 C 157.173 121.852,157.235 122.638,157.311 121.562 C 157.386 120.485,157.385 118.819,157.309 117.858 C 157.233 116.897,157.171 117.778,157.172 119.815 M161.619 120.000 C 161.619 122.139,161.680 123.014,161.755 121.944 C 161.829 120.875,161.829 119.125,161.755 118.056 C 161.680 116.986,161.619 117.861,161.619 120.000 M238.285 120.000 C 238.285 122.139,238.346 123.014,238.421 121.944 C 238.496 120.875,238.496 119.125,238.421 118.056 C 238.346 116.986,238.285 117.861,238.285 120.000 M242.728 119.815 C 242.729 121.852,242.791 122.638,242.866 121.562 C 242.941 120.485,242.940 118.819,242.864 117.858 C 242.788 116.897,242.727 117.778,242.728 119.815 " stroke="none" fill="#04accc" fill-rule="evenodd"></path><path id="path3" d="" stroke="none" fill="#04b4d4" fill-rule="evenodd"></path><path id="path4" d="" stroke="none" fill="#6098b4" fill-rule="evenodd"></path></g></svg>