<svg id="svg" version="1.1" xmlns="http://www.w3.org/2000/svg" xmlns:xlink="http://www.w3.org/1999/xlink" width="400" height="400" viewBox="0, 0, 400,400"><g id="svgg"><path id="path0" d="M270.000 264.877 C 269.491 265.089,266.741 265.304,263.889 265.353 L 258.704 265.444 258.590 266.390 C 258.487 267.243,258.632 267.360,260.071 267.592 C 264.115 268.243,264.444 269.186,264.444 280.115 L 264.444 288.657 263.373 287.630 C 259.915 284.318,252.905 284.012,247.222 286.926 C 245.242 287.941,241.111 291.701,241.111 292.488 C 241.111 292.749,240.969 292.963,240.796 292.963 C 240.623 292.963,240.043 294.005,239.508 295.278 C 235.818 304.053,237.037 316.995,242.082 322.599 C 247.601 328.729,258.269 329.352,263.222 323.833 L 264.407 322.512 264.518 324.867 L 264.630 327.222 266.019 327.204 C 266.782 327.194,269.824 327.152,272.778 327.111 L 278.148 327.037 278.148 326.154 C 278.148 325.384,277.874 325.206,276.019 324.765 C 272.033 323.818,272.292 325.983,272.257 293.333 C 272.241 277.954,272.226 265.162,272.225 264.907 C 272.222 264.356,271.281 264.344,270.000 264.877 M123.544 271.032 C 123.111 272.395,123.666 272.963,125.428 272.963 C 127.270 272.963,129.008 273.711,129.487 274.709 C 129.875 275.519,130.156 314.392,129.808 319.188 C 129.492 323.531,128.948 324.299,125.738 324.932 C 123.911 325.293,123.519 325.501,123.519 326.111 C 123.519 326.906,138.573 327.501,139.338 326.736 C 140.104 325.970,139.140 325.275,136.762 324.881 C 134.972 324.584,134.048 324.216,133.356 323.525 L 132.407 322.576 132.304 300.289 C 132.246 288.031,132.270 278.077,132.356 278.168 C 132.544 278.367,135.511 285.862,139.606 296.481 C 141.255 300.759,142.757 304.593,142.944 305.000 C 143.275 305.724,145.609 311.680,147.587 316.852 C 148.775 319.957,150.263 323.734,151.059 325.665 C 151.959 327.847,153.211 327.496,154.088 324.815 C 154.454 323.694,155.527 320.778,156.472 318.333 C 157.417 315.889,158.838 312.139,159.628 310.000 C 160.419 307.861,161.507 304.944,162.046 303.519 C 162.586 302.093,163.324 300.093,163.686 299.074 C 164.469 296.878,166.545 291.360,168.146 287.222 C 168.777 285.593,169.531 283.593,169.823 282.778 C 170.115 281.963,170.683 280.463,171.086 279.444 L 171.817 277.593 171.835 299.003 C 171.856 325.276,172.000 324.409,167.500 325.000 C 165.764 325.227,165.556 325.350,165.556 326.146 L 165.556 327.037 175.741 327.037 L 185.926 327.037 185.926 326.130 C 185.926 325.296,185.746 325.202,183.726 324.973 C 182.071 324.786,181.313 324.498,180.670 323.814 L 179.815 322.904 179.698 301.174 C 179.543 272.526,179.416 273.457,183.537 273.014 C 185.578 272.795,185.741 272.709,185.741 271.852 L 185.741 270.926 178.856 270.825 L 171.972 270.725 171.368 272.122 C 171.037 272.890,169.577 276.769,168.125 280.741 C 166.673 284.713,165.269 288.463,165.006 289.074 C 164.742 289.685,164.414 290.602,164.277 291.111 C 164.140 291.620,163.871 292.370,163.681 292.778 C 163.490 293.185,162.341 296.269,161.126 299.630 C 157.211 310.468,155.310 315.370,155.023 315.370 C 154.868 315.370,153.944 313.204,152.969 310.556 C 151.118 305.528,148.344 298.126,146.826 294.164 C 146.337 292.890,145.543 290.807,145.060 289.535 C 144.578 288.263,143.675 285.889,143.054 284.259 C 142.433 282.630,141.720 280.630,141.470 279.815 C 141.219 279.000,140.897 278.167,140.752 277.963 C 140.608 277.759,139.943 276.051,139.274 274.167 L 138.057 270.741 131.466 270.741 C 127.841 270.741,124.627 270.645,124.323 270.529 C 123.981 270.398,123.684 270.590,123.544 271.032 M199.630 284.848 C 198.491 285.149,191.173 285.408,190.185 285.182 C 187.563 284.582,188.608 287.041,191.277 287.749 C 195.067 288.755,194.964 288.290,195.197 305.370 C 195.434 322.733,195.562 323.315,199.743 325.999 C 204.920 329.322,216.344 326.210,217.989 321.030 C 218.499 319.423,218.889 320.644,218.889 323.845 L 218.889 327.319 225.463 327.134 C 229.079 327.033,232.168 326.830,232.327 326.685 C 232.975 326.093,232.085 325.172,230.643 324.941 C 226.465 324.273,226.296 323.366,226.296 301.616 C 226.296 287.363,226.210 284.444,225.791 284.444 C 225.514 284.444,224.389 284.621,223.291 284.837 C 222.194 285.053,219.434 285.233,217.158 285.237 C 213.928 285.242,212.975 285.359,212.818 285.770 C 212.470 286.678,212.981 287.354,214.198 287.593 C 218.470 288.435,218.649 288.929,218.820 300.370 C 219.041 315.133,218.237 318.952,214.139 322.604 C 211.197 325.226,208.181 325.754,205.077 324.190 C 203.185 323.236,203.162 323.003,202.963 303.148 L 202.778 284.630 201.852 284.567 C 201.343 284.533,200.343 284.659,199.630 284.848 M260.504 287.950 C 261.291 288.331,262.495 289.406,263.180 290.340 L 264.426 292.037 264.432 304.815 C 264.439 320.623,263.653 322.973,257.877 324.428 C 250.002 326.410,245.336 319.211,245.658 305.576 C 245.789 299.999,245.910 298.893,246.728 295.747 C 248.565 288.687,254.770 285.175,260.504 287.950 " stroke="none" fill="#7c7c8c" fill-rule="evenodd"></path><path id="path1" d="M223.981 105.076 C 224.440 105.164,225.190 105.164,225.648 105.076 C 226.106 104.988,225.731 104.916,224.815 104.916 C 223.898 104.916,223.523 104.988,223.981 105.076 M281.204 152.848 C 281.560 152.941,282.144 152.941,282.500 152.848 C 282.856 152.755,282.565 152.679,281.852 152.679 C 281.139 152.679,280.847 152.755,281.204 152.848 " stroke="none" fill="#542c04" fill-rule="evenodd"></path><path id="path2" d="M208.099 94.978 C 207.951 95.116,200.318 95.632,199.014 95.593 C 198.573 95.580,195.490 95.810,192.162 96.105 C 188.834 96.399,184.944 96.731,183.519 96.841 C 182.093 96.952,178.509 97.376,175.556 97.785 C 170.227 98.521,169.163 98.680,166.667 99.115 C 165.954 99.239,164.870 99.419,164.259 99.516 C 163.226 99.679,161.418 100.056,155.694 101.301 C 150.051 102.528,141.417 105.128,137.963 106.640 C 124.817 112.395,119.761 117.922,121.850 124.253 C 122.458 126.097,126.651 130.250,129.269 131.603 C 135.175 134.654,134.890 134.477,138.012 137.005 C 145.196 142.820,145.882 148.685,140.177 155.500 C 139.265 156.589,138.519 157.375,138.519 157.245 C 138.519 157.115,138.148 157.353,137.696 157.774 C 132.514 162.602,122.788 166.683,108.148 170.172 C 102.984 171.403,100.972 171.933,99.259 172.516 C 98.954 172.620,98.503 172.747,98.257 172.799 C 96.982 173.067,93.796 174.244,93.158 174.683 C 92.757 174.959,92.148 175.185,91.805 175.185 C 90.832 175.185,82.217 179.708,79.782 181.497 C 67.548 190.485,71.172 200.705,89.813 209.788 C 94.915 212.274,98.065 213.710,99.259 214.093 C 99.769 214.257,101.060 214.736,102.130 215.157 C 103.199 215.578,104.077 215.799,104.080 215.647 C 104.083 215.495,104.208 215.548,104.358 215.766 C 104.591 216.106,109.286 218.009,110.097 218.093 C 110.252 218.109,112.724 218.877,115.589 219.800 C 118.455 220.723,121.245 221.571,121.789 221.684 C 123.417 222.024,123.504 222.049,123.889 222.282 C 124.238 222.493,125.280 222.750,127.407 223.149 C 127.917 223.245,128.750 223.489,129.259 223.690 C 130.138 224.038,139.884 226.449,141.852 226.806 C 142.361 226.898,143.611 227.166,144.630 227.401 C 147.817 228.137,154.474 229.300,159.444 229.990 C 161.074 230.217,162.991 230.486,163.704 230.588 C 166.962 231.056,170.426 231.453,173.148 231.670 C 174.778 231.800,176.778 231.997,177.593 232.109 C 180.117 232.454,208.103 232.541,212.407 232.217 C 244.522 229.800,269.179 222.259,282.525 210.773 C 285.303 208.382,288.923 202.805,288.325 201.838 C 288.221 201.670,288.296 201.434,288.491 201.313 C 289.904 200.440,287.487 191.174,285.665 190.475 C 285.401 190.374,285.184 190.101,285.183 189.868 C 285.177 188.656,279.181 184.255,273.445 181.253 C 271.245 180.101,268.305 178.515,266.911 177.728 C 265.518 176.940,264.310 176.296,264.227 176.296 C 264.144 176.296,263.264 175.713,262.271 175.000 C 261.279 174.287,260.364 173.704,260.238 173.704 C 259.912 173.704,255.490 170.346,254.777 169.558 C 254.451 169.198,254.076 169.010,253.944 169.143 C 253.812 169.275,253.704 169.179,253.704 168.931 C 253.704 168.682,253.188 167.946,252.558 167.295 C 247.971 162.555,250.204 157.778,257.963 155.733 C 258.574 155.572,259.241 155.391,259.444 155.332 C 259.648 155.273,260.315 155.127,260.926 155.008 C 269.594 153.324,275.485 152.931,293.704 152.817 C 308.490 152.725,311.086 152.456,317.407 150.361 C 329.196 146.455,330.492 139.825,320.682 133.604 C 318.890 132.467,314.734 130.370,314.274 130.370 C 314.193 130.370,313.072 129.891,311.785 129.305 C 307.302 127.264,301.163 125.131,296.111 123.859 C 294.878 123.548,294.859 123.542,294.074 123.242 C 293.769 123.124,291.886 122.511,289.891 121.879 C 283.070 119.717,275.407 115.391,270.017 110.658 C 267.903 108.801,264.700 106.296,264.440 106.296 C 264.268 106.296,263.900 106.088,263.622 105.833 C 262.704 104.992,255.914 101.114,255.086 100.958 C 254.835 100.910,253.984 100.592,253.196 100.251 C 252.407 99.909,251.613 99.630,251.431 99.630 C 251.250 99.630,250.812 99.483,250.458 99.305 C 249.488 98.815,247.627 98.285,243.333 97.278 C 239.563 96.394,238.547 96.212,234.630 95.720 C 233.611 95.592,232.194 95.399,231.481 95.292 C 230.025 95.073,208.310 94.782,208.099 94.978 M229.815 105.307 C 231.037 105.460,232.704 105.655,233.519 105.741 C 240.437 106.469,247.114 108.311,253.148 111.155 C 257.149 113.041,258.037 113.599,260.741 115.926 C 261.686 116.740,261.620 116.750,260.000 116.042 C 253.476 113.189,246.091 111.042,239.815 110.172 C 238.796 110.031,237.630 109.868,237.222 109.809 C 233.649 109.295,230.045 108.891,227.407 108.709 C 225.676 108.589,223.176 108.413,221.852 108.318 C 218.254 108.061,205.453 106.972,204.815 106.869 C 204.509 106.819,203.426 106.637,202.407 106.464 C 201.389 106.291,200.389 106.196,200.185 106.254 C 199.981 106.311,199.918 106.255,200.043 106.130 C 200.282 105.890,203.052 105.707,211.652 105.361 C 214.496 105.247,216.858 105.119,216.901 105.076 C 217.112 104.872,227.872 105.063,229.815 105.307 M140.926 124.095 C 151.080 126.017,158.876 137.017,156.609 146.225 C 155.820 149.430,155.185 149.798,155.185 147.051 C 155.185 140.922,152.566 135.690,146.686 130.073 C 144.771 128.244,138.597 124.074,137.804 124.074 C 137.610 124.074,137.344 123.901,137.213 123.689 C 137.064 123.447,137.297 123.373,137.839 123.489 C 138.315 123.591,139.704 123.864,140.926 124.095 M278.940 140.556 C 279.884 140.638,281.051 140.792,281.532 140.898 C 282.014 141.004,282.907 141.164,283.519 141.254 C 285.328 141.521,288.579 142.285,288.451 142.413 C 288.386 142.478,284.938 142.631,280.788 142.753 C 276.639 142.875,273.129 143.046,272.988 143.133 C 272.848 143.220,271.493 143.394,269.977 143.520 C 267.602 143.717,265.212 144.079,260.185 145.002 C 259.574 145.114,257.657 145.637,255.926 146.163 C 248.658 148.374,244.283 151.491,242.000 156.087 L 240.701 158.704 240.946 157.037 C 241.081 156.120,241.215 155.208,241.244 155.009 C 241.606 152.519,245.841 147.318,248.704 145.847 C 249.519 145.428,250.287 144.927,250.412 144.733 C 250.536 144.540,250.746 144.399,250.879 144.420 C 251.011 144.442,251.575 144.228,252.134 143.945 C 258.011 140.962,268.440 139.644,278.940 140.556 M278.130 201.389 C 276.386 203.388,274.919 204.674,272.753 206.098 C 271.544 206.893,270.433 207.721,270.283 207.939 C 270.134 208.156,270.009 208.205,270.006 208.048 C 269.999 207.706,266.950 209.206,266.625 209.711 C 266.501 209.905,266.286 210.037,266.149 210.005 C 266.012 209.973,265.114 210.307,264.154 210.747 C 261.388 212.016,261.053 212.150,258.704 212.931 C 257.481 213.337,255.065 214.159,253.333 214.759 C 248.224 216.527,234.067 219.719,229.074 220.229 C 228.259 220.312,226.509 220.542,225.185 220.739 C 222.885 221.081,222.200 221.167,217.963 221.648 C 212.622 222.254,210.036 222.359,200.185 222.371 C 190.112 222.384,179.506 222.063,177.407 221.681 C 176.898 221.589,175.398 221.431,174.074 221.331 C 172.750 221.231,170.250 220.958,168.519 220.725 C 166.787 220.492,164.870 220.243,164.259 220.172 C 163.648 220.101,160.231 219.535,156.667 218.915 C 150.898 217.910,147.607 217.214,139.815 215.351 L 137.593 214.819 139.815 215.044 C 143.119 215.378,143.929 215.482,147.778 216.065 C 149.713 216.358,152.546 216.699,154.074 216.822 C 155.602 216.945,158.935 217.272,161.481 217.548 C 164.028 217.823,167.147 218.080,168.414 218.117 C 169.681 218.155,171.027 218.246,171.406 218.319 C 175.655 219.137,213.869 219.147,215.191 218.330 C 215.302 218.261,216.971 218.107,218.900 217.988 C 220.829 217.869,222.824 217.705,223.333 217.624 C 224.202 217.486,226.370 217.216,229.815 216.816 C 230.630 216.722,231.880 216.541,232.593 216.415 C 233.306 216.289,234.139 216.154,234.444 216.115 C 235.896 215.928,238.542 215.441,240.556 214.990 C 241.778 214.717,244.278 214.215,246.111 213.877 C 247.944 213.538,249.611 213.156,249.815 213.028 C 250.019 212.901,250.602 212.741,251.111 212.674 C 253.082 212.412,263.293 209.332,263.981 208.791 C 264.236 208.591,264.444 208.551,264.444 208.701 C 264.444 208.851,264.819 208.730,265.278 208.433 C 265.736 208.135,266.949 207.615,267.973 207.277 C 268.997 206.939,270.447 206.246,271.194 205.738 C 271.942 205.230,272.729 204.815,272.943 204.815 C 273.158 204.815,273.333 204.620,273.333 204.383 C 273.333 204.145,273.440 204.057,273.569 204.187 C 273.856 204.473,275.650 203.258,277.397 201.594 C 278.959 200.107,279.341 199.999,278.130 201.389 " stroke="none" fill="#542404" fill-rule="evenodd"></path><path id="path3" d="" stroke="none" fill="#68806c" fill-rule="evenodd"></path><path id="path4" d="M272.398 292.407 C 272.398 307.278,272.444 313.307,272.500 305.806 C 272.556 298.305,272.556 286.138,272.500 278.769 C 272.444 271.400,272.398 277.537,272.398 292.407 " stroke="none" fill="#682428" fill-rule="evenodd"></path></g></svg>