<svg id="svg" version="1.1" xmlns="http://www.w3.org/2000/svg" xmlns:xlink="http://www.w3.org/1999/xlink" width="400" height="400" viewBox="0, 0, 400,400"><g id="svgg"><path id="path0" d="M197.942 122.922 C 197.840 123.024,197.303 123.152,196.749 123.208 C 195.501 123.333,194.887 123.487,193.704 123.976 C 193.194 124.186,192.653 124.284,192.500 124.194 C 192.347 124.104,192.222 124.217,192.222 124.444 C 192.222 124.672,192.056 124.756,191.852 124.630 C 191.648 124.504,191.481 124.587,191.481 124.815 C 191.481 125.043,191.315 125.126,191.111 125.000 C 190.907 124.874,190.741 124.948,190.741 125.163 C 190.741 125.379,190.532 125.560,190.278 125.566 C 189.712 125.578,187.037 128.017,187.037 128.520 C 187.037 128.720,186.704 129.091,186.296 129.345 C 185.889 129.600,185.556 130.018,185.556 130.274 C 185.556 130.531,185.389 130.741,185.185 130.741 C 184.981 130.741,184.815 130.991,184.815 131.296 C 184.815 131.602,184.668 131.852,184.489 131.852 C 184.094 131.852,183.320 133.642,183.236 134.750 C 183.203 135.193,183.027 135.556,182.845 135.556 C 182.662 135.556,182.607 135.800,182.722 136.099 C 182.837 136.398,182.778 136.737,182.592 136.852 C 182.395 136.974,182.244 146.621,182.231 160.081 C 182.218 172.743,182.159 183.150,182.100 183.208 C 182.042 183.267,170.837 183.331,157.200 183.350 C 136.710 183.380,132.150 183.478,130.926 183.915 C 130.111 184.206,128.951 184.536,128.348 184.649 C 127.746 184.761,127.064 185.009,126.833 185.201 C 126.602 185.392,126.304 185.439,126.170 185.305 C 126.036 185.171,125.926 185.256,125.926 185.494 C 125.926 185.731,125.736 185.926,125.504 185.926 C 125.272 185.926,124.843 186.218,124.550 186.574 C 124.258 186.931,124.135 186.997,124.277 186.721 C 124.457 186.373,124.244 186.411,123.581 186.845 C 121.967 187.903,118.906 191.933,118.655 193.332 C 118.527 194.046,118.240 194.858,118.018 195.136 C 117.531 195.748,117.460 203.196,117.932 204.259 C 118.112 204.667,118.310 205.167,118.371 205.370 C 119.167 208.035,122.807 212.963,123.979 212.963 C 124.235 212.963,124.444 213.109,124.444 213.288 C 124.444 213.642,126.677 214.676,127.130 214.533 C 127.282 214.484,127.407 214.621,127.407 214.837 C 127.407 215.052,127.574 215.126,127.778 215.000 C 127.981 214.874,128.148 214.961,128.148 215.194 C 128.148 215.427,128.356 215.543,128.611 215.452 C 128.866 215.362,129.699 215.532,130.462 215.832 C 131.226 216.131,132.101 216.280,132.407 216.163 C 132.713 216.045,132.963 216.111,132.963 216.308 C 132.963 216.536,141.952 216.667,157.593 216.667 L 182.222 216.667 182.231 239.537 C 182.237 254.110,182.379 262.945,182.624 263.889 C 182.836 264.704,183.026 265.579,183.047 265.833 C 183.069 266.088,183.235 266.296,183.417 266.296 C 183.599 266.296,183.644 266.463,183.519 266.667 C 183.393 266.870,183.484 267.037,183.721 267.037 C 183.959 267.037,184.057 267.287,183.940 267.593 C 183.823 267.898,183.898 268.148,184.108 268.148 C 184.317 268.148,184.401 268.290,184.294 268.462 C 184.187 268.635,184.434 269.135,184.842 269.574 C 185.250 270.012,185.453 270.376,185.292 270.382 C 185.131 270.389,185.250 270.601,185.556 270.854 C 185.861 271.106,186.294 271.643,186.518 272.046 C 186.742 272.448,187.325 272.984,187.814 273.235 C 188.303 273.487,188.547 273.695,188.355 273.698 C 188.163 273.701,188.328 273.939,188.721 274.226 C 189.115 274.514,189.563 274.671,189.718 274.575 C 189.873 274.479,190.000 274.587,190.000 274.815 C 190.000 275.043,190.167 275.126,190.370 275.000 C 190.574 274.874,190.741 274.934,190.741 275.133 C 190.741 275.625,193.918 276.807,194.416 276.499 C 194.635 276.364,194.815 276.393,194.815 276.564 C 194.815 277.970,205.079 277.151,207.981 275.513 C 209.092 274.886,210.000 274.480,210.000 274.609 C 210.000 274.880,210.603 274.405,212.523 272.621 C 213.274 271.923,213.847 271.215,213.796 271.047 C 213.745 270.878,213.866 270.741,214.065 270.741 C 214.710 270.741,216.649 266.523,216.661 265.093 C 216.664 264.736,216.851 264.444,217.077 264.444 C 217.302 264.444,217.393 264.200,217.278 263.901 C 217.163 263.602,217.224 263.262,217.413 263.145 C 217.617 263.018,217.763 253.636,217.772 239.918 C 217.781 227.260,217.833 216.858,217.887 216.804 C 217.942 216.750,229.564 216.655,243.715 216.593 C 259.575 216.524,269.658 216.343,270.000 216.121 C 270.306 215.923,270.722 215.749,270.926 215.735 C 272.121 215.654,274.472 214.692,275.380 213.912 C 275.960 213.413,276.535 213.067,276.657 213.142 C 277.010 213.360,280.414 209.782,280.516 209.087 C 280.566 208.742,280.841 208.315,281.126 208.139 C 281.412 207.962,281.531 207.704,281.391 207.564 C 281.251 207.424,281.310 206.988,281.520 206.594 C 282.319 205.103,282.847 197.608,282.183 197.198 C 282.039 197.109,282.004 196.722,282.104 196.338 C 282.205 195.954,282.106 195.527,281.884 195.390 C 281.663 195.253,281.481 194.818,281.481 194.423 C 281.481 194.027,281.305 193.704,281.089 193.704 C 280.874 193.704,280.797 193.541,280.920 193.343 C 281.042 193.145,280.817 192.704,280.419 192.363 C 280.020 192.022,279.766 191.556,279.854 191.329 C 279.941 191.101,279.135 190.073,278.062 189.044 C 276.115 187.179,273.333 185.251,273.333 185.768 C 273.333 185.918,273.018 185.755,272.633 185.407 C 272.248 185.058,271.456 184.710,270.874 184.634 C 270.291 184.558,269.815 184.471,269.815 184.442 C 269.815 184.343,268.344 184.014,267.685 183.964 C 267.329 183.937,267.037 183.784,267.037 183.624 C 267.037 183.464,255.954 183.333,242.407 183.333 L 217.778 183.333 217.725 160.833 C 217.697 148.458,217.692 137.928,217.715 137.433 C 217.738 136.938,217.617 136.354,217.446 136.137 C 217.275 135.919,217.123 135.161,217.108 134.452 C 217.094 133.743,216.904 133.104,216.687 133.031 C 216.469 132.959,216.386 132.747,216.501 132.561 C 216.616 132.375,216.524 132.222,216.296 132.222 C 216.069 132.222,215.968 132.083,216.073 131.914 C 216.178 131.744,215.848 130.994,215.341 130.247 C 214.833 129.500,214.495 128.889,214.589 128.889 C 215.507 128.889,210.559 124.707,209.568 124.645 C 209.432 124.637,209.196 124.505,209.043 124.352 C 208.890 124.199,208.410 124.074,207.975 124.074 C 207.541 124.074,206.988 123.877,206.748 123.637 C 206.507 123.396,205.682 123.164,204.914 123.121 C 204.147 123.078,203.519 123.004,203.519 122.958 C 203.519 122.781,198.117 122.747,197.942 122.922 " stroke="none" fill="#848484" fill-rule="evenodd"></path><path id="path1" d="M206.852 123.704 C 206.978 123.907,207.446 124.062,207.892 124.048 C 208.675 124.023,208.677 124.011,207.963 123.704 C 206.944 123.266,206.581 123.266,206.852 123.704 M208.426 275.210 C 207.662 275.614,207.037 276.026,207.037 276.127 C 207.037 276.229,207.704 275.971,208.519 275.556 C 209.333 275.140,210.000 274.720,210.000 274.622 C 210.000 274.380,209.997 274.381,208.426 275.210 " stroke="none" fill="#7c7c7c" fill-rule="evenodd"></path><path id="path2" d="" stroke="none" fill="#848880" fill-rule="evenodd"></path><path id="path3" d="" stroke="none" fill="#848880" fill-rule="evenodd"></path><path id="path4" d="" stroke="none" fill="#848880" fill-rule="evenodd"></path></g></svg>