<svg id="svg" version="1.1" xmlns="http://www.w3.org/2000/svg" xmlns:xlink="http://www.w3.org/1999/xlink" width="400" height="400" viewBox="0, 0, 400,400"><g id="svgg"><path id="path0" d="M258.148 94.784 C 258.148 95.174,257.999 95.549,257.817 95.617 C 257.362 95.787,255.185 99.546,255.185 100.162 C 255.185 100.437,254.925 100.761,254.606 100.884 C 254.288 101.006,254.131 101.274,254.258 101.479 C 254.384 101.684,254.325 101.852,254.125 101.852 C 253.926 101.852,253.652 102.353,253.518 102.966 C 253.383 103.579,253.120 103.986,252.933 103.870 C 252.746 103.755,252.593 103.897,252.593 104.187 C 252.593 104.478,252.259 105.139,251.852 105.657 C 251.444 106.175,251.111 106.789,251.111 107.023 C 251.111 107.256,250.686 107.980,250.166 108.631 C 249.647 109.282,249.244 109.963,249.272 110.144 C 249.300 110.325,249.131 110.591,248.896 110.736 C 248.661 110.881,248.432 111.252,248.387 111.559 C 248.342 111.867,248.032 112.391,247.698 112.725 C 247.364 113.059,246.803 113.985,246.451 114.783 C 245.897 116.039,245.740 116.163,245.283 115.706 C 244.993 115.416,244.616 115.264,244.446 115.369 C 244.276 115.474,244.081 115.391,244.012 115.184 C 243.943 114.977,243.489 114.731,243.004 114.637 C 242.518 114.544,241.810 114.186,241.431 113.843 C 241.051 113.500,240.741 113.348,240.741 113.506 C 240.741 113.665,240.491 113.587,240.185 113.333 C 239.880 113.080,239.624 113.018,239.618 113.195 C 239.611 113.373,239.368 113.205,239.078 112.821 C 238.788 112.438,238.146 112.079,237.653 112.025 C 237.159 111.971,236.318 111.641,235.785 111.291 C 235.251 110.942,234.815 110.762,234.815 110.892 C 234.815 111.022,234.398 110.855,233.889 110.521 C 233.380 110.188,232.963 110.038,232.963 110.188 C 232.963 110.338,232.755 110.291,232.500 110.083 C 231.750 109.472,223.651 107.026,223.232 107.285 C 222.993 107.433,222.962 107.338,223.152 107.031 C 223.368 106.681,223.289 106.605,222.875 106.763 C 222.556 106.886,222.192 106.883,222.066 106.757 C 221.940 106.631,221.548 106.491,221.196 106.445 C 220.844 106.400,220.139 106.246,219.630 106.103 C 219.120 105.960,218.370 105.800,217.963 105.747 C 217.556 105.694,216.931 105.528,216.574 105.378 C 216.218 105.229,215.655 105.210,215.323 105.337 C 214.992 105.464,214.513 105.396,214.260 105.185 C 214.006 104.975,212.902 104.731,211.807 104.644 C 210.711 104.556,209.815 104.461,209.815 104.431 C 209.815 104.040,194.530 103.296,193.889 103.655 C 193.685 103.769,192.269 103.892,190.741 103.927 C 186.174 104.033,182.060 104.479,181.802 104.895 C 181.670 105.110,181.151 105.183,180.650 105.057 C 180.149 104.931,179.627 104.941,179.489 105.079 C 179.351 105.217,178.951 105.383,178.600 105.448 C 178.250 105.513,177.463 105.660,176.852 105.775 C 176.241 105.890,175.366 105.973,174.907 105.959 C 174.449 105.945,174.074 106.071,174.074 106.239 C 174.074 106.406,173.866 106.555,173.611 106.570 C 171.924 106.666,169.805 107.123,169.615 107.431 C 169.491 107.632,168.836 107.867,168.159 107.952 C 167.483 108.038,166.766 108.271,166.568 108.469 C 166.369 108.668,165.976 108.743,165.696 108.635 C 165.415 108.527,165.185 108.634,165.185 108.871 C 165.185 109.109,165.030 109.207,164.840 109.090 C 164.651 108.973,164.395 109.039,164.273 109.237 C 164.151 109.435,163.806 109.503,163.507 109.389 C 163.208 109.274,162.963 109.365,162.963 109.590 C 162.963 109.816,162.838 109.980,162.685 109.956 C 161.790 109.815,160.724 110.070,160.256 110.538 C 159.960 110.834,159.606 110.964,159.468 110.826 C 159.331 110.689,159.099 110.770,158.953 111.007 C 158.807 111.243,158.205 111.524,157.615 111.631 C 157.024 111.738,156.406 112.040,156.239 112.302 C 156.073 112.564,155.935 112.632,155.932 112.455 C 155.928 112.277,155.676 112.339,155.370 112.593 C 155.065 112.846,154.815 112.930,154.815 112.779 C 154.815 112.628,154.243 112.941,153.543 113.475 C 152.844 114.008,151.917 114.444,151.484 114.444 C 151.051 114.444,150.800 114.611,150.926 114.815 C 151.056 115.026,150.737 115.185,150.185 115.185 C 149.539 115.185,149.305 115.330,149.483 115.618 C 149.662 115.908,149.551 115.975,149.147 115.820 C 148.814 115.692,148.437 115.758,148.309 115.965 C 148.181 116.172,147.717 116.501,147.279 116.695 C 146.840 116.889,145.981 117.376,145.370 117.778 C 144.759 118.179,143.884 118.673,143.426 118.874 C 142.968 119.076,142.593 119.395,142.593 119.584 C 142.593 119.773,142.093 120.102,141.481 120.315 C 140.870 120.528,140.370 120.874,140.370 121.085 C 140.370 121.295,139.949 121.573,139.435 121.702 C 138.920 121.831,138.328 122.256,138.120 122.646 C 137.911 123.035,137.581 123.256,137.386 123.135 C 137.191 123.015,136.933 123.172,136.813 123.485 C 136.693 123.799,135.778 124.558,134.779 125.172 C 133.780 125.787,132.963 126.467,132.963 126.685 C 132.963 126.903,132.814 126.989,132.633 126.877 C 132.451 126.765,131.702 127.338,130.967 128.151 C 130.233 128.964,129.535 129.630,129.418 129.630 C 129.207 129.630,122.341 136.538,120.185 138.920 C 119.574 139.595,119.324 140.015,119.630 139.853 C 119.935 139.691,119.560 140.123,118.796 140.814 C 118.032 141.504,117.407 142.187,117.407 142.331 C 117.407 142.475,117.116 142.901,116.759 143.277 C 115.851 144.236,114.610 146.007,114.730 146.173 C 114.785 146.249,114.499 146.666,114.095 147.100 C 113.690 147.535,113.449 148.036,113.559 148.213 C 113.669 148.391,113.621 148.491,113.453 148.435 C 113.286 148.379,113.110 148.462,113.063 148.618 C 113.017 148.775,112.642 149.265,112.230 149.707 C 111.527 150.461,111.334 150.916,111.438 151.574 C 111.462 151.727,111.328 151.852,111.141 151.852 C 110.715 151.852,109.136 154.371,109.136 155.051 C 109.136 155.329,109.016 155.556,108.870 155.556 C 108.724 155.556,108.498 155.847,108.368 156.204 C 108.237 156.560,107.731 157.519,107.243 158.333 C 106.755 159.148,106.343 160.093,106.326 160.432 C 106.310 160.772,106.128 161.105,105.922 161.174 C 105.717 161.243,105.478 161.661,105.393 162.103 C 105.308 162.546,104.993 163.295,104.693 163.769 C 104.392 164.242,104.034 165.171,103.896 165.833 C 103.758 166.495,103.464 167.037,103.242 167.037 C 103.021 167.037,102.945 167.142,103.073 167.271 C 103.202 167.400,103.106 167.858,102.859 168.289 C 102.613 168.721,102.400 169.241,102.387 169.444 C 102.373 169.648,102.016 170.565,101.593 171.481 C 100.808 173.184,100.163 175.489,100.313 176.058 C 100.359 176.232,100.209 176.599,99.981 176.875 C 99.753 177.150,99.665 177.535,99.785 177.730 C 99.906 177.925,99.850 178.141,99.660 178.209 C 99.471 178.277,99.235 178.917,99.136 179.630 C 99.038 180.343,98.929 180.926,98.894 180.926 C 98.808 180.926,98.602 181.726,98.133 183.889 C 97.489 186.853,97.226 188.531,96.826 192.222 C 96.749 192.935,96.564 194.602,96.414 195.926 C 96.086 198.829,96.105 210.418,96.443 213.519 C 96.711 215.977,96.891 217.691,97.201 220.741 C 97.315 221.861,97.511 223.028,97.637 223.333 C 97.762 223.639,97.937 224.467,98.024 225.174 C 98.112 225.881,98.351 226.563,98.556 226.690 C 98.761 226.816,98.899 227.071,98.865 227.256 C 98.830 227.441,98.835 227.676,98.876 227.778 C 98.917 227.880,99.005 228.296,99.072 228.704 C 99.138 229.111,99.299 229.861,99.429 230.370 C 99.559 230.880,99.733 231.759,99.816 232.323 C 99.899 232.888,100.089 233.548,100.238 233.789 C 100.387 234.031,100.554 234.649,100.609 235.164 C 100.664 235.679,100.873 236.155,101.074 236.222 C 101.275 236.289,101.355 236.567,101.250 236.838 C 101.146 237.110,101.239 237.443,101.456 237.577 C 101.674 237.711,101.852 238.145,101.852 238.540 C 101.852 238.936,102.036 239.259,102.262 239.259 C 102.487 239.259,102.576 239.509,102.459 239.815 C 102.341 240.120,102.417 240.370,102.626 240.370 C 102.835 240.370,102.922 240.507,102.819 240.675 C 102.715 240.842,102.870 241.440,103.162 242.003 C 103.454 242.567,103.889 243.680,104.128 244.477 C 104.366 245.274,104.712 245.926,104.895 245.926 C 105.079 245.926,105.138 246.074,105.026 246.254 C 104.914 246.435,105.069 246.787,105.370 247.037 C 105.671 247.287,105.826 247.639,105.715 247.820 C 105.603 248.000,105.716 248.148,105.966 248.148 C 106.215 248.148,106.316 248.252,106.189 248.379 C 105.923 248.645,107.211 251.316,107.772 251.663 C 107.979 251.791,108.148 252.201,108.148 252.575 C 108.148 252.948,108.406 253.353,108.721 253.474 C 109.036 253.595,109.251 253.904,109.199 254.162 C 109.087 254.711,109.932 256.365,110.518 256.746 C 110.743 256.891,110.932 257.141,110.939 257.301 C 110.964 257.853,111.961 259.445,112.469 259.745 C 112.749 259.910,112.882 260.202,112.764 260.393 C 112.646 260.584,112.725 260.741,112.941 260.741 C 113.157 260.741,113.333 260.996,113.333 261.308 C 113.333 261.620,113.582 261.971,113.887 262.087 C 114.191 262.204,114.348 262.449,114.235 262.631 C 114.123 262.814,114.207 262.963,114.423 262.963 C 114.638 262.963,114.815 263.213,114.815 263.519 C 114.815 263.824,114.986 264.074,115.194 264.074 C 115.403 264.074,115.734 264.495,115.930 265.009 C 116.125 265.524,116.538 266.042,116.846 266.160 C 117.155 266.279,117.407 266.613,117.407 266.903 C 117.407 267.193,117.657 267.527,117.963 267.644 C 118.269 267.761,118.519 268.030,118.519 268.241 C 118.519 269.092,132.093 282.635,134.044 283.732 C 134.876 284.199,135.556 284.717,135.556 284.883 C 135.556 285.049,135.785 285.185,136.066 285.185 C 136.347 285.185,136.854 285.560,137.194 286.019 C 137.534 286.477,137.694 286.602,137.549 286.296 C 137.404 285.991,137.808 286.275,138.446 286.929 C 139.084 287.582,140.153 288.397,140.822 288.740 C 141.490 289.082,142.159 289.548,142.309 289.774 C 142.459 290.000,142.584 290.054,142.587 289.893 C 142.590 289.732,142.951 289.935,143.389 290.343 C 143.828 290.751,144.305 291.012,144.451 290.922 C 144.597 290.832,145.010 291.084,145.370 291.481 C 145.730 291.879,146.169 292.116,146.346 292.006 C 146.522 291.897,146.667 291.965,146.667 292.157 C 146.667 292.349,146.958 292.602,147.315 292.718 C 147.671 292.835,148.671 293.352,149.537 293.867 C 150.403 294.382,151.114 294.681,151.117 294.531 C 151.120 294.382,151.245 294.426,151.395 294.630 C 151.747 295.109,154.861 296.669,155.463 296.668 C 155.718 296.667,155.926 296.861,155.926 297.099 C 155.926 297.336,156.035 297.422,156.168 297.289 C 156.301 297.156,156.942 297.376,157.593 297.778 C 158.243 298.180,158.893 298.391,159.037 298.247 C 159.182 298.102,159.428 298.192,159.584 298.445 C 159.741 298.699,160.274 298.982,160.768 299.075 C 161.262 299.168,162.000 299.399,162.407 299.588 C 163.466 300.080,164.570 300.478,165.000 300.521 C 165.204 300.542,165.704 300.747,166.111 300.976 C 166.519 301.206,167.435 301.529,168.148 301.695 C 169.990 302.122,169.990 302.122,170.093 302.204 C 170.144 302.245,170.435 302.340,170.741 302.414 C 171.046 302.488,171.713 302.661,172.222 302.797 C 172.731 302.934,173.481 303.089,173.889 303.142 C 174.296 303.195,174.889 303.348,175.205 303.483 C 175.522 303.617,176.451 303.777,177.269 303.838 C 178.088 303.899,178.954 304.071,179.194 304.219 C 179.433 304.367,179.796 304.385,180.000 304.259 C 180.204 304.133,180.579 304.160,180.833 304.319 C 181.318 304.621,182.054 304.730,184.815 304.906 C 185.731 304.965,186.660 305.126,186.878 305.265 C 187.354 305.568,188.895 305.618,197.593 305.615 C 203.732 305.612,205.701 305.512,209.259 305.018 C 209.972 304.919,211.222 304.760,212.037 304.665 C 212.852 304.570,214.019 304.382,214.630 304.248 C 215.241 304.113,215.907 303.973,216.111 303.936 C 216.315 303.899,216.648 303.779,216.852 303.670 C 217.056 303.562,217.597 303.502,218.056 303.538 C 218.514 303.573,218.889 303.500,218.890 303.375 C 218.890 303.250,219.348 303.107,219.908 303.057 C 220.956 302.964,222.336 302.707,222.500 302.575 C 222.551 302.534,222.759 302.458,222.963 302.407 C 223.167 302.356,223.375 302.282,223.426 302.243 C 223.477 302.204,223.935 302.113,224.444 302.042 C 224.954 301.972,225.870 301.705,226.481 301.451 C 227.093 301.196,227.704 300.974,227.840 300.957 C 227.975 300.940,228.200 300.812,228.339 300.674 C 228.477 300.535,228.825 300.511,229.110 300.621 C 229.396 300.730,229.630 300.626,229.630 300.388 C 229.630 300.151,229.796 300.059,230.000 300.185 C 230.204 300.311,230.370 300.255,230.370 300.061 C 230.370 299.867,230.745 299.708,231.204 299.707 C 232.351 299.706,235.556 298.509,235.556 298.082 C 235.556 297.891,235.715 297.833,235.911 297.954 C 236.273 298.178,237.771 297.486,238.199 296.897 C 238.329 296.718,238.621 296.686,238.847 296.826 C 239.074 296.966,239.259 296.904,239.259 296.689 C 239.259 296.473,239.581 296.296,239.974 296.296 C 240.366 296.296,240.938 296.046,241.243 295.741 C 241.549 295.435,241.922 295.185,242.071 295.185 C 242.643 295.185,245.185 293.917,245.185 293.632 C 245.185 293.468,245.435 293.333,245.741 293.333 C 246.046 293.333,246.296 293.180,246.296 292.992 C 246.296 292.805,246.796 292.542,247.407 292.408 C 248.018 292.273,248.726 291.873,248.981 291.518 C 249.236 291.163,250.396 290.410,251.559 289.845 C 252.722 289.279,254.086 288.434,254.592 287.966 C 255.097 287.498,255.590 287.195,255.688 287.293 C 255.786 287.391,256.054 287.119,256.285 286.688 C 256.515 286.257,256.835 285.986,256.996 286.086 C 257.156 286.185,258.023 285.570,258.922 284.720 C 259.820 283.870,260.666 283.205,260.800 283.243 C 260.935 283.280,261.913 282.483,262.975 281.470 C 264.036 280.458,265.019 279.630,265.160 279.630 C 265.474 279.630,271.111 273.845,271.111 273.522 C 271.111 273.395,271.862 272.606,272.780 271.771 C 273.698 270.935,274.374 270.177,274.282 270.085 C 274.190 269.993,274.606 269.505,275.206 269.000 C 275.806 268.495,276.296 267.875,276.296 267.621 C 276.296 267.368,276.840 266.591,277.504 265.895 C 279.442 263.865,280.257 262.800,279.630 263.117 C 279.324 263.271,279.491 263.054,280.000 262.633 C 280.509 262.212,280.769 261.865,280.577 261.860 C 280.386 261.856,280.552 261.589,280.948 261.269 C 281.343 260.948,281.417 260.794,281.111 260.926 C 280.748 261.083,280.780 260.982,281.204 260.635 C 281.560 260.343,281.852 259.939,281.852 259.739 C 281.852 259.538,282.181 259.076,282.584 258.712 C 282.986 258.347,283.227 257.905,283.118 257.728 C 283.008 257.552,283.076 257.407,283.268 257.407 C 283.460 257.407,284.081 256.449,284.649 255.278 C 285.217 254.106,285.780 253.065,285.899 252.963 C 286.358 252.573,288.125 248.989,287.947 248.811 C 287.844 248.708,288.014 248.413,288.324 248.156 C 288.635 247.898,288.889 247.552,288.889 247.386 C 288.889 247.221,289.067 246.616,289.285 246.043 C 289.503 245.469,289.682 244.917,289.682 244.815 C 289.682 244.713,289.943 244.342,290.262 243.989 C 290.580 243.637,290.868 243.054,290.900 242.693 C 290.933 242.332,291.243 241.392,291.591 240.603 C 291.938 239.814,292.222 238.856,292.222 238.473 C 292.222 238.091,292.417 237.778,292.654 237.778 C 292.892 237.778,292.977 237.668,292.843 237.534 C 292.709 237.400,292.788 237.063,293.019 236.784 C 293.250 236.506,293.333 236.173,293.204 236.044 C 293.075 235.915,293.131 235.614,293.329 235.375 C 293.527 235.137,293.739 234.622,293.800 234.230 C 293.861 233.839,294.040 233.310,294.199 233.056 C 294.358 232.801,294.405 232.593,294.303 232.593 C 294.201 232.593,294.345 232.155,294.622 231.621 C 294.900 231.086,295.038 230.417,294.929 230.134 C 294.821 229.852,294.900 229.414,295.105 229.162 C 295.311 228.910,295.559 228.096,295.656 227.354 C 295.754 226.611,295.943 225.828,296.076 225.612 C 296.359 225.155,296.732 222.563,296.764 220.833 C 296.776 220.171,296.915 219.630,297.074 219.630 C 297.232 219.630,297.371 219.338,297.384 218.981 C 297.396 218.625,297.505 217.417,297.626 216.296 C 297.747 215.176,297.905 212.051,297.978 209.352 L 298.111 204.444 279.148 204.445 L 260.185 204.445 260.137 207.130 C 260.086 209.985,259.776 213.425,259.378 215.556 C 259.244 216.269,259.171 217.060,259.214 217.315 C 259.257 217.569,259.108 217.778,258.883 217.778 C 258.659 217.778,258.559 217.914,258.662 218.080 C 258.765 218.247,258.605 219.091,258.307 219.957 C 258.008 220.822,257.852 221.672,257.959 221.845 C 258.065 222.018,258.002 222.215,257.819 222.283 C 257.635 222.352,257.402 222.991,257.300 223.704 C 257.104 225.082,256.678 226.362,256.315 226.667 C 256.013 226.919,253.128 233.492,253.261 233.624 C 253.319 233.682,253.028 234.160,252.614 234.686 C 252.200 235.212,251.942 235.772,252.040 235.931 C 252.138 236.089,251.958 236.318,251.641 236.440 C 251.324 236.562,251.152 236.804,251.260 236.978 C 251.368 237.153,251.122 237.654,250.714 238.092 C 250.305 238.530,250.074 238.889,250.200 238.889 C 250.325 238.889,249.832 239.586,249.103 240.437 C 248.374 241.289,247.778 242.187,247.778 242.434 C 247.778 242.682,247.528 242.980,247.222 243.097 C 246.917 243.214,246.667 243.525,246.667 243.788 C 246.667 244.051,246.333 244.474,245.926 244.729 C 245.519 244.983,245.185 245.338,245.185 245.518 C 245.185 245.927,238.627 252.593,238.224 252.593 C 238.061 252.593,237.352 253.171,236.649 253.877 C 235.946 254.584,235.182 255.167,234.953 255.173 C 234.723 255.180,234.257 255.560,233.917 256.019 C 233.577 256.477,233.408 256.631,233.540 256.362 C 233.740 255.956,233.647 255.955,233.002 256.358 C 232.573 256.626,232.222 256.971,232.222 257.126 C 232.222 257.281,231.972 257.407,231.667 257.407 C 231.361 257.407,231.111 257.574,231.111 257.778 C 231.111 257.981,230.856 258.148,230.544 258.148 C 230.232 258.148,229.881 258.398,229.764 258.704 C 229.646 259.009,229.318 259.259,229.034 259.259 C 228.751 259.259,228.519 259.426,228.519 259.630 C 228.519 259.833,228.273 260.000,227.972 260.000 C 227.671 260.000,226.880 260.333,226.213 260.739 C 225.546 261.146,224.708 261.479,224.352 261.480 C 223.995 261.481,223.704 261.658,223.704 261.874 C 223.704 262.089,223.537 262.163,223.333 262.037 C 223.130 261.911,222.963 261.994,222.963 262.222 C 222.963 262.450,222.796 262.533,222.593 262.407 C 222.389 262.282,222.222 262.365,222.222 262.593 C 222.222 262.820,222.056 262.904,221.852 262.778 C 221.648 262.652,221.481 262.725,221.481 262.941 C 221.481 263.157,221.356 263.302,221.204 263.263 C 220.638 263.119,218.519 263.774,218.519 264.092 C 218.519 264.273,218.241 264.315,217.902 264.185 C 217.512 264.035,217.376 264.095,217.532 264.347 C 217.689 264.601,217.509 264.675,217.038 264.552 C 216.607 264.439,216.296 264.540,216.296 264.793 C 216.296 265.033,216.141 265.133,215.952 265.016 C 215.762 264.899,215.507 264.965,215.384 265.163 C 215.262 265.361,214.917 265.429,214.618 265.315 C 214.319 265.200,214.073 265.249,214.072 265.423 C 214.071 265.598,213.463 265.772,212.719 265.811 C 211.976 265.850,211.268 266.016,211.147 266.181 C 211.025 266.346,210.593 266.502,210.185 266.528 C 209.452 266.574,207.871 266.816,205.000 267.322 C 203.273 267.626,190.877 267.584,188.704 267.267 C 187.889 267.148,186.424 266.884,185.448 266.682 C 184.472 266.479,182.888 266.209,181.929 266.082 C 180.970 265.956,179.894 265.593,179.537 265.276 C 179.181 264.959,178.889 264.811,178.889 264.948 C 178.889 265.084,178.306 264.951,177.593 264.653 C 176.880 264.356,176.296 264.207,176.296 264.324 C 176.296 264.440,176.054 264.334,175.757 264.088 C 175.460 263.841,175.044 263.747,174.831 263.879 C 174.618 264.010,174.444 263.944,174.444 263.731 C 174.444 263.518,173.694 263.155,172.778 262.924 C 171.861 262.694,171.111 262.374,171.111 262.214 C 171.111 261.975,169.168 261.119,168.519 261.072 C 168.417 261.064,168.083 260.855,167.778 260.606 C 167.472 260.357,166.722 259.914,166.111 259.621 C 165.500 259.329,164.430 258.635,163.733 258.081 C 163.036 257.526,162.328 257.157,162.159 257.261 C 161.990 257.366,161.852 257.275,161.852 257.059 C 161.852 256.843,161.602 256.667,161.296 256.667 C 160.991 256.667,160.741 256.472,160.741 256.235 C 160.741 255.997,160.633 255.911,160.500 256.043 C 160.368 256.175,159.849 255.828,159.346 255.271 C 158.843 254.715,158.562 254.496,158.721 254.785 C 158.901 255.113,158.653 255.043,158.062 254.600 C 157.540 254.209,157.189 253.764,157.282 253.611 C 157.375 253.458,157.247 253.333,156.997 253.333 C 156.748 253.333,156.280 253.091,155.957 252.795 C 154.199 251.184,152.026 248.941,150.466 247.130 C 149.497 246.004,148.412 244.773,148.056 244.393 C 147.699 244.014,147.407 243.563,147.407 243.391 C 147.407 243.219,147.054 242.760,146.622 242.372 C 145.722 241.564,143.060 237.746,142.714 236.767 C 142.586 236.406,142.132 235.709,141.704 235.218 C 141.272 234.722,141.173 234.462,141.481 234.634 C 141.836 234.830,141.781 234.651,141.331 234.138 C 140.943 233.695,140.761 233.333,140.926 233.333 C 141.091 233.333,140.924 233.000,140.556 232.593 C 140.187 232.185,140.020 231.852,140.185 231.852 C 140.350 231.852,140.209 231.547,139.871 231.174 C 139.534 230.801,139.369 230.384,139.505 230.248 C 139.642 230.111,139.531 230.000,139.259 230.000 C 138.988 230.000,138.871 229.895,138.999 229.766 C 139.128 229.637,139.037 229.179,138.796 228.748 C 138.556 228.316,138.352 227.880,138.342 227.778 C 138.333 227.676,138.134 227.093,137.901 226.481 C 136.949 223.986,136.928 223.926,136.541 222.500 C 136.472 222.245,136.283 221.370,136.122 220.556 C 135.961 219.741,135.703 218.907,135.548 218.704 C 135.393 218.500,135.269 217.893,135.272 217.354 C 135.275 216.815,135.081 215.556,134.841 214.555 C 134.073 211.353,133.843 205.185,134.264 199.074 C 134.362 197.648,134.463 196.023,134.487 195.463 C 134.511 194.903,134.662 194.444,134.822 194.444 C 134.982 194.444,135.231 193.403,135.376 192.130 C 135.522 190.856,135.796 189.519,135.987 189.157 C 136.177 188.795,136.407 187.916,136.499 187.203 C 136.590 186.490,136.906 185.328,137.202 184.620 C 137.498 183.912,137.653 183.333,137.547 183.333 C 137.441 183.333,137.626 183.062,137.958 182.730 C 138.290 182.398,138.473 181.898,138.366 181.619 C 138.259 181.340,138.351 181.111,138.570 181.111 C 138.789 181.111,138.869 180.852,138.748 180.536 C 138.621 180.207,138.683 180.058,138.893 180.188 C 139.212 180.385,139.435 179.629,139.303 178.796 C 139.279 178.644,139.436 178.519,139.651 178.519 C 139.867 178.519,139.941 178.352,139.815 178.148 C 139.689 177.944,139.743 177.778,139.935 177.778 C 140.127 177.778,140.382 177.403,140.502 176.944 C 140.622 176.486,140.684 176.111,140.639 176.111 C 140.595 176.111,140.944 175.569,141.416 174.907 C 141.887 174.245,142.136 173.699,141.970 173.692 C 141.803 173.686,141.958 173.511,142.315 173.304 C 142.671 173.096,142.963 172.757,142.963 172.549 C 142.963 172.342,143.380 171.627,143.889 170.959 C 144.398 170.291,144.815 169.603,144.815 169.430 C 144.815 169.256,145.273 168.621,145.833 168.019 C 146.394 167.416,146.602 167.058,146.296 167.225 C 145.693 167.553,146.959 166.014,148.650 164.365 C 149.232 163.798,149.627 163.333,149.527 163.333 C 149.428 163.333,150.912 161.750,152.825 159.815 C 154.738 157.880,156.460 156.296,156.652 156.296 C 156.844 156.296,157.170 156.005,157.378 155.648 C 157.585 155.292,157.760 155.123,157.767 155.274 C 157.780 155.607,159.001 154.652,160.484 153.148 C 161.087 152.537,161.462 152.287,161.318 152.593 C 161.151 152.946,161.248 152.914,161.583 152.506 C 161.873 152.152,162.193 151.946,162.294 152.048 C 162.396 152.149,163.111 151.730,163.883 151.116 C 164.655 150.502,165.454 150.000,165.658 150.000 C 165.862 150.000,166.269 149.708,166.561 149.352 C 166.853 148.995,166.984 148.916,166.852 149.176 C 166.704 149.466,167.085 149.383,167.843 148.958 C 170.404 147.525,170.938 147.256,171.376 147.182 C 171.623 147.141,172.289 146.776,172.857 146.372 C 173.425 145.968,174.017 145.631,174.173 145.624 C 174.954 145.590,176.897 145.063,177.231 144.796 C 177.605 144.497,179.171 144.164,180.485 144.105 C 180.853 144.088,181.058 143.917,180.940 143.726 C 180.822 143.535,181.020 143.379,181.381 143.381 C 182.261 143.384,183.755 143.106,184.474 142.806 C 184.796 142.672,185.712 142.497,186.511 142.419 C 187.310 142.340,189.380 142.108,191.111 141.903 C 196.206 141.299,204.726 141.692,209.203 142.736 C 210.464 143.030,211.534 143.274,211.581 143.278 C 211.628 143.282,211.917 143.371,212.222 143.475 C 212.528 143.579,213.611 143.902,214.630 144.192 C 215.648 144.482,216.603 144.756,216.751 144.800 C 217.796 145.110,218.533 145.256,218.744 145.194 C 218.880 145.154,219.110 145.314,219.255 145.549 C 219.400 145.783,219.752 146.022,220.037 146.080 C 221.135 146.301,226.667 148.766,226.667 149.033 C 226.667 149.484,225.784 151.111,225.539 151.111 C 225.263 151.111,224.701 152.555,224.778 153.066 C 224.802 153.224,224.571 153.450,224.265 153.568 C 223.959 153.685,223.800 153.931,223.913 154.113 C 224.026 154.295,223.931 154.444,223.704 154.444 C 223.476 154.444,223.393 154.612,223.520 154.817 C 223.647 155.023,223.491 155.290,223.174 155.412 C 222.856 155.534,222.673 155.757,222.767 155.909 C 222.861 156.060,222.651 156.501,222.302 156.888 C 221.953 157.276,221.333 158.257,220.926 159.068 C 220.519 159.880,219.975 160.769,219.719 161.043 C 219.462 161.317,219.347 161.694,219.463 161.882 C 219.579 162.069,219.509 162.222,219.308 162.222 C 219.107 162.222,218.648 162.889,218.289 163.704 C 217.929 164.519,217.501 165.185,217.336 165.185 C 217.172 165.185,217.037 165.423,217.037 165.714 C 217.037 166.005,216.819 166.464,216.553 166.733 C 216.008 167.285,215.408 168.562,215.497 168.981 C 215.529 169.134,215.420 169.259,215.253 169.259 C 214.900 169.259,213.333 171.945,213.333 172.550 C 213.333 172.851,225.616 172.963,258.719 172.963 L 304.105 172.963 303.089 171.204 C 302.530 170.236,301.981 169.361,301.870 169.259 C 301.758 169.157,301.167 168.116,300.556 166.946 C 299.944 165.775,299.310 164.817,299.145 164.816 C 298.980 164.815,298.941 164.660,299.058 164.470 C 299.175 164.280,299.099 164.019,298.889 163.889 C 298.679 163.759,298.254 163.123,297.944 162.475 C 296.912 160.317,296.225 159.188,295.503 158.466 C 295.110 158.073,294.887 157.590,295.008 157.394 C 295.130 157.198,295.094 157.036,294.929 157.034 C 294.764 157.033,294.449 156.658,294.229 156.201 C 294.009 155.744,293.322 154.454,292.702 153.333 C 292.082 152.213,291.026 150.296,290.355 149.074 C 289.684 147.852,288.996 146.796,288.827 146.728 C 288.657 146.660,288.519 146.369,288.519 146.080 C 288.519 145.792,288.370 145.556,288.188 145.556 C 288.007 145.556,287.754 145.139,287.626 144.630 C 287.498 144.120,287.230 143.704,287.030 143.704 C 286.830 143.704,286.667 143.365,286.667 142.951 C 286.667 142.538,286.417 142.103,286.111 141.986 C 285.806 141.869,285.556 141.467,285.556 141.093 C 285.556 140.720,285.379 140.305,285.162 140.171 C 284.946 140.037,284.617 139.569,284.432 139.131 C 284.247 138.692,283.589 137.500,282.970 136.481 C 282.351 135.463,281.744 134.338,281.620 133.981 C 281.496 133.625,281.261 133.333,281.097 133.333 C 280.932 133.333,280.606 132.750,280.370 132.037 C 280.135 131.324,279.779 130.741,279.579 130.741 C 279.379 130.741,279.319 130.573,279.446 130.368 C 279.573 130.163,279.417 129.895,279.100 129.773 C 278.782 129.652,278.615 129.403,278.728 129.220 C 278.840 129.038,278.746 128.889,278.519 128.889 C 278.291 128.889,278.199 128.736,278.314 128.550 C 278.429 128.364,278.397 128.156,278.243 128.087 C 278.089 128.019,277.565 127.171,277.078 126.204 C 276.592 125.236,276.050 124.444,275.874 124.444 C 275.699 124.444,275.556 124.111,275.556 123.704 C 275.556 123.296,275.425 122.963,275.266 122.963 C 275.107 122.963,274.767 122.505,274.511 121.944 C 273.652 120.067,273.160 119.259,272.875 119.259 C 272.720 119.259,272.593 118.957,272.593 118.588 C 272.593 118.219,272.280 117.582,271.897 117.171 C 271.515 116.760,271.087 116.062,270.946 115.620 C 270.806 115.177,270.508 114.815,270.284 114.815 C 270.060 114.815,269.978 114.713,270.102 114.589 C 270.302 114.389,268.759 111.589,268.185 111.111 C 268.063 111.009,267.550 110.093,267.046 109.074 C 266.542 108.056,266.042 107.139,265.934 107.037 C 265.827 106.935,265.490 106.352,265.185 105.741 C 264.879 105.130,264.421 104.409,264.167 104.140 C 263.912 103.871,263.704 103.413,263.704 103.122 C 263.704 102.831,263.540 102.593,263.340 102.593 C 263.141 102.593,262.872 102.176,262.745 101.667 C 262.617 101.157,262.364 100.741,262.182 100.741 C 262.000 100.741,261.852 100.512,261.852 100.232 C 261.852 99.545,260.016 96.296,259.627 96.296 C 259.457 96.296,259.208 95.796,259.074 95.185 C 258.804 93.954,258.148 93.670,258.148 94.784 " stroke="none" fill="#848484" fill-rule="evenodd"></path><path id="path1" d="M135.278 124.487 C 134.015 125.296,133.607 125.838,134.722 125.225 C 135.572 124.758,136.903 123.729,136.667 123.722 C 136.565 123.719,135.940 124.063,135.278 124.487 M193.426 141.737 C 193.782 141.830,194.366 141.830,194.722 141.737 C 195.079 141.644,194.787 141.567,194.074 141.567 C 193.361 141.567,193.069 141.644,193.426 141.737 M146.699 166.438 L 145.804 167.593 146.864 166.585 C 147.447 166.031,147.849 165.512,147.758 165.430 C 147.667 165.349,147.190 165.803,146.699 166.438 M256.656 225.206 C 256.432 225.624,256.303 226.132,256.370 226.333 C 256.437 226.534,256.684 226.192,256.918 225.572 C 257.404 224.282,257.259 224.079,256.656 225.206 M179.830 265.580 C 179.918 265.723,180.484 265.913,181.087 266.001 C 181.690 266.090,182.111 266.045,182.022 265.902 C 181.933 265.758,181.368 265.569,180.765 265.480 C 180.162 265.392,179.741 265.437,179.830 265.580 M249.640 290.726 C 249.341 290.916,249.186 291.162,249.297 291.272 C 249.408 291.383,249.820 291.231,250.212 290.934 C 250.993 290.343,250.519 290.171,249.640 290.726 " stroke="none" fill="#7c7c7c" fill-rule="evenodd"></path><path id="path2" d="" stroke="none" fill="#848880" fill-rule="evenodd"></path><path id="path3" d="" stroke="none" fill="#848880" fill-rule="evenodd"></path><path id="path4" d="" stroke="none" fill="#848880" fill-rule="evenodd"></path></g></svg>