<svg id="svg" version="1.1" xmlns="http://www.w3.org/2000/svg" xmlns:xlink="http://www.w3.org/1999/xlink" width="400" height="400" viewBox="0, 0, 400,400"><g id="svgg"><path id="path0" d="M191.481 57.485 C 168.185 65.693,124.182 124.506,90.394 192.593 C 78.100 217.367,61.111 256.193,61.111 259.516 C 61.111 260.694,61.989 262.963,62.444 262.963 C 62.556 262.963,66.593 263.620,71.416 264.423 C 151.657 277.786,238.435 277.732,328.872 264.264 C 340.349 262.554,340.620 262.203,337.046 253.671 C 323.181 220.571,298.822 188.516,271.481 167.391 C 257.080 156.264,253.085 149.778,231.114 101.852 C 213.413 63.241,204.252 52.986,191.481 57.485 M196.806 63.049 C 197.117 63.542,197.068 63.831,196.597 64.303 C 195.487 65.412,193.832 63.962,194.832 62.757 C 195.408 62.063,196.265 62.190,196.806 63.049 M188.534 69.762 C 188.040 70.257,187.210 69.507,187.584 68.903 C 187.776 68.592,187.984 68.599,188.382 68.929 C 188.755 69.239,188.802 69.494,188.534 69.762 M177.708 79.728 C 177.856 80.493,176.787 81.009,176.222 80.444 C 175.658 79.880,176.174 78.811,176.939 78.958 C 177.294 79.027,177.640 79.373,177.708 79.728 M172.968 93.633 C 174.502 94.875,173.608 97.778,171.692 97.778 C 169.518 97.778,168.464 95.240,170.000 93.704 C 170.919 92.784,171.891 92.761,172.968 93.633 M183.909 95.958 C 184.291 96.576,183.432 97.284,182.921 96.773 C 182.494 96.346,182.761 95.556,183.333 95.556 C 183.513 95.556,183.772 95.737,183.909 95.958 M154.935 97.651 C 155.270 97.986,154.440 98.930,154.032 98.678 C 153.521 98.362,153.646 97.407,154.198 97.407 C 154.469 97.407,154.801 97.517,154.935 97.651 M147.315 106.219 C 148.288 107.457,147.640 109.322,146.077 109.784 C 145.033 110.092,143.333 108.735,143.333 107.593 C 143.333 105.655,146.117 104.695,147.315 106.219 M167.585 110.971 C 168.731 112.117,167.378 113.962,166.019 113.107 C 164.883 112.392,165.362 110.370,166.667 110.370 C 166.841 110.370,167.254 110.641,167.585 110.971 M183.520 119.631 C 184.884 121.138,182.624 123.216,181.185 121.778 C 180.530 121.123,180.645 119.722,181.389 119.289 C 182.341 118.735,182.771 118.804,183.520 119.631 M144.137 121.204 C 145.763 122.514,144.646 124.918,142.724 124.244 C 141.448 123.797,141.136 122.477,142.065 121.451 C 142.813 120.624,143.339 120.561,144.137 121.204 M156.455 121.693 C 157.487 122.725,156.723 124.444,155.233 124.444 C 154.367 124.444,153.704 123.722,153.704 122.778 C 153.704 121.218,155.336 120.574,156.455 121.693 M140.343 138.013 C 141.310 139.242,141.313 140.014,140.356 141.041 C 138.861 142.646,136.204 141.624,136.204 139.444 C 136.204 137.156,138.928 136.214,140.343 138.013 M159.245 137.575 C 160.127 138.638,158.910 140.269,157.607 139.769 C 156.259 139.252,156.698 137.037,158.148 137.037 C 158.506 137.037,158.999 137.279,159.245 137.575 M125.168 144.980 C 126.208 146.232,124.770 148.398,123.451 147.566 C 122.243 146.804,122.015 146.028,122.758 145.207 C 123.565 144.316,124.541 144.224,125.168 144.980 M167.471 148.761 C 168.413 149.614,168.316 150.614,167.222 151.330 C 165.445 152.495,163.530 150.227,165.026 148.730 C 165.776 147.981,166.620 147.991,167.471 148.761 M129.048 160.582 C 129.736 161.271,129.742 161.320,129.246 162.247 C 128.582 163.487,126.667 162.919,126.667 161.481 C 126.667 160.127,128.065 159.599,129.048 160.582 M147.937 160.328 C 148.049 160.509,147.907 160.850,147.621 161.087 C 147.044 161.566,146.453 161.016,146.852 160.370 C 147.135 159.912,147.667 159.891,147.937 160.328 M167.763 164.047 C 168.206 164.874,167.951 165.780,167.194 166.071 C 166.419 166.368,165.616 165.959,165.354 165.133 C 164.867 163.600,167.008 162.636,167.763 164.047 M110.948 166.261 C 110.810 166.484,110.374 166.667,109.978 166.667 C 109.167 166.667,108.957 165.359,109.722 165.075 C 110.337 164.847,111.266 165.746,110.948 166.261 M125.958 171.912 C 126.800 173.485,125.132 175.247,123.504 174.505 C 122.141 173.884,121.954 172.600,123.086 171.627 C 124.175 170.690,125.367 170.808,125.958 171.912 M154.492 172.315 C 155.649 175.058,154.767 180.000,153.121 180.000 C 152.312 180.000,151.481 177.749,151.481 175.556 C 151.481 171.720,153.379 169.677,154.492 172.315 M139.547 180.947 C 141.074 182.016,140.217 184.823,138.369 184.809 C 136.057 184.792,135.316 181.935,137.319 180.768 C 138.209 180.250,138.596 180.281,139.547 180.947 M115.753 185.722 C 118.410 186.832,116.675 189.048,113.148 189.048 C 109.679 189.048,107.898 186.852,110.463 185.737 C 112.030 185.056,114.145 185.050,115.753 185.722 M166.054 186.389 L 166.811 187.407 166.054 188.426 C 164.692 190.256,162.222 189.641,162.222 187.472 C 162.222 185.200,164.659 184.512,166.054 186.389 M98.025 190.584 C 98.149 190.906,97.977 191.441,97.643 191.775 C 96.784 192.634,95.506 191.508,96.281 190.574 C 96.895 189.834,97.739 189.839,98.025 190.584 M125.619 202.835 C 126.459 203.596,126.480 204.368,125.683 205.249 C 124.154 206.938,121.502 205.043,122.744 203.148 C 123.443 202.080,124.641 201.950,125.619 202.835 M94.138 206.539 C 95.127 207.435,95.010 209.114,93.907 209.837 C 92.171 210.975,89.834 209.115,90.770 207.340 C 91.588 205.787,92.949 205.463,94.138 206.539 M152.054 206.835 C 154.030 208.811,152.643 212.222,149.865 212.222 C 148.356 212.222,146.667 210.529,146.667 209.017 C 146.667 206.515,150.273 205.054,152.054 206.835 M112.593 208.889 C 114.460 210.756,112.237 213.525,110.082 212.016 C 108.531 210.929,109.463 208.148,111.379 208.148 C 111.639 208.148,112.185 208.481,112.593 208.889 M177.705 209.399 C 177.633 209.899,177.325 210.185,176.857 210.185 C 176.009 210.185,175.611 208.942,176.319 208.505 C 177.060 208.046,177.827 208.542,177.705 209.399 M128.984 219.307 C 130.216 220.965,129.048 222.963,126.846 222.963 C 124.671 222.963,123.654 220.420,125.207 218.867 C 126.252 217.822,128.035 218.030,128.984 219.307 M184.049 221.919 C 184.557 222.826,184.545 222.979,183.912 223.678 C 182.602 225.126,180.741 224.456,180.741 222.537 C 180.741 220.613,183.075 220.178,184.049 221.919 M97.206 222.082 C 98.791 222.690,99.179 225.586,97.837 226.796 C 95.090 229.271,91.259 225.374,93.872 222.761 C 94.760 221.873,96.002 221.620,97.206 222.082 M168.395 222.820 C 168.964 223.688,168.973 223.891,168.485 224.765 C 167.475 226.571,164.444 225.963,164.444 223.953 C 164.444 221.901,167.264 221.093,168.395 222.820 M148.673 225.040 C 149.405 225.320,149.439 226.797,148.727 227.388 C 147.516 228.393,145.988 226.382,147.111 225.259 C 147.616 224.755,147.846 224.722,148.673 225.040 M138.289 227.240 C 138.546 227.909,137.538 228.916,136.870 228.659 C 136.074 228.354,135.898 227.488,136.508 226.878 C 137.118 226.268,137.984 226.444,138.289 227.240 M112.764 228.874 C 114.073 230.320,112.516 232.562,110.546 232.068 C 109.235 231.739,108.759 229.769,109.710 228.611 C 110.288 227.908,112.026 228.058,112.764 228.874 M177.717 236.071 C 177.868 236.853,177.169 237.435,176.422 237.148 C 175.897 236.947,175.748 235.857,176.186 235.419 C 176.645 234.960,177.580 235.358,177.717 236.071 M193.333 236.296 C 193.741 236.704,194.074 237.370,194.074 237.778 C 194.074 238.185,193.741 238.852,193.333 239.259 C 192.926 239.667,192.259 240.000,191.852 240.000 C 191.444 240.000,190.778 239.667,190.370 239.259 C 189.963 238.852,189.630 238.185,189.630 237.778 C 189.630 237.370,189.963 236.704,190.370 236.296 C 190.778 235.889,191.444 235.556,191.852 235.556 C 192.259 235.556,192.926 235.889,193.333 236.296 M125.556 238.889 C 126.737 240.071,125.901 242.222,124.259 242.222 C 123.541 242.222,122.222 240.903,122.222 240.185 C 122.222 239.467,123.541 238.148,124.259 238.148 C 124.565 238.148,125.148 238.481,125.556 238.889 M158.547 239.231 C 159.866 240.550,159.932 241.829,158.752 243.202 C 156.907 245.346,153.556 244.092,153.556 241.257 C 153.556 238.471,156.566 237.249,158.547 239.231 M214.201 240.041 C 216.277 240.987,216.138 243.841,213.980 244.600 C 211.624 245.429,209.832 242.356,211.626 240.563 C 212.677 239.511,212.928 239.461,214.201 240.041 M99.798 242.823 C 101.581 243.507,101.758 246.475,100.094 247.784 C 97.608 249.739,94.266 246.925,95.725 244.104 C 96.459 242.686,98.097 242.170,99.798 242.823 M85.420 245.471 C 87.414 247.087,87.551 249.190,85.778 250.963 C 83.685 253.055,80.914 252.503,79.771 249.766 C 78.420 246.533,82.707 243.274,85.420 245.471 M133.839 249.286 C 135.033 250.225,135.140 251.897,134.074 252.963 C 132.548 254.489,130.000 253.347,130.000 251.138 C 130.000 250.052,131.409 248.519,132.407 248.519 C 132.658 248.519,133.302 248.864,133.839 249.286 M217.963 250.000 C 217.963 250.578,217.724 250.962,217.314 251.041 C 216.581 251.182,216.104 250.295,216.441 249.417 C 216.794 248.497,217.963 248.944,217.963 250.000 M237.037 250.556 C 237.037 250.861,236.870 251.111,236.667 251.111 C 236.463 251.111,236.296 250.861,236.296 250.556 C 236.296 250.250,236.463 250.000,236.667 250.000 C 236.870 250.000,237.037 250.250,237.037 250.556 M254.444 251.481 C 256.411 253.448,253.598 256.447,251.404 254.722 C 250.395 253.928,250.291 252.793,251.132 251.725 C 252.060 250.544,253.408 250.445,254.444 251.481 M115.741 252.593 C 115.741 253.271,115.518 253.550,114.906 253.637 C 113.996 253.766,113.479 252.972,113.848 252.011 C 114.223 251.033,115.741 251.499,115.741 252.593 M77.964 254.907 C 79.884 256.558,78.733 260.000,76.262 260.000 C 73.282 260.000,72.001 257.201,74.046 255.157 C 75.350 253.852,76.642 253.770,77.964 254.907 M189.985 254.612 C 190.515 255.250,190.195 256.512,189.430 256.806 C 188.143 257.300,187.121 256.041,187.792 254.788 C 188.244 253.944,189.357 253.854,189.985 254.612 M165.124 256.147 C 167.026 257.479,165.003 260.624,163.036 259.393 C 161.660 258.532,162.465 255.556,164.074 255.556 C 164.187 255.556,164.659 255.822,165.124 256.147 " stroke="none" fill="#fcc45c" fill-rule="evenodd"></path><path id="path1" d="M269.307 286.317 C 268.620 286.686,266.953 287.096,265.603 287.227 C 261.908 287.588,261.852 287.619,261.852 289.284 L 261.852 290.741 264.167 290.740 L 266.481 290.740 266.481 297.407 C 266.481 301.073,266.476 304.073,266.469 304.074 C 266.462 304.074,265.462 303.723,264.246 303.294 C 254.500 299.853,243.345 306.459,241.082 317.011 C 237.523 333.606,252.059 345.962,264.816 337.187 C 267.069 335.637,266.968 335.631,267.107 337.315 L 267.222 338.704 272.272 338.806 L 277.322 338.909 277.565 337.942 C 278.047 336.019,277.581 335.556,275.160 335.556 L 272.963 335.556 272.963 310.556 L 272.963 285.556 271.759 285.601 C 271.097 285.626,269.994 285.948,269.307 286.317 M133.332 289.019 C 124.946 291.282,121.626 302.293,127.319 308.962 C 129.674 311.721,130.740 312.421,138.837 316.523 C 148.992 321.667,151.318 324.232,150.539 329.428 C 148.969 339.896,131.509 338.714,128.289 327.922 C 127.648 325.774,127.576 325.477,127.464 324.516 C 127.425 324.181,126.920 324.067,125.833 324.145 L 124.259 324.259 124.388 331.481 C 124.528 339.355,124.606 339.630,126.707 339.630 C 128.279 339.630,128.889 339.256,128.889 338.294 C 128.889 337.249,128.854 337.256,130.641 337.951 C 144.832 343.470,157.730 337.343,156.960 325.448 C 156.548 319.083,154.048 316.498,142.963 310.973 C 132.738 305.877,130.751 303.995,130.743 299.398 C 130.734 294.680,134.142 291.747,139.600 291.777 C 145.727 291.810,149.779 295.548,150.921 302.222 C 151.375 304.872,153.114 305.888,154.336 304.218 C 154.836 303.533,155.058 290.693,154.590 289.475 C 154.108 288.220,150.370 288.685,150.370 290.000 C 150.370 291.318,150.374 291.317,148.515 290.369 C 145.133 288.643,137.303 287.947,133.332 289.019 M172.407 302.796 C 165.795 304.606,161.972 310.177,165.157 313.362 C 167.932 316.137,171.881 313.276,170.356 309.595 C 168.968 306.244,177.907 303.831,180.988 306.725 C 182.486 308.132,183.118 310.508,183.134 314.795 L 183.148 318.704 179.630 318.968 C 169.468 319.731,162.179 324.784,162.114 331.111 C 162.025 339.705,173.126 342.986,181.499 336.839 L 183.284 335.528 183.598 337.116 L 183.911 338.704 188.344 338.811 C 194.213 338.953,194.519 338.867,194.373 337.117 L 194.259 335.741 191.852 335.633 L 189.444 335.525 189.444 322.670 L 189.444 309.815 188.333 307.622 C 185.921 302.860,179.394 300.882,172.407 302.796 M216.296 302.606 C 215.583 302.776,213.769 303.592,212.264 304.420 C 208.897 306.273,208.957 306.274,208.818 304.352 C 208.676 302.388,207.444 302.052,205.283 303.387 C 204.301 303.994,203.128 304.289,201.124 304.431 L 198.333 304.630 198.219 306.204 L 198.106 307.778 200.585 307.778 L 203.065 307.778 202.835 310.093 C 202.708 311.366,202.586 317.197,202.563 323.051 C 202.516 334.924,202.461 335.187,199.884 335.850 C 198.906 336.102,198.684 336.357,198.588 337.336 L 198.472 338.519 205.902 338.519 L 213.333 338.519 213.333 337.037 L 213.333 335.556 211.204 335.556 L 209.074 335.556 209.185 322.875 C 209.313 308.329,209.006 309.549,213.088 307.368 C 217.158 305.193,221.370 305.765,223.422 308.771 C 225.189 311.359,225.370 312.736,225.370 323.534 C 225.370 334.673,225.238 335.341,222.933 335.802 C 221.720 336.045,220.987 337.024,221.337 337.936 C 221.530 338.439,222.570 338.519,228.929 338.519 L 236.296 338.519 236.296 337.056 L 236.296 335.593 234.167 335.481 L 232.037 335.370 231.817 323.519 C 231.547 308.943,231.246 307.631,227.415 304.352 C 225.117 302.384,220.358 301.637,216.296 302.606 M262.519 306.124 C 263.571 306.436,264.852 307.061,265.364 307.513 L 266.296 308.333 266.320 320.185 L 266.345 332.037 264.970 333.235 C 257.246 339.960,249.092 334.408,248.605 322.092 C 248.130 310.057,253.811 303.538,262.519 306.124 M183.333 326.658 L 183.333 331.464 181.457 332.947 C 175.941 337.308,169.265 335.911,169.261 330.395 C 169.257 325.588,174.386 322.249,182.315 321.897 L 183.333 321.852 183.333 326.658 " stroke="none" fill="#7c7c8c" fill-rule="evenodd"></path><path id="path2" d="" stroke="none" fill="#dcc874" fill-rule="evenodd"></path><path id="path3" d="" stroke="none" fill="#dcc874" fill-rule="evenodd"></path><path id="path4" d="" stroke="none" fill="#dcc874" fill-rule="evenodd"></path></g></svg>