<svg id="svg" version="1.1" xmlns="http://www.w3.org/2000/svg" xmlns:xlink="http://www.w3.org/1999/xlink" width="400" height="400" viewBox="0, 0, 400,400"><g id="svgg"><path id="path0" d="M183.238 102.037 C 182.066 102.444,180.808 103.039,180.443 103.358 C 180.078 103.678,179.579 103.872,179.334 103.790 C 179.089 103.709,178.889 103.803,178.889 104.000 C 178.889 104.197,178.597 104.456,178.241 104.576 C 176.781 105.066,170.370 110.941,170.370 111.788 C 170.370 111.983,170.120 112.239,169.815 112.356 C 169.509 112.473,169.259 112.825,169.259 113.137 C 169.259 113.448,169.123 113.704,168.957 113.704 C 168.560 113.704,166.899 116.665,167.291 116.672 C 167.457 116.675,167.381 116.812,167.122 116.977 C 166.663 117.268,165.183 120.734,165.038 121.858 C 164.998 122.168,164.838 122.626,164.683 122.877 C 164.528 123.128,164.502 123.497,164.625 123.696 C 164.748 123.896,164.657 124.418,164.422 124.857 C 163.804 126.012,163.893 131.740,164.589 135.556 C 164.645 135.861,164.817 136.819,164.971 137.685 C 165.124 138.551,165.402 139.259,165.588 139.259 C 165.774 139.259,165.902 139.384,165.873 139.537 C 165.773 140.061,166.739 142.222,167.073 142.222 C 167.257 142.222,167.407 142.475,167.407 142.783 C 167.407 143.554,169.616 147.407,170.057 147.407 C 170.253 147.407,170.317 147.564,170.199 147.755 C 170.081 147.946,170.280 148.274,170.640 148.484 C 171.001 148.695,171.153 148.871,170.977 148.878 C 170.802 148.884,171.052 149.217,171.533 149.617 C 172.014 150.018,172.264 150.351,172.089 150.358 C 171.913 150.365,172.163 150.698,172.644 151.099 C 173.125 151.499,173.394 151.833,173.241 151.840 C 173.088 151.846,173.255 152.175,173.611 152.570 C 173.968 152.964,174.759 153.920,175.370 154.693 C 176.436 156.041,180.241 159.912,183.773 163.241 C 184.692 164.106,185.645 164.815,185.892 164.815 C 186.138 164.815,186.237 164.981,186.111 165.185 C 185.985 165.389,186.047 165.556,186.248 165.556 C 186.449 165.556,186.905 165.847,187.262 166.204 C 187.618 166.560,188.031 166.852,188.178 166.852 C 188.325 166.852,189.046 167.398,189.778 168.065 C 190.511 168.732,191.117 169.148,191.123 168.990 C 191.130 168.833,191.464 169.097,191.864 169.578 C 192.265 170.059,192.598 170.309,192.605 170.134 C 192.612 169.958,192.924 170.183,193.300 170.632 C 193.675 171.082,194.073 171.359,194.184 171.248 C 194.295 171.138,194.668 171.478,195.013 172.005 C 195.358 172.532,195.854 172.963,196.114 172.963 C 196.374 172.963,196.684 173.215,196.803 173.524 C 196.921 173.833,197.439 174.245,197.953 174.441 C 198.468 174.636,198.889 174.995,198.889 175.238 C 198.889 175.480,198.981 175.587,199.093 175.475 C 199.316 175.251,199.821 175.690,204.352 180.046 C 206.032 181.662,207.407 183.111,207.407 183.267 C 207.407 183.422,207.949 184.139,208.611 184.859 C 209.273 185.579,209.867 186.395,209.930 186.671 C 209.994 186.948,210.327 187.388,210.671 187.649 C 211.015 187.911,211.145 188.130,210.961 188.136 C 210.777 188.143,210.943 188.510,211.331 188.953 C 211.778 189.462,211.833 189.642,211.481 189.444 C 211.058 189.206,211.074 189.301,211.548 189.844 C 211.890 190.235,212.170 190.639,212.170 190.741 C 212.170 190.843,212.362 191.426,212.597 192.037 C 212.832 192.648,213.083 193.565,213.153 194.074 C 213.224 194.583,213.312 195.000,213.348 195.000 C 213.803 195.000,213.709 205.370,213.247 206.150 C 213.139 206.332,212.947 207.315,212.822 208.333 C 212.532 210.687,212.257 212.209,211.953 213.148 C 211.712 213.889,211.572 214.408,211.378 215.278 C 211.322 215.532,211.145 215.949,210.986 216.204 C 210.827 216.458,210.832 216.669,210.997 216.672 C 211.161 216.675,211.115 216.800,210.894 216.950 C 210.368 217.306,209.580 219.620,209.841 220.043 C 209.953 220.223,209.867 220.370,209.651 220.370 C 209.436 220.370,209.293 220.495,209.334 220.648 C 209.375 220.801,209.036 221.640,208.579 222.513 C 208.123 223.385,207.849 224.260,207.971 224.457 C 208.092 224.654,208.006 224.815,207.778 224.815 C 207.550 224.815,207.454 224.962,207.565 225.141 C 207.676 225.321,207.350 226.082,206.840 226.834 C 206.331 227.585,205.865 228.514,205.807 228.898 C 205.748 229.282,205.418 229.909,205.072 230.290 C 204.727 230.672,204.444 231.188,204.444 231.438 C 204.444 231.687,204.028 232.504,203.519 233.254 C 203.009 234.003,202.593 234.828,202.593 235.086 C 202.593 235.344,202.453 235.556,202.282 235.556 C 201.936 235.556,200.943 237.429,201.050 237.881 C 201.087 238.039,200.867 238.265,200.561 238.382 C 200.255 238.500,200.081 238.720,200.175 238.872 C 200.268 239.023,200.017 239.499,199.617 239.928 C 199.216 240.358,198.889 240.883,198.889 241.096 C 198.889 241.308,198.722 241.481,198.519 241.481 C 198.315 241.481,198.148 241.655,198.148 241.867 C 198.148 242.080,197.817 242.609,197.411 243.044 C 197.006 243.479,196.760 243.920,196.864 244.025 C 196.969 244.129,197.282 243.891,197.561 243.496 C 198.082 242.756,199.797 240.780,201.108 239.405 C 201.517 238.977,201.852 238.465,201.852 238.269 C 201.852 238.072,202.227 237.560,202.685 237.130 C 203.144 236.699,203.755 236.044,204.043 235.674 C 204.332 235.303,204.915 234.598,205.340 234.107 C 205.786 233.590,205.877 233.340,205.556 233.514 C 205.250 233.679,205.540 233.271,206.200 232.607 C 206.861 231.943,207.309 231.252,207.197 231.070 C 207.085 230.889,207.170 230.741,207.386 230.741 C 207.601 230.741,207.778 230.567,207.778 230.354 C 207.778 230.142,208.194 229.518,208.704 228.969 C 209.213 228.420,209.630 227.709,209.630 227.388 C 209.630 227.068,209.931 226.482,210.300 226.086 C 210.669 225.690,211.540 224.284,212.236 222.961 C 212.932 221.638,213.588 220.472,213.695 220.370 C 213.997 220.083,214.782 218.396,214.897 217.787 C 214.954 217.486,215.208 217.016,215.463 216.742 C 215.718 216.468,215.926 215.893,215.926 215.466 C 215.926 215.038,216.153 214.425,216.431 214.103 C 217.052 213.384,218.529 209.023,218.247 208.741 C 218.134 208.628,218.214 208.324,218.424 208.065 C 218.634 207.805,218.939 206.843,219.103 205.926 C 219.450 203.981,219.426 204.077,219.796 203.235 C 219.954 202.876,219.997 202.251,219.891 201.846 C 219.785 201.442,219.848 201.111,220.031 201.111 C 220.213 201.111,220.372 200.736,220.383 200.278 C 220.395 199.819,220.467 198.194,220.543 196.667 C 220.697 193.555,220.169 188.447,219.546 187.037 C 219.181 186.210,219.018 185.632,218.751 184.204 C 218.707 183.970,218.484 183.552,218.254 183.276 C 218.025 183.000,217.723 182.316,217.582 181.757 C 217.442 181.198,217.211 180.741,217.068 180.741 C 216.926 180.741,216.515 180.074,216.156 179.259 C 215.796 178.444,215.347 177.778,215.158 177.778 C 214.969 177.778,214.815 177.622,214.815 177.431 C 214.815 176.766,207.422 168.836,207.029 169.079 C 206.908 169.154,206.506 168.811,206.136 168.318 C 205.765 167.825,205.334 167.501,205.177 167.597 C 205.021 167.694,204.811 167.560,204.711 167.300 C 204.611 167.039,203.812 166.332,202.935 165.728 C 202.059 165.124,200.971 164.261,200.518 163.811 C 200.064 163.361,199.264 162.885,198.738 162.753 C 198.213 162.621,197.876 162.363,197.989 162.180 C 198.103 161.996,197.424 161.515,196.481 161.111 C 195.381 160.639,194.863 160.222,195.034 159.946 C 195.194 159.687,195.139 159.615,194.895 159.765 C 194.672 159.903,194.318 159.720,194.108 159.360 C 193.898 158.999,193.721 158.812,193.715 158.945 C 193.709 159.078,193.187 158.703,192.555 158.113 C 191.923 157.523,191.281 157.117,191.127 157.212 C 190.974 157.307,190.462 156.973,189.989 156.470 C 189.517 155.967,189.014 155.556,188.871 155.556 C 188.729 155.556,187.883 154.889,186.991 154.074 C 186.100 153.259,185.162 152.593,184.908 152.593 C 184.653 152.593,184.444 152.426,184.444 152.222 C 184.444 152.019,184.305 151.852,184.134 151.852 C 183.864 151.852,181.425 149.790,180.093 148.434 C 177.867 146.168,175.785 143.834,175.765 143.581 C 175.752 143.412,175.449 143.060,175.093 142.800 C 174.736 142.539,174.444 142.197,174.444 142.039 C 174.444 141.881,174.028 141.365,173.519 140.893 C 173.009 140.422,172.593 139.694,172.593 139.277 C 172.593 138.860,172.453 138.519,172.282 138.519 C 171.881 138.519,170.958 136.624,171.063 136.019 C 171.107 135.764,170.990 135.556,170.803 135.556 C 170.616 135.556,170.463 135.120,170.463 134.588 C 170.463 134.055,170.317 133.513,170.139 133.384 C 169.439 132.875,168.959 126.680,169.290 122.407 C 169.380 121.231,170.625 116.834,171.139 115.874 C 171.396 115.393,171.578 114.958,171.544 114.907 C 171.270 114.502,171.564 113.711,171.909 113.924 C 172.166 114.083,172.236 114.026,172.086 113.783 C 171.948 113.560,172.339 112.804,172.955 112.103 C 173.570 111.402,174.074 110.679,174.074 110.497 C 174.074 109.996,178.055 105.956,178.303 106.204 C 178.421 106.323,178.519 106.225,178.519 105.988 C 178.519 105.750,178.769 105.556,179.074 105.556 C 179.380 105.556,179.630 105.389,179.630 105.185 C 179.630 104.981,179.880 104.815,180.185 104.815 C 180.491 104.815,180.741 104.648,180.741 104.444 C 180.741 104.241,181.074 104.074,181.481 104.074 C 181.889 104.074,182.222 103.907,182.222 103.704 C 182.222 103.500,182.450 103.333,182.727 103.333 C 183.005 103.333,184.297 102.845,185.598 102.248 C 188.504 100.915,186.885 100.770,183.238 102.037 M191.309 108.074 C 191.181 108.202,190.691 108.328,190.221 108.353 C 189.750 108.378,189.050 108.536,188.664 108.704 C 188.279 108.872,187.880 109.036,187.778 109.069 C 187.159 109.264,185.304 110.236,184.948 110.551 C 184.715 110.757,183.840 111.505,183.003 112.214 C 182.166 112.922,181.481 113.638,181.481 113.803 C 181.481 113.969,181.154 114.457,180.754 114.886 C 180.353 115.316,180.113 115.809,180.220 115.982 C 180.327 116.155,180.210 116.296,179.960 116.296 C 179.710 116.296,179.616 116.406,179.750 116.540 C 179.884 116.674,179.844 116.966,179.661 117.188 C 177.185 120.194,178.644 134.311,181.551 135.495 C 181.719 135.563,181.762 135.772,181.645 135.960 C 181.529 136.148,181.694 136.401,182.011 136.523 C 182.329 136.645,182.495 136.896,182.380 137.082 C 182.082 137.564,188.453 143.948,192.399 147.123 C 194.237 148.601,196.064 150.104,196.459 150.461 C 196.854 150.819,197.389 151.111,197.649 151.111 C 197.909 151.111,198.300 151.444,198.519 151.852 C 198.737 152.259,199.145 152.593,199.427 152.593 C 199.708 152.593,199.994 152.722,200.062 152.881 C 200.239 153.295,204.522 156.720,205.176 156.970 C 205.477 157.086,206.081 157.565,206.516 158.035 C 206.951 158.505,207.496 158.889,207.728 158.889 C 207.959 158.889,208.148 159.031,208.148 159.205 C 208.148 159.378,209.190 160.330,210.463 161.320 C 211.736 162.309,213.153 163.542,213.611 164.060 C 214.069 164.577,214.444 164.889,214.444 164.753 C 214.444 164.617,215.819 165.972,217.500 167.766 C 221.186 171.699,222.593 173.337,222.593 173.696 C 222.593 173.845,223.009 174.415,223.519 174.965 C 224.028 175.514,224.444 176.122,224.444 176.315 C 224.444 176.509,224.609 176.667,224.810 176.667 C 225.327 176.667,227.778 181.654,227.778 182.707 C 227.778 183.187,227.894 183.696,228.035 183.838 C 228.177 183.980,228.331 184.354,228.377 184.669 C 228.424 184.985,228.586 185.522,228.739 185.862 C 228.891 186.203,229.061 186.815,229.117 187.222 C 229.524 190.215,229.620 191.311,229.733 194.259 C 229.843 197.151,229.437 201.344,228.746 204.444 C 228.632 204.954,228.445 205.954,228.329 206.667 C 228.111 208.017,228.031 208.335,227.677 209.259 C 227.402 209.980,226.150 213.833,226.113 214.074 C 226.098 214.176,225.888 214.612,225.648 215.044 C 225.408 215.475,225.316 215.934,225.445 216.062 C 225.574 216.191,225.475 216.296,225.225 216.296 C 224.975 216.296,224.865 216.449,224.980 216.635 C 225.096 216.821,225.013 217.033,224.797 217.105 C 224.581 217.177,224.362 217.483,224.311 217.785 C 224.261 218.086,223.932 218.875,223.581 219.537 C 223.231 220.199,223.063 220.741,223.209 220.741 C 223.355 220.741,223.168 220.965,222.792 221.240 C 222.416 221.515,222.221 221.921,222.359 222.143 C 222.496 222.365,222.368 222.682,222.075 222.848 C 221.781 223.013,221.486 223.392,221.419 223.689 C 221.351 223.987,221.010 224.554,220.661 224.949 C 220.312 225.344,220.113 225.809,220.220 225.982 C 220.327 226.155,220.228 226.296,220.000 226.296 C 219.772 226.296,219.689 226.463,219.815 226.667 C 219.941 226.870,219.884 227.037,219.688 227.037 C 219.229 227.037,217.778 229.491,217.778 230.268 C 217.778 230.596,217.667 230.754,217.532 230.619 C 217.310 230.397,216.910 230.886,215.468 233.140 C 215.211 233.542,214.750 234.070,214.445 234.313 C 214.140 234.556,214.003 234.867,214.141 235.005 C 214.279 235.143,214.686 234.912,215.045 234.492 C 215.405 234.072,216.750 232.619,218.035 231.263 C 219.319 229.907,220.370 228.540,220.370 228.226 C 220.370 227.911,220.481 227.765,220.616 227.900 C 220.751 228.035,221.164 227.649,221.533 227.041 C 221.902 226.434,222.958 225.012,223.880 223.880 C 224.802 222.749,225.556 221.580,225.556 221.282 C 225.556 220.984,225.721 220.741,225.923 220.741 C 226.292 220.741,227.221 219.165,228.380 216.574 C 228.722 215.810,229.152 215.185,229.337 215.185 C 229.522 215.185,229.570 215.019,229.444 214.815 C 229.319 214.611,229.369 214.444,229.557 214.444 C 230.073 214.444,232.490 208.784,232.291 208.041 C 232.247 207.880,232.417 207.380,232.666 206.929 C 232.916 206.479,233.085 205.986,233.042 205.833 C 232.998 205.681,233.147 205.556,233.373 205.556 C 233.598 205.556,233.684 205.297,233.562 204.981 C 233.441 204.664,233.612 203.992,233.943 203.488 C 234.274 202.983,234.440 202.465,234.313 202.337 C 234.185 202.210,234.228 201.923,234.409 201.701 C 234.590 201.478,234.857 200.463,235.003 199.444 C 235.150 198.426,235.353 197.176,235.456 196.667 C 235.758 195.166,235.960 191.901,235.971 188.333 C 235.986 183.822,235.925 182.963,235.592 182.963 C 235.435 182.963,235.280 182.281,235.247 181.448 C 235.215 180.615,235.067 179.740,234.919 179.504 C 234.771 179.267,234.614 178.907,234.569 178.704 C 234.524 178.500,234.401 177.941,234.295 177.462 C 234.189 176.983,233.909 176.358,233.672 176.073 C 233.436 175.789,233.355 175.556,233.491 175.556 C 233.628 175.556,233.138 174.478,232.401 173.162 C 231.665 171.845,231.071 170.637,231.082 170.477 C 231.126 169.841,230.670 168.889,230.324 168.889 C 230.122 168.889,230.060 168.721,230.187 168.516 C 230.314 168.311,230.158 168.043,229.840 167.922 C 229.523 167.800,229.343 167.572,229.440 167.415 C 229.536 167.258,229.202 166.684,228.697 166.139 C 228.191 165.593,227.778 165.060,227.778 164.954 C 227.778 164.849,227.569 164.528,227.315 164.242 C 227.060 163.956,226.519 163.281,226.111 162.742 C 224.692 160.866,217.567 153.704,217.118 153.704 C 216.870 153.704,216.667 153.548,216.667 153.358 C 216.667 153.168,216.331 152.906,215.921 152.776 C 215.510 152.646,215.263 152.397,215.370 152.222 C 215.478 152.048,215.231 151.799,214.820 151.668 C 214.410 151.538,214.074 151.266,214.074 151.064 C 214.074 150.862,213.925 150.789,213.743 150.902 C 213.560 151.015,213.314 150.853,213.195 150.544 C 213.076 150.234,212.225 149.657,211.304 149.263 C 210.383 148.868,209.630 148.397,209.630 148.217 C 209.630 147.856,203.540 143.704,203.012 143.704 C 202.831 143.704,202.477 143.456,202.226 143.152 C 201.974 142.849,201.638 142.681,201.480 142.779 C 201.322 142.876,200.674 142.426,200.041 141.778 C 199.407 141.130,198.889 140.702,198.889 140.827 C 198.889 140.952,198.407 140.609,197.819 140.064 C 196.304 138.662,195.654 138.173,195.502 138.321 C 195.430 138.392,194.265 137.306,192.914 135.909 C 191.563 134.512,190.530 133.297,190.619 133.208 C 190.707 133.120,190.313 132.680,189.742 132.231 C 189.171 131.782,188.747 131.304,188.799 131.170 C 188.852 131.036,188.631 130.617,188.308 130.240 C 187.985 129.863,187.662 129.249,187.590 128.875 C 187.518 128.502,187.247 127.810,186.987 127.339 C 186.728 126.867,186.492 126.315,186.462 126.111 C 186.433 125.907,186.370 125.657,186.322 125.556 C 185.989 124.849,185.892 122.920,186.029 119.722 C 186.040 119.468,186.170 119.259,186.318 119.259 C 186.466 119.259,186.696 118.824,186.829 118.292 C 187.120 117.134,189.213 115.077,190.748 114.441 C 191.355 114.190,191.852 113.828,191.852 113.637 C 191.852 113.446,192.026 113.397,192.238 113.529 C 192.451 113.660,192.826 113.606,193.072 113.409 C 193.753 112.863,200.370 113.163,200.370 113.740 C 200.370 113.970,201.235 114.371,202.205 114.591 C 202.488 114.656,204.074 116.316,204.074 116.547 C 204.074 116.667,204.433 117.076,204.871 117.457 C 205.310 117.837,205.518 118.151,205.334 118.154 C 205.151 118.157,205.175 118.282,205.390 118.432 C 206.961 119.528,208.707 127.426,207.679 128.784 C 207.491 129.032,207.414 129.448,207.508 129.710 C 207.601 129.971,207.557 130.435,207.409 130.741 C 206.881 131.830,206.654 133.333,207.017 133.333 C 207.446 133.333,208.136 132.134,208.352 131.013 C 208.436 130.578,208.773 129.656,209.101 128.965 C 209.429 128.273,209.615 127.390,209.513 127.002 C 209.412 126.614,209.453 126.220,209.605 126.126 C 209.890 125.950,209.765 122.977,209.418 121.667 C 209.310 121.259,209.134 120.426,209.027 119.815 C 208.793 118.485,207.004 114.815,206.589 114.815 C 206.428 114.815,206.296 114.639,206.296 114.424 C 206.296 114.017,202.688 110.199,202.273 110.167 C 201.634 110.118,200.370 109.548,200.370 109.309 C 200.370 108.902,197.839 108.067,197.410 108.332 C 197.205 108.459,197.037 108.424,197.037 108.255 C 197.037 107.898,191.655 107.727,191.309 108.074 M178.324 175.940 C 178.186 176.164,177.832 176.254,177.537 176.141 C 177.242 176.028,175.967 176.404,174.704 176.976 C 173.441 177.549,172.320 178.005,172.213 177.990 C 172.107 177.975,171.525 178.421,170.921 178.981 C 170.317 179.542,169.727 180.000,169.610 180.000 C 169.187 180.000,166.894 183.356,166.772 184.152 C 166.704 184.601,166.469 185.079,166.250 185.214 C 166.031 185.349,165.852 186.065,165.852 186.804 C 165.852 187.543,165.709 188.148,165.535 188.148 C 165.210 188.148,165.341 194.687,165.697 196.239 C 165.922 197.217,168.312 201.685,168.998 202.410 C 169.244 202.669,169.757 203.313,170.139 203.841 C 170.521 204.369,170.984 204.708,171.167 204.595 C 171.350 204.482,171.454 204.527,171.398 204.695 C 171.342 204.863,171.392 205.000,171.508 205.000 C 171.624 205.000,171.994 205.250,172.328 205.556 C 173.602 206.717,174.055 207.037,174.429 207.037 C 174.641 207.037,174.815 207.231,174.815 207.469 C 174.815 207.707,174.923 207.793,175.056 207.660 C 175.189 207.527,175.480 207.635,175.704 207.899 C 176.253 208.547,178.148 209.328,178.148 208.907 C 178.148 208.374,175.692 205.913,175.425 206.179 C 175.293 206.312,175.185 206.161,175.185 205.845 C 175.185 205.529,174.763 204.994,174.247 204.656 C 173.732 204.318,173.384 203.922,173.474 203.776 C 173.564 203.630,173.403 203.189,173.115 202.795 C 172.828 202.402,172.586 202.237,172.578 202.429 C 172.566 202.726,171.435 200.537,171.323 200.000 C 171.302 199.898,171.153 199.606,170.991 199.352 C 170.829 199.097,170.809 198.889,170.947 198.889 C 171.084 198.889,170.929 198.481,170.602 197.982 C 170.276 197.484,170.108 196.817,170.229 196.501 C 170.350 196.185,170.281 195.926,170.075 195.926 C 169.859 195.926,169.771 195.338,169.868 194.537 C 169.961 193.773,170.070 192.731,170.111 192.222 C 170.152 191.713,170.270 191.213,170.374 191.111 C 170.478 191.009,170.894 190.275,171.300 189.480 C 172.101 187.909,173.520 186.296,174.103 186.296 C 174.303 186.296,174.564 186.046,174.681 185.741 C 174.798 185.435,175.281 185.185,175.754 185.185 C 176.227 185.185,176.834 184.977,177.103 184.722 C 177.744 184.116,184.043 184.289,184.684 184.931 C 184.824 185.071,185.244 185.185,185.617 185.185 C 185.991 185.185,186.296 185.339,186.296 185.526 C 186.296 185.714,186.796 185.977,187.407 186.111 C 188.019 186.245,188.519 186.536,188.519 186.758 C 188.519 186.979,188.616 187.063,188.735 186.944 C 189.151 186.528,193.848 191.178,194.533 192.685 C 194.787 193.245,195.131 193.704,195.297 193.704 C 195.463 193.704,195.505 193.856,195.390 194.042 C 195.275 194.229,195.357 194.440,195.573 194.512 C 195.789 194.584,196.015 194.890,196.075 195.192 C 196.204 195.842,196.600 196.935,197.078 197.963 C 197.268 198.370,197.491 199.068,197.574 199.513 C 197.658 199.958,197.896 200.640,198.104 201.028 C 198.311 201.416,198.488 202.052,198.497 202.441 C 198.513 203.219,198.688 204.502,199.123 207.037 C 199.447 208.922,199.437 217.658,199.109 219.630 C 198.990 220.343,198.748 221.634,198.570 222.500 C 198.393 223.366,198.329 224.074,198.428 224.074 C 198.528 224.074,198.444 224.282,198.241 224.537 C 198.039 224.792,197.664 225.917,197.409 227.037 C 197.153 228.157,196.631 229.855,196.250 230.809 C 195.132 233.603,195.990 233.685,197.372 230.916 C 197.823 230.014,198.351 229.177,198.546 229.057 C 198.741 228.936,198.805 228.683,198.688 228.493 C 198.571 228.303,198.669 228.148,198.907 228.148 C 199.144 228.148,199.248 227.912,199.137 227.623 C 199.026 227.335,199.192 227.000,199.506 226.879 C 199.827 226.756,199.984 226.418,199.865 226.108 C 199.748 225.804,199.824 225.556,200.033 225.556 C 200.243 225.556,200.311 225.389,200.185 225.185 C 200.059 224.981,200.120 224.815,200.320 224.815 C 200.741 224.815,201.680 222.277,201.532 221.537 C 201.477 221.262,201.608 221.145,201.823 221.278 C 202.060 221.425,202.127 221.295,201.993 220.945 C 201.872 220.629,201.946 220.370,202.158 220.370 C 202.655 220.370,203.137 218.836,203.406 216.389 C 203.434 216.134,203.569 215.926,203.706 215.926 C 203.843 215.926,204.169 214.718,204.430 213.241 C 204.691 211.764,204.976 210.222,205.063 209.815 C 205.401 208.241,205.574 200.000,205.269 200.000 C 205.092 200.000,204.986 199.292,205.035 198.426 C 205.122 196.858,204.570 193.097,204.154 192.423 C 204.034 192.228,203.891 191.655,203.837 191.149 C 203.783 190.644,203.387 189.754,202.956 189.171 C 202.526 188.589,202.149 187.787,202.119 187.389 C 202.089 186.992,201.924 186.667,201.751 186.667 C 201.579 186.667,201.541 186.499,201.668 186.294 C 201.795 186.089,201.638 185.821,201.320 185.698 C 201.001 185.576,200.741 185.284,200.741 185.049 C 200.741 184.815,200.407 184.414,200.000 184.160 C 199.593 183.906,199.259 183.466,199.259 183.183 C 199.259 182.900,198.325 181.859,197.184 180.871 C 195.036 179.010,194.074 178.335,194.074 178.685 C 194.074 178.797,193.741 178.556,193.333 178.148 C 192.926 177.741,192.190 177.407,191.698 177.407 C 191.205 177.407,190.746 177.238,190.677 177.032 C 190.608 176.825,189.969 176.574,189.257 176.474 C 187.266 176.193,186.881 176.108,186.481 175.862 C 185.799 175.441,178.590 175.510,178.324 175.940 M178.658 208.937 C 178.771 209.525,180.288 210.063,180.566 209.613 C 180.686 209.419,180.372 209.259,179.868 209.259 C 179.363 209.259,178.866 209.088,178.762 208.880 C 178.659 208.671,178.612 208.697,178.658 208.937 M212.825 236.187 C 212.137 237.104,212.138 237.108,212.897 236.702 C 213.808 236.214,214.195 235.673,213.802 235.434 C 213.646 235.339,213.206 235.678,212.825 236.187 M226.059 306.296 C 226.059 308.231,226.122 309.023,226.198 308.056 C 226.274 307.088,226.274 305.505,226.198 304.537 C 226.122 303.569,226.059 304.361,226.059 306.296 " stroke="none" fill="#848484" fill-rule="evenodd"></path><path id="path1" d="M112.187 267.916 C 103.545 270.245,100.335 281.370,106.392 287.997 C 108.822 290.656,110.277 291.628,116.304 294.617 C 119.050 295.979,122.027 297.456,122.919 297.899 C 133.385 303.090,130.535 315.751,118.991 315.347 C 112.097 315.106,107.278 311.084,106.456 304.883 L 106.201 302.963 104.789 302.963 C 102.924 302.963,103.011 302.514,103.281 310.741 L 103.519 317.963 105.556 317.963 C 107.430 317.963,107.584 317.899,107.482 317.162 C 107.349 316.197,107.995 315.708,108.668 316.266 C 111.714 318.795,123.547 319.248,128.291 317.018 C 136.349 313.231,138.391 302.726,132.298 296.401 C 130.228 294.252,127.917 292.847,120.292 289.098 C 110.993 284.528,108.623 281.900,109.439 277.067 C 111.315 265.965,128.481 269.636,129.879 281.438 C 130.128 283.542,131.019 284.175,132.566 283.348 C 133.328 282.940,133.346 282.735,133.248 275.446 L 133.148 267.963 131.204 267.851 L 129.259 267.739 129.259 269.025 L 129.259 270.311 127.130 269.265 C 123.390 267.428,116.354 266.793,112.187 267.916 M148.213 274.004 C 147.106 277.700,144.112 281.197,141.383 281.984 C 139.889 282.414,139.809 282.510,139.701 283.996 L 139.587 285.556 142.256 285.556 L 144.924 285.556 144.724 296.019 C 144.528 306.315,144.647 308.166,145.777 312.407 C 147.789 319.953,157.943 320.863,163.717 314.016 L 165.286 312.155 164.327 311.196 L 163.368 310.237 161.591 311.887 C 157.323 315.852,152.959 315.000,151.885 309.993 C 151.644 308.869,151.481 303.569,151.481 296.834 L 151.481 285.556 157.215 285.556 L 162.949 285.556 163.175 284.656 C 163.757 282.337,163.474 282.222,157.197 282.222 L 151.481 282.222 151.481 277.407 L 151.481 272.593 150.059 272.593 C 148.731 272.593,148.607 272.687,148.213 274.004 M215.556 281.610 C 208.735 283.359,204.645 289.625,208.397 292.577 C 211.120 294.718,214.760 291.613,213.295 288.398 C 212.320 286.256,215.418 284.289,219.682 284.344 C 224.481 284.405,225.818 286.266,226.192 293.406 C 226.431 297.977,226.802 297.580,221.975 297.915 C 219.466 298.090,217.028 298.592,215.370 299.276 C 211.848 300.729,210.707 301.327,209.014 302.606 C 203.733 306.593,203.498 313.493,208.527 316.945 C 212.455 319.643,219.475 319.097,224.036 315.740 L 226.221 314.131 226.466 315.769 L 226.712 317.407 231.886 317.407 C 237.489 317.407,237.742 317.311,237.255 315.370 C 237.039 314.507,236.867 314.444,234.715 314.444 L 232.407 314.444 232.407 301.759 L 232.407 289.074 231.332 286.745 C 229.080 281.868,222.677 279.783,215.556 281.610 M257.884 281.648 C 257.026 281.916,255.394 282.661,254.257 283.302 C 252.389 284.357,251.146 284.546,251.672 283.695 C 251.783 283.515,251.768 282.943,251.638 282.424 C 251.389 281.432,249.222 281.013,248.700 281.857 C 248.240 282.602,246.048 283.227,243.785 283.259 C 240.965 283.299,240.741 283.426,240.741 284.982 C 240.741 286.451,241.152 286.667,243.959 286.667 C 245.895 286.667,245.995 286.712,245.805 287.500 C 245.694 287.958,245.561 293.661,245.510 300.174 C 245.403 313.884,245.196 314.815,242.247 314.815 C 241.619 314.815,241.481 315.048,241.481 316.111 L 241.481 317.407 248.704 317.407 L 255.926 317.407 255.926 315.926 L 255.926 314.444 253.846 314.444 C 251.869 314.444,251.777 314.403,251.989 313.611 C 252.112 313.153,252.214 307.232,252.217 300.455 L 252.222 288.132 253.936 287.045 C 259.459 283.542,265.036 285.414,266.280 291.188 C 266.788 293.541,266.814 311.416,266.312 312.736 C 265.925 313.755,264.574 314.815,263.663 314.815 C 263.078 314.815,262.458 316.779,262.903 317.224 C 263.004 317.325,266.309 317.407,270.247 317.407 L 277.407 317.407 277.407 315.944 L 277.407 314.481 275.278 314.370 L 273.148 314.259 273.240 310.370 C 273.290 308.231,273.428 303.565,273.546 300.000 C 273.713 294.956,273.638 293.006,273.210 291.208 L 272.660 288.898 273.787 287.950 C 277.786 284.584,282.926 284.340,285.676 287.385 C 287.736 289.665,287.892 290.607,288.041 301.667 C 288.194 313.075,288.041 313.877,285.556 314.676 C 284.483 315.021,284.239 315.293,284.143 316.258 L 284.026 317.423 291.365 317.323 L 298.704 317.222 298.818 315.852 L 298.931 314.483 296.780 314.371 L 294.630 314.259 294.768 305.000 C 294.970 291.567,294.311 287.538,291.364 284.182 C 287.776 280.095,280.028 280.018,273.720 284.006 L 271.477 285.424 269.859 283.874 C 267.159 281.287,262.067 280.341,257.884 281.648 M179.530 282.362 C 161.342 289.974,165.707 318.519,185.060 318.519 C 192.284 318.519,202.282 312.726,199.797 309.980 C 198.893 308.982,198.685 309.041,196.640 310.880 C 194.365 312.925,192.176 313.957,188.933 314.513 C 180.886 315.893,176.457 311.012,175.765 300.000 L 175.591 297.222 186.962 297.329 C 201.062 297.460,200.165 297.646,199.859 294.661 C 199.273 288.939,196.826 285.114,192.222 282.724 C 189.271 281.192,182.769 281.007,179.530 282.362 M189.528 285.483 C 191.032 286.554,192.528 289.507,192.818 291.975 L 193.065 294.074 184.495 294.074 C 179.782 294.074,175.926 293.938,175.926 293.771 C 175.926 290.383,179.834 285.364,182.995 284.692 C 184.912 284.285,188.446 284.713,189.528 285.483 M226.236 305.553 L 226.242 310.366 224.695 311.626 C 220.222 315.270,214.357 315.312,212.615 311.713 C 209.941 306.190,215.674 301.080,224.875 300.784 L 226.231 300.741 226.236 305.553 " stroke="none" fill="#7c7c8c" fill-rule="evenodd"></path><path id="path2" d="M172.308 112.870 C 171.542 113.975,171.024 115.185,171.317 115.185 C 171.418 115.185,171.661 114.810,171.857 114.352 C 172.054 113.894,172.487 113.144,172.819 112.685 C 173.152 112.227,173.331 111.852,173.219 111.852 C 173.106 111.852,172.696 112.310,172.308 112.870 M171.347 137.222 C 172.204 138.685,172.222 138.706,172.222 138.251 C 172.222 138.036,171.879 137.466,171.459 136.985 L 170.697 136.111 171.347 137.222 M200.000 141.760 C 200.000 141.916,200.333 142.252,200.741 142.507 C 201.148 142.761,201.481 142.841,201.481 142.685 C 201.481 142.528,201.148 142.192,200.741 141.938 C 200.333 141.683,200.000 141.603,200.000 141.760 M210.163 148.715 C 210.559 149.015,211.049 149.259,211.253 149.259 C 211.456 149.259,211.300 149.015,210.904 148.715 C 210.509 148.416,210.019 148.172,209.815 148.172 C 209.611 148.172,209.768 148.416,210.163 148.715 M194.928 160.151 C 195.500 160.679,196.152 161.111,196.379 161.111 C 196.858 161.111,196.873 161.125,195.185 160.031 L 193.889 159.191 194.928 160.151 M231.852 172.222 C 232.268 173.037,232.691 173.704,232.793 173.704 C 232.895 173.704,232.638 173.037,232.222 172.222 C 231.807 171.407,231.383 170.741,231.281 170.741 C 231.179 170.741,231.436 171.407,231.852 172.222 M211.481 173.449 C 211.481 173.513,212.023 174.055,212.685 174.653 L 213.889 175.741 212.801 174.537 C 211.787 173.415,211.481 173.163,211.481 173.449 M226.220 179.560 C 226.975 181.152,227.643 182.332,227.706 182.184 C 227.829 181.890,225.279 176.667,225.012 176.667 C 224.921 176.667,225.465 177.969,226.220 179.560 M178.133 208.783 C 178.377 209.286,178.742 209.521,179.080 209.391 C 179.744 209.136,179.824 208.762,179.167 208.983 C 178.912 209.069,178.486 208.874,178.220 208.551 C 177.809 208.051,177.796 208.085,178.133 208.783 M222.911 225.093 C 221.846 226.379,221.394 227.037,221.577 227.037 C 221.680 227.037,222.209 226.454,222.753 225.741 C 223.762 224.418,223.884 223.918,222.911 225.093 M184.912 281.377 C 185.475 281.462,186.309 281.460,186.764 281.372 C 187.220 281.284,186.759 281.214,185.741 281.217 C 184.722 281.220,184.350 281.292,184.912 281.377 M118.801 318.780 C 119.261 318.869,119.928 318.866,120.282 318.773 C 120.636 318.680,120.259 318.608,119.444 318.612 C 118.630 318.616,118.340 318.692,118.801 318.780 " stroke="none" fill="#7c7c7c" fill-rule="evenodd"></path><path id="path3" d="" stroke="none" fill="#848880" fill-rule="evenodd"></path><path id="path4" d="" stroke="none" fill="#848880" fill-rule="evenodd"></path></g></svg>