<svg id="svg" version="1.1" xmlns="http://www.w3.org/2000/svg" xmlns:xlink="http://www.w3.org/1999/xlink" width="400" height="400" viewBox="0, 0, 400,400"><g id="svgg"><path id="path0" d="M207.938 101.297 C 207.748 101.563,205.582 104.421,203.125 107.649 C 191.049 123.516,179.089 141.993,172.632 154.760 L 169.690 160.576 172.447 165.195 C 180.490 178.671,183.185 186.245,182.854 194.444 C 182.459 204.216,178.707 212.433,171.828 218.592 L 169.296 220.859 171.217 223.670 C 196.865 261.215,248.981 244.748,255.212 197.130 C 257.384 180.536,249.355 160.020,228.507 128.889 C 217.702 112.756,208.536 100.460,207.938 101.297 M246.365 105.781 C 242.485 110.700,239.019 115.629,235.688 120.964 L 232.303 126.387 234.608 129.953 C 242.550 142.236,252.991 161.462,254.800 167.130 C 255.336 168.812,255.080 168.809,258.193 167.173 C 267.167 162.457,272.775 149.465,270.167 139.430 C 268.080 131.395,257.898 114.228,249.568 104.699 L 248.333 103.286 246.365 105.781 M149.573 152.262 C 129.860 178.609,125.513 192.563,132.568 206.852 C 141.544 225.032,164.257 225.962,174.417 208.566 C 178.619 201.371,179.695 191.888,177.142 184.562 C 173.950 175.404,163.898 158.851,154.715 147.633 L 153.838 146.562 149.573 152.262 M265.212 151.551 C 263.983 156.410,261.022 160.693,256.687 163.877 C 254.598 165.413,254.609 165.386,257.984 160.912 C 260.681 157.337,263.070 153.388,264.660 149.881 C 266.003 146.919,266.218 147.571,265.212 151.551 M173.509 196.759 C 172.577 203.622,168.889 209.521,162.916 213.704 L 160.556 215.357 162.828 212.586 C 166.111 208.584,169.936 202.586,171.854 198.432 C 173.787 194.246,173.861 194.171,173.509 196.759 M246.905 200.648 C 245.998 212.745,237.058 226.046,225.926 231.861 L 225.000 232.345 225.926 231.200 C 226.435 230.570,227.992 228.667,229.386 226.972 C 234.969 220.179,242.398 207.932,245.577 200.278 C 247.084 196.650,247.202 196.683,246.905 200.648 " stroke="none" fill="#34dcfc" fill-rule="evenodd"></path><path id="path1" d="M102.011 269.418 C 101.558 271.222,102.094 271.852,104.085 271.852 C 105.865 271.852,105.904 271.876,106.274 273.241 C 106.705 274.830,108.180 279.275,115.824 302.037 C 121.272 318.260,121.301 318.334,122.367 318.456 C 123.806 318.620,123.326 319.797,129.856 300.102 C 134.938 284.775,136.296 281.290,136.296 283.577 C 136.296 283.891,136.537 284.672,136.831 285.314 C 137.126 285.956,137.937 288.148,138.634 290.185 C 139.940 293.998,144.542 307.124,145.843 310.741 C 146.246 311.861,147.029 314.069,147.584 315.648 C 148.570 318.451,148.623 318.519,149.826 318.519 C 151.335 318.519,150.608 320.357,158.676 296.167 C 166.557 272.538,166.654 272.335,170.397 271.599 C 171.955 271.293,172.043 271.208,172.152 269.898 L 172.267 268.519 165.022 268.519 L 157.778 268.519 157.778 270.169 L 157.778 271.819 160.364 271.928 L 162.950 272.037 162.033 274.013 C 161.529 275.099,160.600 277.683,159.969 279.753 C 157.581 287.588,156.681 290.367,154.515 296.596 C 153.289 300.122,152.085 303.843,151.839 304.866 C 151.252 307.317,151.201 307.225,148.733 299.259 C 147.566 295.491,146.437 291.991,146.224 291.481 C 145.489 289.722,138.889 269.506,138.889 269.013 C 138.889 268.686,138.405 268.519,137.460 268.519 L 136.030 268.519 134.102 274.537 C 133.042 277.847,131.944 281.139,131.664 281.852 C 131.383 282.565,130.299 285.898,129.255 289.259 C 128.211 292.620,126.961 296.537,126.476 297.963 C 125.992 299.389,125.235 301.804,124.793 303.329 L 123.990 306.103 122.787 302.588 C 122.125 300.656,121.324 298.324,121.007 297.407 C 113.076 274.474,112.787 271.840,118.148 271.402 C 119.356 271.303,119.452 271.202,119.559 269.907 L 119.674 268.519 110.955 268.519 L 102.236 268.519 102.011 269.418 M214.220 272.867 C 213.995 273.022,213.616 273.748,213.377 274.480 C 212.189 278.128,209.157 281.620,206.614 282.271 L 204.815 282.733 204.815 284.329 L 204.815 285.926 207.463 285.926 L 210.112 285.926 209.908 296.441 C 209.556 314.634,211.384 318.889,219.552 318.889 C 223.339 318.889,225.189 318.103,227.985 315.308 C 230.641 312.651,230.722 312.449,229.537 311.461 C 228.409 310.520,228.402 310.522,226.534 312.337 C 224.058 314.743,221.463 315.366,219.330 314.065 C 216.985 312.635,216.872 311.949,216.736 298.250 L 216.614 285.945 222.473 285.843 L 228.333 285.741 228.333 284.259 L 228.333 282.778 222.593 282.593 L 216.852 282.407 216.667 277.593 C 216.473 272.556,216.001 271.644,214.220 272.867 M180.401 282.070 C 174.390 283.686,170.801 288.556,173.056 292.038 C 175.284 295.478,180.541 292.771,178.785 289.088 C 177.629 286.664,180.758 284.602,185.424 284.711 C 189.729 284.812,191.102 286.847,191.399 293.563 L 191.582 297.708 189.032 297.963 C 179.050 298.960,172.554 302.514,170.738 307.970 C 167.555 317.535,180.834 322.823,190.158 315.704 L 191.852 314.411 191.852 315.508 C 191.852 317.788,191.827 317.778,197.447 317.778 L 202.593 317.778 202.593 316.296 L 202.593 314.815 200.278 314.815 L 197.963 314.815 198.082 303.241 C 198.202 291.564,198.166 291.105,196.791 287.151 C 195.115 282.329,187.833 280.072,180.401 282.070 M247.476 281.873 C 233.180 284.414,228.112 304.621,239.197 314.883 C 246.136 321.308,259.284 319.888,264.886 312.110 C 266.277 310.179,264.218 308.825,262.565 310.584 C 259.943 313.376,254.424 315.459,250.783 315.031 C 244.815 314.330,241.773 310.001,241.182 301.367 L 240.923 297.593 252.504 297.695 C 265.129 297.807,265.800 297.718,265.417 295.984 C 265.298 295.443,264.958 293.889,264.663 292.532 C 262.952 284.667,256.003 280.358,247.476 281.873 M288.736 282.065 C 287.031 282.689,283.655 285.213,282.429 286.779 L 281.568 287.880 281.301 284.866 C 280.995 281.412,280.418 281.067,277.494 282.591 C 276.644 283.034,274.933 283.427,273.223 283.571 L 270.370 283.812 270.370 285.200 C 270.370 286.819,270.731 287.037,273.406 287.037 L 275.270 287.037 275.129 299.795 C 274.973 314.034,274.945 314.181,272.285 314.984 C 271.051 315.356,270.567 316.154,270.957 317.170 C 271.162 317.705,272.058 317.778,278.394 317.778 L 285.598 317.778 285.484 316.234 L 285.370 314.690 283.519 314.660 L 281.667 314.630 281.667 303.704 L 281.667 292.778 283.225 290.741 C 286.648 286.266,290.306 284.496,291.044 286.958 C 292.284 291.098,297.778 290.034,297.778 285.654 C 297.778 282.043,293.466 280.332,288.736 282.065 M253.865 285.550 C 256.173 286.677,258.148 290.293,258.148 293.392 L 258.148 294.444 249.605 294.444 C 241.643 294.444,241.074 294.400,241.249 293.796 C 241.353 293.440,241.619 292.447,241.840 291.590 C 243.162 286.472,249.368 283.354,253.865 285.550 M191.481 306.021 L 191.481 310.932 189.163 312.504 C 182.733 316.865,176.639 314.602,177.590 308.207 C 178.156 304.403,183.522 301.464,190.463 301.156 L 191.481 301.111 191.481 306.021 " stroke="none" fill="#7c7c8c" fill-rule="evenodd"></path><path id="path2" d="" stroke="none" fill="#58e0e0" fill-rule="evenodd"></path><path id="path3" d="" stroke="none" fill="#58e0e0" fill-rule="evenodd"></path><path id="path4" d="" stroke="none" fill="#58e0e0" fill-rule="evenodd"></path></g></svg>