<svg id="svg" version="1.1" xmlns="http://www.w3.org/2000/svg" xmlns:xlink="http://www.w3.org/1999/xlink" width="400" height="400" viewBox="0, 0, 400,400"><g id="svgg"><path id="path0" d="M191.896 74.047 C 191.663 74.191,190.896 74.263,190.192 74.208 C 189.488 74.153,188.828 74.244,188.724 74.411 C 188.621 74.578,188.116 74.669,187.602 74.612 C 187.087 74.556,186.667 74.626,186.667 74.768 C 186.667 75.027,185.763 75.175,184.130 75.183 C 183.651 75.185,183.067 75.307,182.833 75.454 C 182.339 75.763,181.665 75.944,180.370 76.114 C 179.861 76.181,179.403 76.270,179.352 76.313 C 179.301 76.355,179.106 76.410,178.920 76.435 C 178.733 76.461,178.455 76.606,178.302 76.759 C 178.150 76.912,177.636 77.037,177.160 77.037 C 176.685 77.037,176.296 77.214,176.296 77.429 C 176.296 77.645,176.122 77.714,175.910 77.583 C 175.697 77.451,175.255 77.566,174.927 77.838 C 174.599 78.111,174.273 78.292,174.202 78.241 C 174.132 78.190,174.032 78.162,173.981 78.179 C 173.931 78.196,173.499 78.253,173.022 78.305 C 172.544 78.357,172.005 78.635,171.823 78.922 C 171.642 79.209,171.490 79.316,171.487 79.158 C 171.484 79.001,171.065 79.145,170.556 79.479 C 170.046 79.812,169.630 79.987,169.630 79.867 C 169.630 79.746,167.921 80.511,165.833 81.566 C 163.745 82.620,161.907 83.448,161.749 83.405 C 161.591 83.362,161.364 83.578,161.246 83.885 C 161.128 84.193,160.776 84.444,160.464 84.444 C 160.152 84.444,159.657 84.736,159.365 85.093 C 159.018 85.517,158.917 85.549,159.074 85.185 C 159.234 84.814,159.139 84.843,158.787 85.272 C 158.497 85.625,158.155 85.810,158.028 85.682 C 157.900 85.554,157.690 85.723,157.562 86.058 C 157.433 86.393,157.138 86.667,156.905 86.668 C 156.672 86.668,155.908 87.158,155.208 87.757 C 154.507 88.356,153.810 88.769,153.659 88.676 C 153.508 88.583,153.123 88.879,152.803 89.335 C 152.484 89.792,152.222 90.038,152.222 89.883 C 152.222 89.525,151.440 90.149,149.438 92.105 C 148.566 92.958,147.788 93.590,147.708 93.511 C 147.554 93.356,141.294 99.747,139.444 101.947 C 137.535 104.219,137.371 104.444,137.635 104.444 C 137.776 104.444,137.532 104.756,137.094 105.136 C 136.655 105.516,136.296 106.016,136.296 106.247 C 136.296 106.478,136.130 106.667,135.926 106.667 C 135.722 106.667,135.556 106.917,135.556 107.222 C 135.556 107.528,135.408 107.778,135.228 107.778 C 135.048 107.778,134.614 108.215,134.263 108.749 C 133.828 109.414,133.785 109.639,134.128 109.463 C 134.404 109.321,134.338 109.443,133.981 109.736 C 133.625 110.028,133.333 110.457,133.333 110.689 C 133.333 110.921,133.193 111.111,133.022 111.111 C 132.748 111.111,131.708 112.981,131.831 113.254 C 131.857 113.312,131.622 113.616,131.310 113.929 C 130.997 114.241,130.741 114.722,130.741 114.996 C 130.741 115.270,130.616 115.549,130.463 115.617 C 130.019 115.815,128.423 118.917,128.649 119.143 C 128.761 119.255,128.610 119.591,128.312 119.889 C 128.015 120.186,127.866 120.583,127.981 120.771 C 128.097 120.958,128.021 121.111,127.811 121.111 C 127.602 121.111,127.527 121.361,127.644 121.667 C 127.761 121.972,127.673 122.222,127.447 122.222 C 127.222 122.222,127.037 122.649,127.037 123.170 C 127.037 123.708,126.877 124.019,126.667 123.889 C 126.344 123.690,126.120 124.441,126.252 125.278 C 126.277 125.431,126.122 125.556,125.910 125.556 C 125.697 125.556,125.565 125.764,125.617 126.019 C 125.669 126.273,125.503 126.856,125.250 127.315 C 124.996 127.773,124.869 128.148,124.968 128.148 C 125.067 128.148,124.904 128.731,124.606 129.444 C 124.308 130.157,124.170 130.741,124.300 130.741 C 124.429 130.741,124.367 130.949,124.162 131.204 C 123.957 131.458,123.684 132.167,123.555 132.778 C 123.426 133.389,123.230 134.306,123.118 134.815 C 123.006 135.324,122.853 136.241,122.778 136.852 C 122.702 137.463,122.618 137.963,122.591 137.963 C 122.482 137.963,122.166 140.286,122.062 141.852 C 122.001 142.769,121.909 143.519,121.857 143.519 C 121.581 143.519,121.305 152.142,121.465 155.741 C 121.510 156.759,121.471 158.233,121.378 159.016 C 121.128 161.115,122.157 163.604,123.834 164.963 L 125.253 166.111 141.238 166.216 C 159.327 166.334,159.067 166.370,160.539 163.519 C 161.340 161.965,161.793 157.644,161.193 157.273 C 160.729 156.986,160.916 148.495,161.457 145.309 C 161.705 143.850,161.942 142.433,161.983 142.161 C 162.024 141.889,162.188 141.458,162.347 141.204 C 162.506 140.949,162.535 140.578,162.412 140.378 C 162.289 140.179,162.398 139.637,162.654 139.174 C 162.911 138.712,163.085 138.208,163.042 138.056 C 162.998 137.903,163.157 137.778,163.395 137.778 C 163.633 137.778,163.724 137.675,163.598 137.548 C 163.042 136.993,168.207 128.403,170.272 126.450 C 170.727 126.019,171.026 125.594,170.936 125.504 C 170.846 125.414,171.510 124.764,172.410 124.059 C 173.310 123.355,174.052 122.569,174.060 122.315 C 174.068 122.060,174.329 121.852,174.641 121.852 C 174.953 121.852,175.304 121.602,175.422 121.296 C 175.539 120.991,175.867 120.741,176.151 120.741 C 176.434 120.741,176.667 120.574,176.667 120.370 C 176.667 120.167,176.917 120.000,177.222 120.000 C 177.528 120.000,177.778 119.833,177.778 119.630 C 177.778 119.426,178.019 119.259,178.315 119.259 C 178.610 119.259,179.015 118.968,179.215 118.611 C 179.414 118.255,179.673 118.005,179.789 118.056 C 180.305 118.282,180.764 118.115,180.556 117.778 C 180.430 117.574,180.530 117.407,180.780 117.407 C 181.474 117.407,184.074 116.191,184.074 115.866 C 184.074 115.708,184.324 115.675,184.630 115.792 C 184.935 115.909,185.185 115.835,185.185 115.628 C 185.185 115.420,185.852 115.138,186.667 115.000 C 187.481 114.862,188.148 114.598,188.148 114.412 C 188.148 114.226,188.606 114.072,189.167 114.070 C 189.727 114.068,190.935 113.841,191.852 113.567 C 192.769 113.292,194.602 113.023,195.926 112.970 C 201.369 112.750,203.948 112.762,205.000 113.013 C 205.611 113.159,206.778 113.365,207.593 113.471 C 208.407 113.577,209.324 113.732,209.630 113.817 C 209.935 113.901,210.894 114.098,211.759 114.255 C 212.625 114.411,213.333 114.678,213.333 114.848 C 213.333 115.018,214.027 115.343,214.874 115.571 C 215.721 115.800,216.776 116.223,217.218 116.513 C 217.660 116.803,218.134 116.928,218.270 116.791 C 218.407 116.655,218.519 116.747,218.519 116.997 C 218.519 117.247,218.675 117.354,218.866 117.236 C 219.057 117.118,219.361 117.285,219.542 117.608 C 219.723 117.931,220.163 118.238,220.520 118.290 C 220.878 118.343,221.282 118.548,221.419 118.748 C 221.555 118.947,222.250 119.510,222.963 120.000 C 225.311 121.612,230.280 125.926,229.790 125.926 C 229.612 125.926,230.600 127.189,231.667 128.326 C 232.074 128.760,232.737 129.731,233.140 130.484 C 233.543 131.236,234.011 131.852,234.180 131.852 C 234.350 131.852,234.385 132.019,234.259 132.222 C 234.133 132.426,234.203 132.593,234.415 132.593 C 234.860 132.593,236.444 135.531,236.155 135.821 C 236.048 135.927,236.205 136.258,236.503 136.555 C 236.800 136.853,236.949 137.250,236.833 137.437 C 236.718 137.625,236.794 137.778,237.004 137.778 C 237.213 137.778,237.295 138.011,237.185 138.296 C 237.076 138.581,237.167 138.926,237.388 139.062 C 237.609 139.199,237.694 139.466,237.577 139.655 C 237.460 139.845,237.504 140.000,237.677 140.000 C 237.849 140.000,238.025 140.333,238.069 140.741 C 238.112 141.148,238.184 141.815,238.228 142.222 C 238.271 142.630,238.416 142.963,238.549 142.963 C 238.683 142.963,238.731 143.481,238.658 144.114 C 238.584 144.747,238.623 145.425,238.744 145.620 C 239.272 146.476,239.454 151.828,239.056 154.815 C 238.653 157.840,238.639 157.917,238.405 158.519 C 238.219 158.995,236.607 164.286,236.486 164.815 C 236.333 165.488,234.596 168.858,234.030 169.581 C 233.652 170.063,233.435 170.606,233.547 170.787 C 233.659 170.968,233.490 171.216,233.172 171.339 C 232.853 171.461,232.593 171.793,232.593 172.077 C 232.593 172.360,232.426 172.593,232.222 172.593 C 232.019 172.593,231.852 172.837,231.852 173.135 C 231.852 173.434,231.519 173.856,231.111 174.074 C 230.704 174.292,230.370 174.701,230.370 174.982 C 230.370 175.264,230.214 175.549,230.024 175.617 C 229.833 175.685,228.600 176.782,227.284 178.056 C 225.968 179.329,224.698 180.370,224.461 180.370 C 224.224 180.370,224.133 180.537,224.259 180.741 C 224.385 180.944,224.228 181.111,223.911 181.111 C 223.593 181.111,223.333 181.288,223.333 181.503 C 223.333 181.719,223.184 181.803,223.002 181.691 C 222.819 181.578,222.575 181.735,222.458 182.039 C 222.341 182.344,222.004 182.593,221.709 182.593 C 221.414 182.593,221.117 182.718,221.049 182.870 C 220.886 183.238,218.961 184.382,217.685 184.869 C 217.125 185.083,216.667 185.418,216.667 185.614 C 216.667 185.809,216.500 185.867,216.296 185.741 C 216.093 185.615,215.926 185.688,215.926 185.904 C 215.926 186.120,215.801 186.277,215.648 186.252 C 214.872 186.130,214.429 186.342,214.665 186.724 C 214.837 187.002,214.766 187.050,214.460 186.862 C 214.202 186.702,213.885 186.732,213.755 186.929 C 213.625 187.125,212.519 187.829,211.296 188.493 C 210.074 189.157,208.941 189.935,208.778 190.221 C 208.615 190.507,208.266 190.741,208.002 190.741 C 207.738 190.741,207.221 191.074,206.852 191.481 C 206.483 191.889,206.005 192.222,205.789 192.222 C 205.573 192.222,205.057 192.548,204.643 192.945 C 203.242 194.290,202.355 194.998,201.268 195.639 C 200.672 195.990,200.227 196.448,200.278 196.657 C 200.329 196.866,200.236 196.995,200.071 196.944 C 199.744 196.843,197.508 198.804,195.970 200.540 C 195.436 201.142,194.291 202.350,193.424 203.225 C 192.557 204.099,191.974 204.820,192.127 204.827 C 192.281 204.834,192.014 205.167,191.533 205.568 C 191.052 205.969,190.802 206.302,190.977 206.309 C 191.153 206.315,190.903 206.649,190.422 207.049 C 189.941 207.450,189.691 207.783,189.866 207.790 C 190.042 207.797,189.792 208.130,189.311 208.531 C 188.830 208.931,188.537 209.259,188.660 209.259 C 188.783 209.259,188.531 209.666,188.098 210.163 C 187.280 211.104,186.583 212.219,185.965 213.575 C 185.765 214.014,185.422 214.484,185.202 214.619 C 184.982 214.755,184.899 215.021,185.016 215.211 C 185.133 215.400,185.052 215.556,184.837 215.556 C 184.621 215.556,184.482 215.681,184.527 215.833 C 184.656 216.265,183.560 218.519,183.221 218.519 C 183.055 218.519,183.022 218.685,183.148 218.889 C 183.274 219.093,183.201 219.259,182.985 219.259 C 182.769 219.259,182.593 219.559,182.593 219.926 C 182.593 220.293,182.449 220.751,182.274 220.944 C 181.910 221.348,180.168 226.305,179.810 227.959 C 179.679 228.568,179.376 229.187,179.137 229.335 C 178.665 229.627,178.308 273.008,178.770 274.074 C 178.902 274.380,179.032 274.796,179.059 275.000 C 179.086 275.204,179.309 275.329,179.554 275.278 C 179.799 275.227,180.000 275.354,180.000 275.561 C 180.000 276.213,217.621 276.030,218.275 275.376 C 218.564 275.087,218.877 274.927,218.971 275.020 C 219.064 275.113,219.459 274.838,219.848 274.408 C 220.507 273.679,220.562 272.852,220.652 262.276 C 220.752 250.419,220.840 248.702,221.586 243.882 C 221.650 243.471,221.830 242.928,221.986 242.675 C 222.142 242.422,222.165 241.884,222.036 241.478 C 221.897 241.040,221.971 240.741,222.219 240.741 C 222.449 240.741,222.540 240.586,222.423 240.396 C 222.306 240.206,222.382 239.945,222.593 239.815 C 222.803 239.685,222.886 239.435,222.778 239.259 C 222.669 239.084,222.743 238.840,222.941 238.717 C 223.139 238.595,223.207 238.250,223.092 237.951 C 222.978 237.652,223.061 237.407,223.277 237.407 C 223.493 237.407,223.780 236.824,223.913 236.111 C 224.047 235.398,224.268 234.815,224.404 234.815 C 224.733 234.815,225.670 232.536,225.586 231.939 C 225.550 231.682,225.779 231.373,226.094 231.252 C 226.409 231.131,226.667 230.800,226.667 230.516 C 226.667 230.232,226.833 230.000,227.037 230.000 C 227.241 230.000,227.407 229.750,227.407 229.444 C 227.407 229.139,227.579 228.889,227.789 228.889 C 227.999 228.889,228.281 228.597,228.415 228.241 C 228.548 227.884,228.918 227.372,229.236 227.102 C 229.708 226.702,229.712 226.662,229.259 226.884 C 228.954 227.033,229.454 226.420,230.370 225.522 C 231.287 224.624,232.991 222.785,234.157 221.436 C 235.323 220.086,236.864 218.704,237.583 218.363 C 238.301 218.022,238.889 217.574,238.889 217.368 C 238.889 217.162,239.042 217.088,239.229 217.204 C 239.417 217.320,239.833 217.151,240.155 216.829 C 240.477 216.507,240.746 216.380,240.753 216.548 C 240.759 216.715,240.967 216.600,241.215 216.292 C 241.464 215.984,242.125 215.529,242.685 215.281 C 243.245 215.033,243.704 214.651,243.704 214.431 C 243.704 214.210,243.845 214.118,244.018 214.225 C 244.191 214.331,244.684 214.091,245.114 213.691 C 245.543 213.291,246.078 212.963,246.303 212.963 C 246.527 212.963,246.615 212.808,246.498 212.619 C 246.381 212.430,246.663 212.156,247.124 212.011 C 247.586 211.865,248.181 211.436,248.447 211.058 C 248.713 210.680,249.071 210.370,249.242 210.370 C 250.016 210.370,262.222 198.548,262.222 197.798 C 262.222 197.606,262.805 196.814,263.517 196.039 C 264.229 195.264,264.812 194.472,264.813 194.280 C 264.814 194.087,265.273 193.436,265.833 192.833 C 266.394 192.231,266.602 191.879,266.296 192.052 C 265.991 192.226,266.282 191.746,266.944 190.986 C 268.214 189.528,268.452 189.044,267.685 189.477 C 267.431 189.621,267.597 189.374,268.056 188.929 C 268.514 188.484,268.889 187.783,268.889 187.371 C 268.889 186.960,269.056 186.726,269.259 186.852 C 269.463 186.978,269.630 186.738,269.630 186.318 C 269.630 185.899,269.755 185.556,269.908 185.556 C 270.243 185.556,272.346 181.188,272.346 180.491 C 272.346 180.221,272.512 180.000,272.716 180.000 C 272.920 180.000,272.977 179.890,272.843 179.756 C 272.709 179.622,272.785 179.289,273.012 179.016 C 273.238 178.742,273.279 178.516,273.101 178.513 C 272.923 178.510,272.990 178.372,273.249 178.208 C 273.681 177.934,274.086 176.803,274.166 175.648 C 274.183 175.394,274.336 175.185,274.506 175.185 C 274.676 175.185,274.795 175.060,274.771 174.907 C 274.747 174.755,274.768 174.505,274.817 174.352 C 274.867 174.199,274.942 173.949,274.985 173.796 C 275.027 173.644,275.258 173.046,275.497 172.469 C 275.736 171.892,275.844 171.278,275.737 171.106 C 275.631 170.933,275.702 170.694,275.896 170.574 C 276.090 170.454,276.250 170.067,276.250 169.715 C 276.251 169.362,276.508 168.177,276.821 167.081 C 277.135 165.985,277.301 164.943,277.192 164.766 C 277.083 164.589,277.127 164.236,277.290 163.981 C 277.616 163.475,277.781 162.459,277.909 160.183 C 277.955 159.368,278.088 158.534,278.204 158.332 C 278.710 157.454,278.661 143.006,278.148 141.852 C 278.103 141.750,278.026 141.250,277.979 140.741 C 277.931 140.231,277.847 139.731,277.793 139.630 C 277.739 139.528,277.632 138.944,277.555 138.333 C 277.182 135.350,276.638 132.490,276.335 131.925 C 276.150 131.579,275.993 131.130,275.986 130.926 C 275.944 129.703,275.464 128.148,275.129 128.148 C 274.913 128.148,274.831 127.898,274.949 127.593 C 275.066 127.287,274.991 127.037,274.781 127.037 C 274.572 127.037,274.504 126.870,274.630 126.667 C 274.756 126.463,274.729 126.088,274.570 125.833 C 274.411 125.579,274.236 125.087,274.182 124.740 C 274.128 124.393,273.573 123.165,272.949 122.012 C 272.325 120.858,271.907 119.822,272.019 119.709 C 272.132 119.597,271.932 119.182,271.575 118.787 C 271.218 118.393,270.958 117.963,270.998 117.831 C 271.101 117.489,267.716 111.321,267.343 111.172 C 267.172 111.104,267.127 110.894,267.243 110.706 C 267.359 110.519,267.194 110.265,266.875 110.143 C 266.557 110.021,266.296 109.605,266.296 109.220 C 266.296 108.834,266.130 108.519,265.926 108.519 C 265.722 108.519,265.556 108.263,265.556 107.951 C 265.556 107.639,265.306 107.288,265.000 107.171 C 264.694 107.054,264.444 106.766,264.444 106.531 C 264.444 106.296,264.111 105.896,263.704 105.642 C 263.296 105.387,262.963 104.967,262.963 104.708 C 262.963 104.449,262.639 104.004,262.242 103.718 C 261.846 103.432,261.605 103.062,261.708 102.895 C 261.811 102.729,261.714 102.593,261.492 102.593 C 261.270 102.593,260.980 102.301,260.847 101.944 C 260.612 101.311,251.723 92.222,251.339 92.222 C 251.232 92.222,250.753 91.847,250.273 91.389 C 249.794 90.931,249.016 90.306,248.544 90.000 C 248.073 89.694,247.469 89.236,247.203 88.981 C 246.937 88.727,246.559 88.519,246.362 88.519 C 246.166 88.519,245.900 88.245,245.772 87.910 C 245.643 87.575,245.441 87.399,245.322 87.518 C 245.203 87.637,244.667 87.327,244.131 86.830 C 243.594 86.333,243.044 85.926,242.907 85.926 C 242.771 85.926,241.973 85.477,241.134 84.928 C 240.296 84.379,239.339 83.890,239.009 83.841 C 238.678 83.793,238.295 83.571,238.158 83.349 C 238.021 83.127,237.516 82.870,237.037 82.778 C 236.558 82.685,236.070 82.463,235.953 82.283 C 235.597 81.734,233.334 80.697,232.975 80.919 C 232.790 81.033,232.502 80.884,232.336 80.587 C 232.170 80.290,231.562 79.962,230.985 79.857 C 230.408 79.753,229.727 79.493,229.471 79.281 C 229.215 79.069,228.896 79.005,228.762 79.139 C 228.628 79.273,228.519 79.224,228.519 79.029 C 228.519 78.835,228.159 78.649,227.719 78.616 C 227.279 78.583,226.797 78.359,226.649 78.119 C 226.500 77.879,226.194 77.797,225.967 77.937 C 225.741 78.077,225.556 77.998,225.556 77.760 C 225.556 77.522,225.306 77.424,225.000 77.541 C 224.694 77.659,224.444 77.575,224.444 77.356 C 224.444 77.137,224.200 77.052,223.901 77.166 C 223.602 77.281,223.254 77.208,223.127 77.003 C 223.001 76.799,222.620 76.677,222.282 76.732 C 221.944 76.788,221.469 76.710,221.228 76.558 C 220.531 76.121,216.521 75.304,213.981 75.083 C 213.625 75.052,213.333 74.910,213.333 74.768 C 213.333 74.626,212.913 74.556,212.398 74.612 C 211.884 74.669,211.386 74.590,211.292 74.437 C 211.078 74.091,210.220 74.049,200.327 73.903 C 195.923 73.838,192.129 73.903,191.896 74.047 M178.594 303.611 C 178.712 324.587,178.685 324.295,180.606 325.750 C 181.485 326.416,216.296 326.566,216.296 325.904 C 216.296 325.688,216.463 325.615,216.667 325.741 C 216.870 325.867,217.037 325.793,217.037 325.577 C 217.037 325.362,217.268 325.185,217.550 325.185 C 218.035 325.185,219.414 323.482,219.435 322.857 C 219.440 322.697,219.694 322.411,220.000 322.222 C 220.480 321.926,220.571 319.299,220.666 302.977 L 220.776 284.074 199.630 284.074 L 178.484 284.074 178.594 303.611 " stroke="none" fill="#848484" fill-rule="evenodd"></path><path id="path1" d="M268.704 113.333 C 269.020 113.944,269.362 114.444,269.463 114.444 C 269.565 114.444,269.390 113.944,269.074 113.333 C 268.758 112.722,268.416 112.222,268.314 112.222 C 268.212 112.222,268.388 112.722,268.704 113.333 M271.852 119.907 C 271.852 120.084,272.094 120.552,272.389 120.948 C 272.907 121.641,272.919 121.637,272.715 120.828 C 272.504 119.992,271.852 119.296,271.852 119.907 M235.260 134.251 C 235.703 135.163,236.129 135.846,236.207 135.769 C 236.374 135.601,234.878 132.593,234.627 132.593 C 234.532 132.593,234.817 133.339,235.260 134.251 M194.820 201.291 C 194.132 202.001,193.655 202.667,193.760 202.772 C 193.865 202.877,194.486 202.296,195.141 201.481 C 196.607 199.657,196.478 199.580,194.820 201.291 M235.165 220.278 L 233.889 221.667 235.278 220.390 C 236.571 219.202,236.837 218.889,236.554 218.889 C 236.492 218.889,235.867 219.514,235.165 220.278 " stroke="none" fill="#7c7c7c" fill-rule="evenodd"></path><path id="path2" d="" stroke="none" fill="#848880" fill-rule="evenodd"></path><path id="path3" d="" stroke="none" fill="#848880" fill-rule="evenodd"></path><path id="path4" d="" stroke="none" fill="#848880" fill-rule="evenodd"></path></g></svg>