<svg id="svg" version="1.1" xmlns="http://www.w3.org/2000/svg" xmlns:xlink="http://www.w3.org/1999/xlink" width="400" height="400" viewBox="0, 0, 400,400"><g id="svgg"><path id="path0" d="M284.576 273.857 C 283.518 274.446,282.106 274.794,280.039 274.974 L 277.037 275.236 277.037 276.692 L 277.037 278.148 279.352 278.148 L 281.667 278.148 281.667 284.814 C 281.667 288.480,281.601 291.480,281.521 291.481 C 281.442 291.481,280.205 291.133,278.773 290.706 C 264.912 286.578,252.773 299.770,256.312 315.114 C 258.847 326.104,270.830 330.903,279.996 324.598 C 282.255 323.044,282.153 323.039,282.292 324.722 L 282.407 326.111 287.522 326.214 L 292.636 326.317 292.522 324.733 L 292.407 323.148 290.185 322.963 L 287.963 322.778 287.963 297.963 L 287.963 273.148 287.037 273.074 C 286.528 273.034,285.420 273.386,284.576 273.857 M105.802 276.914 C 104.250 278.466,106.473 280.895,108.873 280.267 C 109.438 280.120,109.639 280.325,109.830 281.244 C 110.059 282.343,113.763 293.578,118.517 307.593 C 119.692 311.056,121.527 316.556,122.596 319.815 C 126.019 330.254,126.228 330.181,130.547 317.037 C 132.120 312.250,133.717 307.500,134.095 306.481 C 134.787 304.618,136.258 300.120,137.970 294.630 C 138.478 293.000,138.991 291.417,139.110 291.111 C 139.327 290.557,140.249 292.814,142.744 300.000 C 148.990 317.988,151.962 326.191,152.391 326.622 C 153.221 327.455,154.627 326.857,155.095 325.472 C 155.321 324.805,156.351 321.843,157.384 318.889 C 158.418 315.935,159.745 312.019,160.334 310.185 C 160.922 308.352,161.578 306.435,161.790 305.926 C 162.003 305.417,163.263 301.667,164.592 297.593 C 169.892 281.339,170.331 280.532,174.312 279.710 C 175.522 279.460,175.759 279.254,175.863 278.359 C 176.045 276.788,175.576 276.679,168.641 276.672 C 161.118 276.666,161.111 276.667,161.111 278.541 C 161.111 280.174,162.343 280.683,165.192 280.227 C 166.665 279.991,166.856 280.374,165.910 281.667 C 165.600 282.091,163.707 287.731,160.377 298.148 C 159.108 302.120,157.946 305.537,157.796 305.741 C 157.646 305.944,157.228 307.194,156.867 308.519 C 156.506 309.843,155.873 311.832,155.461 312.939 L 154.710 314.953 153.656 312.013 C 153.076 310.397,152.195 307.657,151.699 305.926 C 151.203 304.194,149.882 300.111,148.763 296.852 C 146.060 288.983,144.992 285.734,143.645 281.296 C 142.348 277.023,142.075 276.589,140.775 276.741 C 139.594 276.878,139.263 277.545,137.568 283.207 C 136.846 285.619,135.941 288.426,135.557 289.444 C 135.172 290.463,134.172 293.463,133.333 296.111 C 132.494 298.759,131.331 302.426,130.748 304.259 C 130.165 306.093,129.241 309.091,128.694 310.922 L 127.700 314.250 126.972 312.403 C 123.690 304.073,118.238 286.625,117.947 283.519 C 117.703 280.912,118.913 279.630,121.617 279.630 C 123.091 279.630,123.657 278.705,122.970 277.421 C 122.563 276.660,106.530 276.186,105.802 276.914 M186.554 290.905 C 172.243 295.956,170.082 318.119,183.221 325.090 C 195.935 331.836,209.645 322.950,209.625 307.978 C 209.609 295.391,198.059 286.845,186.554 290.905 M228.889 290.265 C 216.292 292.495,210.522 311.902,219.577 321.585 C 228.780 331.428,243.641 328.507,248.920 315.818 C 254.749 301.808,243.651 287.651,228.889 290.265 M196.219 294.220 C 204.026 299.202,204.281 319.449,196.587 323.374 C 189.027 327.231,182.082 319.679,182.074 307.593 C 182.068 296.546,189.240 289.766,196.219 294.220 M234.785 293.325 C 244.002 295.968,245.899 319.133,237.241 323.324 C 229.505 327.069,222.868 320.000,222.817 307.963 C 222.773 297.442,227.782 291.316,234.785 293.325 M279.234 294.247 C 281.689 295.491,281.522 294.498,281.492 307.669 L 281.464 319.422 280.525 320.402 C 275.708 325.430,267.564 323.757,265.052 317.222 C 259.558 302.933,268.330 288.721,279.234 294.247 " stroke="none" fill="#7c7c8c" fill-rule="evenodd"></path><path id="path1" d="M298.611 129.907 C 301.616 129.969,306.532 129.969,309.537 129.907 C 312.542 129.844,310.083 129.793,304.074 129.793 C 298.065 129.793,295.606 129.844,298.611 129.907 M239.259 147.593 C 238.360 148.509,237.707 149.259,237.809 149.259 C 237.911 149.259,238.730 148.509,239.630 147.593 C 240.529 146.676,241.182 145.926,241.080 145.926 C 240.978 145.926,240.159 146.676,239.259 147.593 M129.009 200.278 C 137.325 200.333,150.825 200.333,159.009 200.278 C 167.193 200.222,160.389 200.177,143.889 200.177 C 127.389 200.177,120.693 200.222,129.009 200.278 M266.019 244.352 C 273.912 244.408,286.829 244.408,294.722 244.352 C 302.616 244.296,296.157 244.250,280.370 244.250 C 264.583 244.250,258.125 244.296,266.019 244.352 " stroke="none" fill="#542c04" fill-rule="evenodd"></path><path id="path2" d="M232.071 101.504 C 228.283 102.447,227.359 103.268,203.731 126.667 L 200.926 129.444 144.630 129.339 C 91.117 129.240,83.560 129.351,82.101 130.263 C 81.862 130.413,81.440 130.569,81.162 130.611 C 80.134 130.767,75.696 134.014,74.354 135.591 C 71.726 138.683,71.503 138.979,71.282 139.674 C 71.161 140.057,70.922 140.370,70.752 140.370 C 69.615 140.370,63.593 155.262,62.838 159.938 C 62.751 160.481,62.499 161.593,62.278 162.407 C 62.058 163.222,61.804 164.472,61.715 165.185 C 61.625 165.898,61.455 166.898,61.338 167.407 C 61.221 167.917,61.028 169.167,60.909 170.185 C 60.790 171.204,60.616 172.704,60.521 173.519 C 59.443 182.794,59.710 196.023,61.157 205.000 C 61.354 206.222,61.596 207.806,61.694 208.519 C 61.792 209.231,61.958 210.093,62.063 210.433 C 62.167 210.774,62.327 211.440,62.417 211.915 C 63.541 217.825,68.193 230.818,69.550 231.838 C 69.696 231.947,70.112 232.620,70.476 233.333 C 72.368 237.046,78.210 242.494,81.359 243.483 C 81.801 243.621,82.551 243.853,83.026 243.997 C 84.855 244.553,314.459 244.340,316.656 243.781 C 324.980 241.661,333.420 229.918,336.465 216.218 C 336.569 215.752,336.987 214.038,337.394 212.409 C 337.802 210.781,338.215 208.864,338.313 208.150 C 338.410 207.436,338.732 205.185,339.028 203.148 C 340.508 192.960,340.028 168.676,338.290 165.856 C 338.203 165.716,338.034 164.883,337.912 164.004 C 337.726 162.658,337.193 160.453,336.093 156.481 C 335.980 156.074,335.817 155.407,335.731 155.000 C 335.220 152.600,332.425 145.951,330.124 141.667 C 327.084 136.004,321.119 130.869,316.852 130.242 C 315.108 129.986,289.250 129.654,269.964 129.640 L 256.410 129.630 257.082 127.685 C 259.091 121.869,256.781 113.612,251.604 108.108 C 250.093 106.501,247.317 104.339,246.667 104.262 C 246.565 104.250,246.040 103.944,245.500 103.583 C 242.610 101.649,235.752 100.588,232.071 101.504 M238.721 113.372 C 240.952 114.206,244.174 116.971,244.613 118.426 C 244.752 118.884,245.048 119.259,245.272 119.259 C 245.496 119.259,245.581 119.358,245.460 119.478 C 245.340 119.598,245.452 120.307,245.710 121.052 C 248.093 127.954,237.428 126.531,234.147 119.508 C 231.653 114.169,233.659 111.478,238.721 113.372 M224.815 127.033 C 224.815 127.658,230.782 133.471,232.037 134.068 C 234.908 135.436,235.138 135.000,227.469 142.750 C 219.746 150.553,219.544 150.824,219.544 153.374 C 219.544 157.847,224.379 160.721,228.148 158.489 C 228.861 158.067,233.140 153.984,237.656 149.416 L 245.868 141.111 279.555 141.111 C 308.176 141.111,313.437 141.192,314.531 141.649 C 318.167 143.169,322.880 151.649,325.346 161.111 C 325.809 162.887,327.414 171.613,327.594 173.333 C 327.711 174.454,327.890 176.120,327.990 177.037 C 328.322 180.064,328.422 193.474,328.131 195.926 C 327.975 197.250,327.753 199.250,327.638 200.370 C 327.524 201.491,327.247 203.491,327.022 204.815 C 326.798 206.139,326.545 207.639,326.461 208.148 C 326.376 208.657,325.964 210.407,325.543 212.037 C 325.123 213.667,324.694 215.417,324.590 215.926 C 324.485 216.435,324.243 217.010,324.052 217.204 C 323.860 217.397,323.704 217.772,323.704 218.037 C 323.704 221.282,317.337 230.912,314.203 232.406 C 312.934 233.012,104.234 233.289,104.509 232.685 C 104.579 232.532,105.283 231.157,106.074 229.630 C 109.552 222.913,112.813 211.884,113.484 204.564 C 113.581 203.509,113.772 202.048,113.909 201.317 L 114.159 199.988 144.701 200.006 C 179.329 200.027,177.011 200.233,178.296 197.022 C 179.772 193.333,178.225 189.903,174.646 188.933 C 173.664 188.667,163.599 188.532,144.117 188.523 C 128.132 188.516,115.017 188.470,114.974 188.422 C 114.931 188.373,114.794 185.907,114.671 182.942 C 114.335 174.829,112.966 163.695,112.189 162.744 C 112.007 162.521,111.933 162.264,112.025 162.172 C 112.488 161.710,108.693 149.233,107.563 147.500 C 107.264 147.042,107.110 146.667,107.221 146.667 C 107.331 146.667,106.759 145.417,105.950 143.889 L 104.478 141.111 146.498 141.111 C 169.609 141.111,188.519 141.161,188.519 141.222 C 188.519 141.282,187.602 142.293,186.482 143.468 C 182.137 148.026,184.078 154.348,189.781 154.213 C 192.607 154.146,192.471 154.257,205.173 141.703 C 211.583 135.368,218.228 128.801,219.940 127.110 L 223.054 124.035 223.934 125.331 C 224.419 126.044,224.815 126.810,224.815 127.033 M89.630 141.896 C 92.735 143.769,95.629 148.342,98.156 155.370 C 98.815 157.204,99.446 158.954,99.558 159.259 C 99.671 159.565,99.803 160.065,99.853 160.370 C 99.902 160.676,100.369 162.926,100.889 165.370 C 101.907 170.155,102.014 170.854,102.419 175.370 C 102.565 177.000,102.747 178.667,102.823 179.074 C 102.994 179.984,102.985 194.642,102.813 195.926 C 102.744 196.435,102.571 198.019,102.427 199.444 C 102.050 203.186,101.951 203.814,100.934 208.889 C 100.627 210.417,100.317 212.000,100.244 212.407 C 100.171 212.815,99.990 213.427,99.842 213.767 C 99.694 214.108,99.539 214.608,99.498 214.878 C 99.457 215.149,99.326 215.537,99.207 215.741 C 99.089 215.944,98.857 216.611,98.693 217.222 C 98.528 217.833,98.363 218.417,98.326 218.519 C 96.227 224.259,94.304 227.543,91.235 230.626 C 88.099 233.775,86.265 233.707,82.968 230.318 C 80.837 228.127,80.643 227.847,78.730 224.167 C 75.841 218.612,73.259 208.896,72.406 200.370 C 72.274 199.046,72.085 197.546,71.987 197.037 C 71.658 195.338,71.557 178.164,71.866 176.757 C 72.034 175.994,72.255 174.454,72.357 173.333 C 74.045 154.778,83.240 138.042,89.630 141.896 M253.845 162.045 C 251.025 163.290,249.210 168.490,251.068 170.000 C 251.194 170.102,251.474 170.519,251.692 170.926 C 251.910 171.333,252.743 172.000,253.544 172.407 C 255.565 173.436,311.441 173.775,314.445 172.778 C 319.073 171.240,319.918 165.712,315.985 162.704 L 314.630 161.667 284.815 161.601 C 260.197 161.547,254.799 161.624,253.845 162.045 M88.268 174.301 C 85.460 175.686,85.280 176.424,85.019 187.593 C 84.628 204.291,84.153 207.916,82.065 210.130 C 77.318 215.163,83.030 222.260,89.444 219.300 C 91.811 218.208,94.401 214.415,94.997 211.169 C 95.096 210.628,95.257 209.791,95.353 209.309 C 95.450 208.828,95.638 207.494,95.770 206.346 C 95.902 205.198,96.092 203.926,96.192 203.519 C 96.292 203.111,96.459 197.149,96.564 190.270 L 96.755 177.763 95.818 176.347 C 94.201 173.903,90.893 173.006,88.268 174.301 " stroke="none" fill="#542404" fill-rule="evenodd"></path><path id="path3" d="" stroke="none" fill="#68806c" fill-rule="evenodd"></path><path id="path4" d="M201.958 309.815 C 201.961 310.833,202.032 311.206,202.118 310.643 C 202.203 310.080,202.200 309.247,202.113 308.791 C 202.025 308.336,201.955 308.796,201.958 309.815 " stroke="none" fill="#682428" fill-rule="evenodd"></path></g></svg>